VotoSerifGX-CondensedBoldDisplay.ufo
<glyph name="zero" format="2">
  <advance width="414"/>
  <unicode hex="0030"/>
  <outline>
    <contour>
      <point x="207" y="-10" type="curve" smooth="yes"/>
      <point x="342" y="-10"/>
      <point x="390" y="132"/>
      <point x="390" y="358" type="curve" smooth="yes"/>
      <point x="390" y="587"/>
      <point x="342" y="724"/>
      <point x="208" y="724" type="curve" smooth="yes"/>
      <point x="66" y="724"/>
      <point x="23" y="583"/>
      <point x="23" y="359" type="curve" smooth="yes"/>
      <point x="23" y="130"/>
      <point x="66" y="-10"/>
    </contour>
    <contour>
      <point x="207" y="0" type="curve" smooth="yes"/>
      <point x="173" y="0"/>
      <point x="163" y="39"/>
      <point x="163" y="358" type="curve" smooth="yes"/>
      <point x="163" y="676"/>
      <point x="173" y="714"/>
      <point x="208" y="714" type="curve" smooth="yes"/>
      <point x="239" y="714"/>
      <point x="250" y="676"/>
      <point x="250" y="358" type="curve" smooth="yes"/>
      <point x="250" y="39"/>
      <point x="239" y="0"/>
    </contour>
  </outline>
</glyph>
<glyph name="one" format="2">
  <advance width="414"/>
  <unicode hex="0031"/>
  <outline>
    <contour>
      <point x="60" y="0" type="line"/>
      <point x="384" y="0" type="line"/>
      <point x="384" y="10" type="line"/>
      <point x="341" y="10" type="line" smooth="yes"/>
      <point x="303" y="10"/>
      <point x="296" y="26"/>
      <point x="296" y="78" type="curve" smooth="yes"/>
      <point x="296" y="718" type="line"/>
      <point x="227" y="718" type="line"/>
      <point x="188" y="675" type="line" smooth="yes"/>
      <point x="108" y="589"/>
      <point x="93" y="582"/>
      <point x="22" y="579" type="curve"/>
      <point x="22" y="540"/>
      <point x="48" y="525"/>
      <point x="75" y="525" type="curve" smooth="yes"/>
      <point x="101" y="525"/>
      <point x="122" y="555"/>
      <point x="162" y="621" type="curve"/>
      <point x="162" y="78" type="line" smooth="yes"/>
      <point x="162" y="22"/>
      <point x="149" y="10"/>
      <point x="118" y="10" type="curve" smooth="yes"/>
      <point x="60" y="10" type="line"/>
    </contour>
  </outline>
</glyph>
<glyph name="five" format="2">
  <advance width="414"/>
  <unicode hex="0035"/>
  <outline>
    <contour>
      <point x="173" y="-10" type="curve" smooth="yes"/>
      <point x="255" y="-10"/>
      <point x="381" y="26"/>
      <point x="381" y="219" type="curve" smooth="yes"/>
      <point x="381" y="351"/>
      <point x="308" y="431"/>
      <point x="188" y="431" type="curve" smooth="yes"/>
      <point x="133" y="431"/>
      <point x="92" y="408"/>
      <point x="61" y="368" type="curve"/>
      <point x="80" y="606" type="line"/>
      <point x="292" y="606" type="line" smooth="yes"/>
      <point x="335" y="606"/>
      <point x="351" y="591"/>
      <point x="354" y="543" type="curve" smooth="yes"/>
      <point x="354" y="535" type="line"/>
      <point x="363" y="535" type="line"/>
      <point x="356" y="713" type="line"/>
      <point x="78" y="713" type="line"/>
      <point x="50" y="361" type="line"/>
      <point x="62" y="357" type="line"/>
      <point x="96" y="397"/>
      <point x="129" y="416"/>
      <point x="160" y="416" type="curve" smooth="yes"/>
      <point x="221" y="416"/>
      <point x="244" y="370"/>
      <point x="244" y="227" type="curve" smooth="yes"/>
      <point x="244" y="81"/>
      <point x="240" y="-1"/>
      <point x="171" y="-1" type="curve" smooth="yes"/>
      <point x="121" y="-1"/>
      <point x="94" y="70"/>
      <point x="94" y="182" type="curve"/>
      <point x="58" y="182"/>
      <point x="26" y="160"/>
      <point x="26" y="101" type="curve" smooth="yes"/>
      <point x="26" y="54"/>
      <point x="60" y="-10"/>
    </contour>
  </outline>
</glyph>
<glyph name="seven" format="2">
  <advance width="414"/>
  <unicode hex="0037"/>
  <outline>
    <contour>
      <point x="108" y="0" type="line"/>
      <point x="188" y="0" type="line"/>
      <point x="383" y="666" type="line"/>
      <point x="383" y="713" type="line"/>
      <point x="41" y="713" type="line"/>
      <point x="34" y="505" type="line"/>
      <point x="44" y="505" type="line"/>
      <point x="46" y="519" type="line" smooth="yes"/>
      <point x="52" y="585"/>
      <point x="71" y="606"/>
      <point x="126" y="606" type="curve" smooth="yes"/>
      <point x="356" y="606" type="line"/>
    </contour>
  </outline>
</glyph>
<glyph name="nine" format="2">
  <advance width="414"/>
  <unicode hex="0039"/>
  <outline>
    <contour>
      <point x="162" y="-10" type="curve" smooth="yes"/>
      <point x="331" y="-10"/>
      <point x="386" y="179"/>
      <point x="386" y="385" type="curve" smooth="yes"/>
      <point x="386" y="617"/>
      <point x="305" y="724"/>
      <point x="200" y="724" type="curve" smooth="yes"/>
      <point x="83" y="724"/>
      <point x="21" y="628"/>
      <point x="21" y="482" type="curve" smooth="yes"/>
      <point x="21" y="354"/>
      <point x="86" y="277"/>
      <point x="178" y="277" type="curve" smooth="yes"/>
      <point x="214" y="277"/>
      <point x="246" y="305"/>
      <point x="258" y="314" type="curve"/>
      <point x="254" y="79"/>
      <point x="234" y="2"/>
      <point x="185" y="2" type="curve" smooth="yes"/>
      <point x="138" y="2"/>
      <point x="123" y="45"/>
      <point x="123" y="178" type="curve"/>
      <point x="61" y="173"/>
      <point x="29" y="143"/>
      <point x="29" y="101" type="curve" smooth="yes"/>
      <point x="29" y="58"/>
      <point x="62" y="-10"/>
    </contour>
    <contour>
      <point x="204" y="296" type="curve" smooth="yes"/>
      <point x="162" y="296"/>
      <point x="150" y="344"/>
      <point x="150" y="488" type="curve" smooth="yes"/>
      <point x="150" y="661"/>
      <point x="158" y="714"/>
      <point x="189" y="714" type="curve" smooth="yes"/>
      <point x="238" y="714"/>
      <point x="258" y="614"/>
      <point x="258" y="327" type="curve"/>
      <point x="246" y="315"/>
      <point x="222" y="296"/>
    </contour>
  </outline>
</glyph>
<glyph name="semicolon" format="2">
  <advance width="230"/>
  <unicode hex="003B"/>
  <outline>
    <contour>
      <point x="43" y="-157" type="line"/>
      <point x="143" y="-124"/>
      <point x="180" y="-46"/>
      <point x="180" y="37" type="curve" smooth="yes"/>
      <point x="180" y="106"/>
      <point x="154" y="147"/>
      <point x="106" y="147" type="curve" smooth="yes"/>
      <point x="74" y="147"/>
      <point x="50" y="131"/>
      <point x="50" y="77" type="curve" smooth="yes"/>
      <point x="50" y="-26"/>
      <point x="136" y="1"/>
      <point x="136" y="-58" type="curve" smooth="yes"/>
      <point x="136" y="-110"/>
      <point x="69" y="-140"/>
      <point x="43" y="-146" type="curve"/>
    </contour>
    <contour>
      <point x="115" y="387" type="curve" smooth="yes"/>
      <point x="147" y="387"/>
      <point x="174" y="405"/>
      <point x="174" y="464" type="curve" smooth="yes"/>
      <point x="174" y="522"/>
      <point x="147" y="541"/>
      <point x="115" y="541" type="curve" smooth="yes"/>
      <point x="81" y="541"/>
      <point x="55" y="522"/>
      <point x="55" y="464" type="curve" smooth="yes"/>
      <point x="55" y="405"/>
      <point x="81" y="387"/>
    </contour>
  </outline>
</glyph>
<glyph name="F" format="2">
  <advance width="467"/>
  <unicode hex="0046"/>
  <anchor x="155" y="0" name="bottom"/>
  <anchor x="234" y="714" name="top"/>
  <anchor x="447" y="714" name="topright"/>
  <outline>
    <contour>
      <point x="16" y="0" type="line"/>
      <point x="308" y="0" type="line"/>
      <point x="308" y="10" type="line"/>
      <point x="266" y="10" type="line" smooth="yes"/>
      <point x="236" y="10"/>
      <point x="227" y="26"/>
      <point x="227" y="67" type="curve" smooth="yes"/>
      <point x="227" y="346" type="line"/>
      <point x="397" y="346" type="line"/>
      <point x="397" y="356" type="line"/>
      <point x="227" y="356" type="line"/>
      <point x="227" y="704" type="line"/>
      <point x="294" y="704" type="line" smooth="yes"/>
      <point x="398" y="704"/>
      <point x="433" y="665"/>
      <point x="437" y="537" type="curve" smooth="yes"/>
      <point x="437" y="530" type="line"/>
      <point x="447" y="530" type="line"/>
      <point x="442" y="714" type="line"/>
      <point x="16" y="714" type="line"/>
      <point x="16" y="704" type="line"/>
      <point x="51" y="704" type="line" smooth="yes"/>
      <point x="69" y="704"/>
      <point x="81" y="691"/>
      <point x="81" y="647" type="curve" smooth="yes"/>
      <point x="81" y="65" type="line" smooth="yes"/>
      <point x="81" y="22"/>
      <point x="71" y="10"/>
      <point x="41" y="10" type="curve" smooth="yes"/>
      <point x="16" y="10" type="line"/>
    </contour>
  </outline>
</glyph>
<glyph name="e" format="2">
  <advance width="433"/>
  <unicode hex="0065"/>
  <anchor x="227" y="0" name="bottom"/>
  <anchor x="227" y="536" name="top"/>
  <anchor x="413" y="536" name="topright"/>
  <outline>
    <contour>
      <point x="229" y="-10" type="curve" smooth="yes"/>
      <point x="362" y="-10"/>
      <point x="392" y="63"/>
      <point x="392" y="106" type="curve" smooth="yes"/>
      <point x="392" y="124"/>
      <point x="379" y="139"/>
      <point x="368" y="144" type="curve"/>
      <point x="354" y="24"/>
      <point x="309" y="4"/>
      <point x="265" y="4" type="curve" smooth="yes"/>
      <point x="198" y="4"/>
      <point x="169" y="68"/>
      <point x="169" y="285" type="curve"/>
      <point x="406" y="285" type="line"/>
      <point x="406" y="307" type="line" smooth="yes"/>
      <point x="406" y="465"/>
      <point x="337" y="549"/>
      <point x="223" y="549" type="curve" smooth="yes"/>
      <point x="100" y="549"/>
      <point x="29" y="452"/>
      <point x="29" y="264" type="curve" smooth="yes"/>
      <point x="29" y="91"/>
      <point x="92" y="-10"/>
    </contour>
    <contour>
      <point x="169" y="295" type="line"/>
      <point x="169" y="497"/>
      <point x="182" y="539"/>
      <point x="222" y="539" type="curve" smooth="yes"/>
      <point x="259" y="539"/>
      <point x="267" y="497"/>
      <point x="267" y="295" type="curve"/>
    </contour>
  </outline>
</glyph>
<glyph name="r" format="2">
  <advance width="406"/>
  <unicode hex="0072"/>
  <anchor x="139" y="0" name="bottom"/>
  <anchor x="203" y="536" name="top"/>
  <anchor x="433" y="536" name="topright"/>
  <outline>
    <contour>
      <point x="7" y="0" type="line"/>
      <point x="274" y="0" type="line"/>
      <point x="274" y="10" type="line"/>
      <point x="282" y="10" type="line" smooth="yes"/>
      <point x="217" y="10"/>
      <point x="204" y="31"/>
      <point x="204" y="74" type="curve" smooth="yes"/>
      <point x="204" y="345" type="line" smooth="yes"/>
      <point x="204" y="471"/>
      <point x="234" y="510"/>
      <point x="251" y="510" type="curve" smooth="yes"/>
      <point x="281" y="510"/>
      <point x="287" y="478"/>
      <point x="287" y="371" type="curve"/>
      <point x="366" y="371"/>
      <point x="394" y="400"/>
      <point x="394" y="459" type="curve" smooth="yes"/>
      <point x="394" y="520"/>
      <point x="361" y="547"/>
      <point x="307" y="547" type="curve" smooth="yes"/>
      <point x="249" y="547"/>
      <point x="224" y="520"/>
      <point x="207" y="462" type="curve"/>
      <point x="205" y="462" type="line"/>
      <point x="205" y="536" type="line"/>
      <point x="12" y="536" type="line"/>
      <point x="12" y="526" type="line"/>
      <point x="13" y="526" type="line" smooth="yes"/>
      <point x="52" y="526"/>
      <point x="61" y="507"/>
      <point x="61" y="470" type="curve" smooth="yes"/>
      <point x="61" y="70" type="line" smooth="yes"/>
      <point x="61" y="31"/>
      <point x="53" y="10"/>
      <point x="7" y="10" type="curve" smooth="yes"/>
      <point x="7" y="10" type="line"/>
    </contour>
  </outline>
</glyph>
<glyph name="paragraph" format="2">
  <advance width="457"/>
  <unicode hex="00B6"/>
  <outline>
    <contour>
      <point x="122" y="-111" type="line"/>
      <point x="249" y="-111" type="line"/>
      <point x="249" y="750" type="line"/>
      <point x="303" y="750" type="line"/>
      <point x="303" y="-111" type="line"/>
      <point x="430" y="-111" type="line"/>
      <point x="430" y="-101" type="line"/>
      <point x="420" y="-101" type="line" smooth="yes"/>
      <point x="389" y="-101"/>
      <point x="362" y="-94"/>
      <point x="362" y="-31" type="curve" smooth="yes"/>
      <point x="362" y="678" type="line" smooth="yes"/>
      <point x="362" y="741"/>
      <point x="389" y="750"/>
      <point x="420" y="750" type="curve" smooth="yes"/>
      <point x="430" y="750" type="line"/>
      <point x="430" y="760" type="line"/>
      <point x="142" y="760" type="line" smooth="yes"/>
      <point x="59" y="760"/>
      <point x="28" y="689"/>
      <point x="28" y="582" type="curve" smooth="yes"/>
      <point x="28" y="478"/>
      <point x="54" y="386"/>
      <point x="140" y="386" type="curve" smooth="yes"/>
      <point x="191" y="386" type="line"/>
      <point x="191" y="-31" type="line" smooth="yes"/>
      <point x="191" y="-94"/>
      <point x="164" y="-101"/>
      <point x="130" y="-101" type="curve" smooth="yes"/>
      <point x="122" y="-101" type="line"/>
    </contour>
  </outline>
</glyph>
<glyph name="cedilla" format="2">
  <advance width="240"/>
  <unicode hex="00B8"/>
  <outline>
    <contour>
      <point x="97" y="-237" type="curve" smooth="yes"/>
      <point x="165" y="-237"/>
      <point x="207" y="-204"/>
      <point x="207" y="-148" type="curve" smooth="yes"/>
      <point x="207" y="-101"/>
      <point x="176" y="-68"/>
      <point x="114" y="-59" type="curve"/>
      <point x="126" y="11" type="line"/>
      <point x="116" y="11" type="line"/>
      <point x="103" y="-64" type="line"/>
      <point x="122" y="-71"/>
      <point x="130" y="-87"/>
      <point x="130" y="-131" type="curve" smooth="yes"/>
      <point x="130" y="-191"/>
      <point x="107" y="-223"/>
      <point x="63" y="-223" type="curve" smooth="yes"/>
      <point x="53" y="-223"/>
      <point x="45" y="-221"/>
      <point x="30" y="-216" type="curve"/>
      <point x="30" y="-226" type="line"/>
      <point x="52" y="-233"/>
      <point x="68" y="-237"/>
    </contour>
  </outline>
</glyph>
<glyph name="ordmasculine" format="2">
  <advance width="336"/>
  <unicode hex="00BA"/>
  <outline>
    <contour>
      <point x="168" y="380" type="curve" smooth="yes"/>
      <point x="262" y="380"/>
      <point x="311" y="436"/>
      <point x="311" y="550" type="curve" smooth="yes"/>
      <point x="311" y="664"/>
      <point x="258" y="719"/>
      <point x="170" y="719" type="curve" smooth="yes"/>
      <point x="75" y="719"/>
      <point x="25" y="664"/>
      <point x="25" y="550" type="curve" smooth="yes"/>
      <point x="25" y="436"/>
      <point x="77" y="380"/>
    </contour>
    <contour>
      <point x="169" y="390" type="curve" smooth="yes"/>
      <point x="136" y="390"/>
      <point x="126" y="429"/>
      <point x="126" y="553" type="curve" smooth="yes"/>
      <point x="126" y="671"/>
      <point x="136" y="709"/>
      <point x="168" y="709" type="curve" smooth="yes"/>
      <point x="201" y="709"/>
      <point x="211" y="671"/>
      <point x="211" y="553" type="curve" smooth="yes"/>
      <point x="211" y="429"/>
      <point x="201" y="390"/>
    </contour>
  </outline>
</glyph>
<glyph name="Aring" format="2">
  <advance width="570"/>
  <unicode hex="00C5"/>
  <anchor x="286" y="0" name="bottom"/>
  <anchor x="286" y="878" name="top"/>
  <outline>
    <contour>
      <point x="5" y="0" type="line"/>
      <point x="181" y="0" type="line"/>
      <point x="181" y="10" type="line"/>
      <point x="128" y="10" type="line" smooth="yes"/>
      <point x="111" y="10"/>
      <point x="101" y="17"/>
      <point x="101" y="43" type="curve" smooth="yes"/>
      <point x="101" y="57"/>
      <point x="103" y="79"/>
      <point x="111" y="111" type="curve" smooth="yes"/>
      <point x="145" y="260" type="line"/>
      <point x="332" y="260" type="line"/>
      <point x="365" y="97" type="line" smooth="yes"/>
      <point x="367" y="81"/>
      <point x="373" y="62"/>
      <point x="373" y="45" type="curve" smooth="yes"/>
      <point x="373" y="25"/>
      <point x="366" y="10"/>
      <point x="344" y="10" type="curve" smooth="yes"/>
      <point x="295" y="10" type="line"/>
      <point x="295" y="0" type="line"/>
      <point x="570" y="0" type="line"/>
      <point x="570" y="10" type="line"/>
      <point x="556" y="10" type="line" smooth="yes"/>
      <point x="534" y="10"/>
      <point x="531" y="22"/>
      <point x="519" y="69" type="curve" smooth="yes"/>
      <point x="364" y="693" type="line"/>
      <point x="381" y="711"/>
      <point x="391" y="736"/>
      <point x="391" y="770" type="curve" smooth="yes"/>
      <point x="391" y="843"/>
      <point x="341" y="878"/>
      <point x="288" y="878" type="curve" smooth="yes"/>
      <point x="237" y="878"/>
      <point x="187" y="843"/>
      <point x="187" y="770" type="curve" smooth="yes"/>
      <point x="187" y="725"/>
      <point x="206" y="693"/>
      <point x="233" y="678" type="curve"/>
      <point x="95" y="84" type="line" smooth="yes"/>
      <point x="82" y="31"/>
      <point x="76" y="10"/>
      <point x="35" y="10" type="curve" smooth="yes"/>
      <point x="5" y="10" type="line"/>
    </contour>
    <contour>
      <point x="148" y="270" type="line"/>
      <point x="236" y="622" type="line" smooth="yes"/>
      <point x="239" y="640"/>
      <point x="236" y="640"/>
      <point x="244" y="679" type="curve"/>
      <point x="250" y="642"/>
      <point x="244" y="655"/>
      <point x="251" y="622" type="curve" smooth="yes"/>
      <point x="329" y="270" type="line"/>
    </contour>
    <contour>
      <point x="288" y="672" type="curve" smooth="yes"/>
      <point x="237" y="672"/>
      <point x="199" y="702"/>
      <point x="199" y="770" type="curve" smooth="yes"/>
      <point x="199" y="838"/>
      <point x="237" y="868"/>
      <point x="288" y="868" type="curve" smooth="yes"/>
      <point x="340" y="868"/>
      <point x="379" y="838"/>
      <point x="379" y="770" type="curve" smooth="yes"/>
      <point x="379" y="702"/>
      <point x="340" y="672"/>
    </contour>
  </outline>
</glyph>
<glyph name="Oslash" format="2">
  <advance width="593"/>
  <unicode hex="00D8"/>
  <anchor x="297" y="0" name="bottom"/>
  <anchor x="297" y="714" name="top"/>
  <outline>
    <contour>
      <point x="144" y="-40" type="line"/>
      <point x="154" y="-40" type="line"/>
      <point x="178" y="20" type="line"/>
      <point x="211" y="1"/>
      <point x="252" y="-10"/>
      <point x="298" y="-10" type="curve" smooth="yes"/>
      <point x="462" y="-10"/>
      <point x="554" y="137"/>
      <point x="554" y="358" type="curve" smooth="yes"/>
      <point x="554" y="512"/>
      <point x="510" y="627"/>
      <point x="431" y="686" type="curve"/>
      <point x="457" y="755" type="line"/>
      <point x="447" y="755" type="line"/>
      <point x="423" y="691" type="line"/>
      <point x="387" y="713"/>
      <point x="345" y="725"/>
      <point x="299" y="725" type="curve" smooth="yes"/>
      <point x="123" y="725"/>
      <point x="39" y="580"/>
      <point x="39" y="359" type="curve" smooth="yes"/>
      <point x="39" y="202"/>
      <point x="81" y="82"/>
      <point x="169" y="26" type="curve"/>
    </contour>
    <contour>
      <point x="298" y="0" type="curve" smooth="yes"/>
      <point x="250" y="0"/>
      <point x="221" y="23"/>
      <point x="207" y="100" type="curve"/>
      <point x="392" y="587" type="line"/>
      <point x="399" y="534"/>
      <point x="403" y="460"/>
      <point x="403" y="358" type="curve" smooth="yes"/>
      <point x="403" y="65"/>
      <point x="380" y="0"/>
    </contour>
    <contour>
      <point x="203" y="118" type="line"/>
      <point x="195" y="172"/>
      <point x="192" y="249"/>
      <point x="192" y="358" type="curve" smooth="yes"/>
      <point x="192" y="650"/>
      <point x="217" y="715"/>
      <point x="299" y="715" type="curve" smooth="yes"/>
      <point x="348" y="715"/>
      <point x="376" y="691"/>
      <point x="390" y="606" type="curve"/>
    </contour>
  </outline>
</glyph>
<glyph name="germandbls" format="2">
  <advance width="542"/>
  <unicode hex="00DF"/>
  <anchor x="272" y="0" name="bottom"/>
  <anchor x="272" y="770" name="top"/>
  <outline>
    <contour>
      <point x="355" y="-10" type="curve"/>
      <point x="466" y="-10"/>
      <point x="516" y="51"/>
      <point x="516" y="153" type="curve" smooth="yes"/>
      <point x="516" y="258"/>
      <point x="451" y="298"/>
      <point x="399" y="335" type="curve" smooth="yes"/>
      <point x="355" y="363"/>
      <point x="309" y="400"/>
      <point x="309" y="443" type="curve" smooth="yes"/>
      <point x="309" y="510"/>
      <point x="353" y="526"/>
      <point x="381" y="526" type="curve" smooth="yes"/>
      <point x="479" y="526" type="line"/>
      <point x="464" y="687"/>
      <point x="408" y="767"/>
      <point x="267" y="767" type="curve" smooth="yes"/>
      <point x="152" y="767"/>
      <point x="64" y="713"/>
      <point x="64" y="556" type="curve" smooth="yes"/>
      <point x="64" y="536" type="line"/>
      <point x="6" y="536" type="line"/>
      <point x="6" y="526" type="line"/>
      <point x="64" y="526" type="line"/>
      <point x="64" y="78" type="line" smooth="yes"/>
      <point x="64" y="19"/>
      <point x="37" y="10"/>
      <point x="4" y="10" type="curve" smooth="yes"/>
      <point x="-4" y="10" type="line"/>
      <point x="-4" y="0" type="line"/>
      <point x="203" y="0" type="line"/>
      <point x="203" y="617" type="line" smooth="yes"/>
      <point x="203" y="703"/>
      <point x="229" y="757"/>
      <point x="269" y="757" type="curve" smooth="yes"/>
      <point x="331" y="757"/>
      <point x="370" y="673"/>
      <point x="370" y="535" type="curve"/>
      <point x="288" y="525"/>
      <point x="237" y="472"/>
      <point x="237" y="393" type="curve" smooth="yes"/>
      <point x="237" y="276"/>
      <point x="313" y="244"/>
      <point x="353" y="219" type="curve" smooth="yes"/>
      <point x="394" y="194"/>
      <point x="449" y="166"/>
      <point x="449" y="91" type="curve" smooth="yes"/>
      <point x="449" y="37"/>
      <point x="429" y="0"/>
      <point x="361" y="0" type="curve" smooth="yes"/>
      <point x="307" y="0"/>
      <point x="274" y="50"/>
      <point x="278" y="169" type="curve"/>
      <point x="259" y="169"/>
      <point x="226" y="163"/>
      <point x="226" y="99" type="curve" smooth="yes"/>
      <point x="226" y="32"/>
      <point x="291" y="-10"/>
    </contour>
  </outline>
</glyph>
<glyph name="uni018A" format="2">
  <advance width="704"/>
  <unicode hex="018A"/>
  <anchor x="353" y="0" name="bottom"/>
  <anchor x="353" y="714" name="top"/>
  <outline>
    <contour>
      <point x="144" y="0" type="line"/>
      <point x="396" y="0" type="line"/>
      <point x="573" y="0"/>
      <point x="666" y="150"/>
      <point x="666" y="369" type="curve" smooth="yes"/>
      <point x="666" y="596"/>
      <point x="563" y="714"/>
      <point x="396" y="714" type="curve" smooth="yes"/>
      <point x="170" y="714" type="line" smooth="yes"/>
      <point x="53" y="714"/>
      <point x="6" y="653"/>
      <point x="6" y="573" type="curve" smooth="yes"/>
      <point x="6" y="520"/>
      <point x="29" y="484"/>
      <point x="72" y="484" type="curve" smooth="yes"/>
      <point x="91" y="484"/>
      <point x="103" y="492"/>
      <point x="118" y="505" type="curve"/>
      <point x="105" y="521"/>
      <point x="95" y="555"/>
      <point x="95" y="594" type="curve" smooth="yes"/>
      <point x="95" y="662"/>
      <point x="123" y="704"/>
      <point x="165" y="704" type="curve" smooth="yes"/>
      <point x="193" y="704"/>
      <point x="210" y="677"/>
      <point x="210" y="613" type="curve" smooth="yes"/>
      <point x="210" y="71" type="line" smooth="yes"/>
      <point x="210" y="29"/>
      <point x="200" y="10"/>
      <point x="182" y="10" type="curve" smooth="yes"/>
      <point x="144" y="10" type="line"/>
    </contour>
    <contour>
      <point x="355" y="10" type="line"/>
      <point x="355" y="704" type="line"/>
      <point x="378" y="704" type="line"/>
      <point x="476" y="704"/>
      <point x="513" y="611"/>
      <point x="513" y="374" type="curve" smooth="yes"/>
      <point x="513" y="111"/>
      <point x="476" y="10"/>
      <point x="378" y="10" type="curve" smooth="yes"/>
    </contour>
  </outline>
</glyph>
<glyph name="florin" format="2">
  <advance width="404"/>
  <unicode hex="0192"/>
  <anchor x="-58" y="-240" name="bottom"/>
  <anchor x="341" y="724" name="top"/>
  <outline>
    <contour>
      <point x="141" y="-240" type="curve" smooth="yes"/>
      <point x="257" y="-240"/>
      <point x="326" y="-187"/>
      <point x="326" y="-8" type="curve" smooth="yes"/>
      <point x="326" y="413" type="line"/>
      <point x="452" y="413" type="line"/>
      <point x="452" y="423" type="line"/>
      <point x="326" y="423" type="line"/>
      <point x="326" y="594" type="line" smooth="yes"/>
      <point x="326" y="667"/>
      <point x="342" y="714"/>
      <point x="377" y="714" type="curve" smooth="yes"/>
      <point x="412" y="714"/>
      <point x="435" y="674"/>
      <point x="435" y="574" type="curve"/>
      <point x="497" y="574"/>
      <point x="522" y="599"/>
      <point x="522" y="637" type="curve" smooth="yes"/>
      <point x="522" y="684"/>
      <point x="474" y="724"/>
      <point x="373" y="724" type="curve" smooth="yes"/>
      <point x="259" y="724"/>
      <point x="202" y="647"/>
      <point x="202" y="534" type="curve" smooth="yes"/>
      <point x="202" y="423" type="line"/>
      <point x="100" y="423" type="line"/>
      <point x="100" y="413" type="line"/>
      <point x="202" y="413" type="line"/>
      <point x="202" y="-55" type="line" smooth="yes"/>
      <point x="202" y="-171"/>
      <point x="190" y="-231"/>
      <point x="122" y="-231" type="curve" smooth="yes"/>
      <point x="107" y="-231"/>
      <point x="87" y="-227"/>
      <point x="63" y="-220" type="curve"/>
      <point x="63" y="-230" type="line"/>
      <point x="86" y="-235"/>
      <point x="118" y="-240"/>
    </contour>
  </outline>
</glyph>
<glyph name="uni0195" format="2">
  <advance width="707"/>
  <unicode hex="0195"/>
  <anchor x="353" y="0" name="bottom"/>
  <anchor x="353" y="536" name="top"/>
  <outline>
    <contour>
      <point x="474" y="-8" type="curve" smooth="yes"/>
      <point x="595" y="-8"/>
      <point x="653" y="65"/>
      <point x="653" y="224" type="curve" smooth="yes"/>
      <point x="653" y="536" type="line"/>
      <point x="472" y="536" type="line"/>
      <point x="472" y="526" type="line"/>
      <point x="474" y="526" type="line" smooth="yes"/>
      <point x="502" y="526"/>
      <point x="513" y="504"/>
      <point x="513" y="456" type="curve" smooth="yes"/>
      <point x="513" y="116" type="line" smooth="yes"/>
      <point x="513" y="32"/>
      <point x="509" y="2"/>
      <point x="474" y="2" type="curve" smooth="yes"/>
      <point x="444" y="2"/>
      <point x="436" y="24"/>
      <point x="436" y="107" type="curve" smooth="yes"/>
      <point x="436" y="355" type="line" smooth="yes"/>
      <point x="436" y="491"/>
      <point x="396" y="549"/>
      <point x="319" y="549" type="curve" smooth="yes"/>
      <point x="256" y="549"/>
      <point x="224" y="515"/>
      <point x="211" y="469" type="curve"/>
      <point x="209" y="469" type="line"/>
      <point x="211" y="486"/>
      <point x="211" y="509"/>
      <point x="211" y="526" type="curve" smooth="yes"/>
      <point x="211" y="760" type="line"/>
      <point x="11" y="760" type="line"/>
      <point x="11" y="750" type="line"/>
      <point x="22" y="750" type="line" smooth="yes"/>
      <point x="59" y="750"/>
      <point x="67" y="731"/>
      <point x="67" y="685" type="curve" smooth="yes"/>
      <point x="67" y="79" type="line" smooth="yes"/>
      <point x="67" y="31"/>
      <point x="60" y="10"/>
      <point x="18" y="10" type="curve" smooth="yes"/>
      <point x="16" y="10" type="line"/>
      <point x="16" y="0" type="line"/>
      <point x="258" y="0" type="line"/>
      <point x="258" y="10" type="line"/>
      <point x="255" y="10" type="line"/>
      <point x="218" y="10"/>
      <point x="209" y="30"/>
      <point x="209" y="76" type="curve" smooth="yes"/>
      <point x="209" y="359" type="line" smooth="yes"/>
      <point x="209" y="481"/>
      <point x="237" y="519"/>
      <point x="265" y="519" type="curve" smooth="yes"/>
      <point x="286" y="519"/>
      <point x="296" y="491"/>
      <point x="296" y="376" type="curve" smooth="yes"/>
      <point x="296" y="223" type="line" smooth="yes"/>
      <point x="296" y="63"/>
      <point x="344" y="-8"/>
    </contour>
  </outline>
</glyph>
<glyph name="uni0196" format="2">
  <advance width="309"/>
  <unicode hex="0196"/>
  <anchor x="155" y="0" name="bottom"/>
  <anchor x="155" y="714" name="top"/>
  <outline>
    <contour>
      <point x="203" y="-10" type="curve" smooth="yes"/>
      <point x="246" y="-10"/>
      <point x="274" y="-1"/>
      <point x="287" y="5" type="curve"/>
      <point x="287" y="15" type="line"/>
      <point x="280" y="12"/>
      <point x="271" y="10"/>
      <point x="256" y="10" type="curve" smooth="yes"/>
      <point x="231" y="10"/>
      <point x="222" y="32"/>
      <point x="222" y="85" type="curve" smooth="yes"/>
      <point x="222" y="639" type="line" smooth="yes"/>
      <point x="222" y="684"/>
      <point x="221" y="704"/>
      <point x="256" y="704" type="curve" smooth="yes"/>
      <point x="287" y="704" type="line"/>
      <point x="287" y="714" type="line"/>
      <point x="11" y="714" type="line"/>
      <point x="11" y="704" type="line"/>
      <point x="44" y="704" type="line" smooth="yes"/>
      <point x="76" y="704"/>
      <point x="77" y="684"/>
      <point x="77" y="639" type="curve" smooth="yes"/>
      <point x="77" y="166" type="line" smooth="yes"/>
      <point x="77" y="38"/>
      <point x="118" y="-10"/>
    </contour>
  </outline>
</glyph>
<glyph name="uni019D" format="2">
  <advance width="583"/>
  <unicode hex="019D"/>
  <anchor x="291" y="-240" name="bottom"/>
  <anchor x="291" y="714" name="top"/>
  <outline>
    <contour>
      <point x="5" y="-240" type="line"/>
      <point x="4" y="-240" type="line" smooth="yes"/>
      <point x="74" y="-240"/>
      <point x="105" y="-204"/>
      <point x="105" y="-28" type="curve" smooth="yes"/>
      <point x="105" y="666" type="line"/>
      <point x="382" y="0" type="line"/>
      <point x="479" y="0" type="line"/>
      <point x="479" y="639" type="line" smooth="yes"/>
      <point x="479" y="690"/>
      <point x="483" y="704"/>
      <point x="515" y="704" type="curve" smooth="yes"/>
      <point x="576" y="704" type="line"/>
      <point x="576" y="714" type="line"/>
      <point x="377" y="714" type="line"/>
      <point x="377" y="704" type="line"/>
      <point x="435" y="704" type="line" smooth="yes"/>
      <point x="467" y="704"/>
      <point x="469" y="690"/>
      <point x="469" y="643" type="curve" smooth="yes"/>
      <point x="469" y="150" type="line"/>
      <point x="226" y="714" type="line"/>
      <point x="16" y="714" type="line"/>
      <point x="16" y="704" type="line"/>
      <point x="60" y="704" type="line" smooth="yes"/>
      <point x="94" y="704"/>
      <point x="95" y="685"/>
      <point x="95" y="643" type="curve" smooth="yes"/>
      <point x="95" y="-20" type="line" smooth="yes"/>
      <point x="95" y="-167"/>
      <point x="62" y="-230"/>
      <point x="4" y="-230" type="curve" smooth="yes"/>
      <point x="5" y="-230" type="line"/>
    </contour>
  </outline>
</glyph>
<glyph name="uni01BA" format="2">
  <advance width="400"/>
  <unicode hex="01BA"/>
  <anchor x="196" y="-240" name="bottom"/>
  <anchor x="196" y="536" name="top"/>
  <outline>
    <contour>
      <point x="194" y="-240" type="curve" smooth="yes"/>
      <point x="287" y="-240"/>
      <point x="349" y="-205"/>
      <point x="349" y="-144" type="curve" smooth="yes"/>
      <point x="349" y="-121"/>
      <point x="339" y="-105"/>
      <point x="315" y="-89" type="curve"/>
      <point x="304" y="-195"/>
      <point x="256" y="-230"/>
      <point x="194" y="-230" type="curve" smooth="yes"/>
      <point x="141" y="-230"/>
      <point x="107" y="-203"/>
      <point x="107" y="-127" type="curve" smooth="yes"/>
      <point x="107" y="-45"/>
      <point x="147" y="-37"/>
      <point x="164" y="-31" type="curve" smooth="yes"/>
      <point x="266" y="-9"/>
      <point x="370" y="16"/>
      <point x="370" y="137" type="curve" smooth="yes"/>
      <point x="370" y="229"/>
      <point x="309" y="268"/>
      <point x="156" y="268" type="curve"/>
      <point x="351" y="461" type="line"/>
      <point x="351" y="536" type="line"/>
      <point x="24" y="536" type="line"/>
      <point x="25" y="359" type="line"/>
      <point x="33" y="359" type="line"/>
      <point x="34" y="383" type="line" smooth="yes"/>
      <point x="34" y="422"/>
      <point x="54" y="434"/>
      <point x="99" y="434" type="curve" smooth="yes"/>
      <point x="310" y="434" type="line"/>
      <point x="143" y="268" type="line"/>
      <point x="143" y="258" type="line"/>
      <point x="152" y="258" type="line" smooth="yes"/>
      <point x="206" y="258"/>
      <point x="231" y="223"/>
      <point x="231" y="123" type="curve" smooth="yes"/>
      <point x="231" y="25"/>
      <point x="209" y="-7"/>
      <point x="142" y="-22" type="curve" smooth="yes"/>
      <point x="87" y="-32"/>
      <point x="23" y="-46"/>
      <point x="23" y="-122" type="curve" smooth="yes"/>
      <point x="23" y="-200"/>
      <point x="92" y="-240"/>
    </contour>
  </outline>
</glyph>
<glyph name="uni01BB" format="2">
  <advance width="405"/>
  <unicode hex="01BB"/>
  <anchor x="203" y="0" name="bottom"/>
  <anchor x="203" y="760" name="top"/>
  <outline>
    <contour>
      <point x="19" y="0" type="line"/>
      <point x="378" y="0" type="line"/>
      <point x="385" y="192" type="line"/>
      <point x="376" y="192" type="line"/>
      <point x="373" y="154" type="line" smooth="yes"/>
      <point x="369" y="110"/>
      <point x="342" y="95"/>
      <point x="289" y="95" type="curve" smooth="yes"/>
      <point x="36" y="95" type="line"/>
      <point x="328" y="394" type="line" smooth="yes"/>
      <point x="325" y="407"/>
      <point x="315" y="416"/>
      <point x="299" y="418" type="curve"/>
      <point x="380" y="418" type="line"/>
      <point x="380" y="428" type="line"/>
      <point x="307" y="428" type="line"/>
      <point x="332" y="488"/>
      <point x="376" y="552"/>
      <point x="376" y="603" type="curve" smooth="yes"/>
      <point x="376" y="699"/>
      <point x="317" y="760"/>
      <point x="200" y="760" type="curve" smooth="yes"/>
      <point x="88" y="760"/>
      <point x="19" y="710"/>
      <point x="19" y="629" type="curve" smooth="yes"/>
      <point x="19" y="569"/>
      <point x="37" y="532"/>
      <point x="128" y="532" type="curve"/>
      <point x="128" y="699"/>
      <point x="141" y="750"/>
      <point x="187" y="750" type="curve" smooth="yes"/>
      <point x="217" y="750"/>
      <point x="227" y="723"/>
      <point x="227" y="606" type="curve" smooth="yes"/>
      <point x="227" y="545"/>
      <point x="219" y="485"/>
      <point x="210" y="428" type="curve"/>
      <point x="37" y="428" type="line"/>
      <point x="37" y="418" type="line"/>
      <point x="208" y="418" type="line"/>
      <point x="193" y="374"/>
      <point x="171" y="328"/>
      <point x="137" y="276" type="curve" smooth="yes"/>
      <point x="19" y="78" type="line"/>
    </contour>
  </outline>
</glyph>
<glyph name="uni01BF" format="2">
  <advance width="483"/>
  <unicode hex="01BF"/>
  <anchor x="242" y="-240" name="bottom"/>
  <anchor x="242" y="536" name="top"/>
  <outline>
    <contour>
      <point x="6" y="-228" type="line"/>
      <point x="275" y="-228" type="line"/>
      <point x="275" y="-218" type="line"/>
      <point x="257" y="-218" type="line" smooth="yes"/>
      <point x="211" y="-218"/>
      <point x="205" y="-195"/>
      <point x="205" y="-132" type="curve" smooth="yes"/>
      <point x="205" y="-10" type="line"/>
      <point x="329" y="35"/>
      <point x="456" y="147"/>
      <point x="456" y="334" type="curve" smooth="yes"/>
      <point x="456" y="468"/>
      <point x="397" y="547"/>
      <point x="299" y="547" type="curve" smooth="yes"/>
      <point x="237" y="547"/>
      <point x="214" y="526"/>
      <point x="205" y="473" type="curve"/>
      <point x="203" y="473" type="line"/>
      <point x="203" y="536" type="line"/>
      <point x="21" y="536" type="line"/>
      <point x="21" y="526" type="line"/>
      <point x="23" y="526" type="line" smooth="yes"/>
      <point x="21" y="526"/>
      <point x="62" y="525"/>
      <point x="62" y="468" type="curve" smooth="yes"/>
      <point x="62" y="-132" type="line" smooth="yes"/>
      <point x="62" y="-195"/>
      <point x="56" y="-218"/>
      <point x="10" y="-218" type="curve" smooth="yes"/>
      <point x="6" y="-218" type="line"/>
    </contour>
    <contour>
      <point x="205" y="0" type="curve"/>
      <point x="205" y="261" type="line" smooth="yes"/>
      <point x="205" y="438"/>
      <point x="211" y="532"/>
      <point x="253" y="532" type="curve" smooth="yes"/>
      <point x="297" y="532"/>
      <point x="312" y="456"/>
      <point x="312" y="327" type="curve" smooth="yes"/>
      <point x="312" y="57"/>
      <point x="290" y="21"/>
    </contour>
  </outline>
</glyph>
<glyph name="uni01E4" format="2">
  <advance width="587"/>
  <unicode hex="01E4"/>
  <anchor x="293" y="0" name="bottom"/>
  <anchor x="293" y="714" name="top"/>
  <outline>
    <contour>
      <point x="318" y="-10" type="curve" smooth="yes"/>
      <point x="386" y="-10"/>
      <point x="448" y="8"/>
      <point x="509" y="43" type="curve"/>
      <point x="509" y="177" type="line"/>
      <point x="559" y="177" type="line"/>
      <point x="559" y="187" type="line"/>
      <point x="509" y="187" type="line"/>
      <point x="509" y="237" type="line" smooth="yes"/>
      <point x="509" y="295"/>
      <point x="515" y="310"/>
      <point x="546" y="310" type="curve" smooth="yes"/>
      <point x="553" y="310" type="line"/>
      <point x="553" y="320" type="line"/>
      <point x="305" y="320" type="line"/>
      <point x="305" y="310" type="line"/>
      <point x="318" y="310" type="line" smooth="yes"/>
      <point x="353" y="310"/>
      <point x="364" y="295"/>
      <point x="364" y="241" type="curve" smooth="yes"/>
      <point x="364" y="187" type="line"/>
      <point x="269" y="187" type="line"/>
      <point x="269" y="177" type="line"/>
      <point x="364" y="177" type="line"/>
      <point x="364" y="7" type="line"/>
      <point x="350" y="3"/>
      <point x="337" y="0"/>
      <point x="329" y="0" type="curve" smooth="yes"/>
      <point x="220" y="0"/>
      <point x="191" y="74"/>
      <point x="191" y="358" type="curve" smooth="yes"/>
      <point x="191" y="630"/>
      <point x="221" y="714"/>
      <point x="319" y="714" type="curve" smooth="yes"/>
      <point x="390" y="714"/>
      <point x="405" y="661"/>
      <point x="405" y="524" type="curve"/>
      <point x="482" y="524"/>
      <point x="517" y="562"/>
      <point x="517" y="608" type="curve" smooth="yes"/>
      <point x="517" y="673"/>
      <point x="451" y="724"/>
      <point x="321" y="724" type="curve" smooth="yes"/>
      <point x="135" y="724"/>
      <point x="39" y="574"/>
      <point x="39" y="358" type="curve" smooth="yes"/>
      <point x="39" y="137"/>
      <point x="130" y="-10"/>
    </contour>
  </outline>
</glyph>
<glyph name="uni01E5" format="2">
  <advance width="416"/>
  <unicode hex="01E5"/>
  <anchor x="208" y="-240" name="bottom"/>
  <anchor x="208" y="536" name="top"/>
  <outline>
    <contour>
      <point x="167" y="-235" type="curve" smooth="yes"/>
      <point x="300" y="-235"/>
      <point x="371" y="-186"/>
      <point x="391" y="-103" type="curve"/>
      <point x="425" y="-103" type="line"/>
      <point x="425" y="-93" type="line"/>
      <point x="391" y="-93" type="line"/>
      <point x="395" y="-78"/>
      <point x="396" y="-62"/>
      <point x="396" y="-44" type="curve" smooth="yes"/>
      <point x="396" y="48"/>
      <point x="346" y="106"/>
      <point x="243" y="106" type="curve" smooth="yes"/>
      <point x="145" y="106" type="line" smooth="yes"/>
      <point x="127" y="106"/>
      <point x="107" y="115"/>
      <point x="107" y="147" type="curve" smooth="yes"/>
      <point x="107" y="165"/>
      <point x="116" y="185"/>
      <point x="132" y="197" type="curve"/>
      <point x="152" y="192"/>
      <point x="170" y="189"/>
      <point x="189" y="189" type="curve" smooth="yes"/>
      <point x="305" y="189"/>
      <point x="356" y="263"/>
      <point x="356" y="375" type="curve" smooth="yes"/>
      <point x="356" y="430"/>
      <point x="334" y="477"/>
      <point x="298" y="508" type="curve"/>
      <point x="311" y="529"/>
      <point x="320" y="535"/>
      <point x="333" y="535" type="curve" smooth="yes"/>
      <point x="356" y="535"/>
      <point x="363" y="516"/>
      <point x="363" y="460" type="curve"/>
      <point x="412" y="460"/>
      <point x="419" y="494"/>
      <point x="419" y="522" type="curve" smooth="yes"/>
      <point x="419" y="549"/>
      <point x="400" y="579"/>
      <point x="366" y="579" type="curve" smooth="yes"/>
      <point x="318" y="579"/>
      <point x="309" y="539"/>
      <point x="293" y="513" type="curve"/>
      <point x="265" y="536"/>
      <point x="228" y="549"/>
      <point x="189" y="549" type="curve" smooth="yes"/>
      <point x="72" y="549"/>
      <point x="20" y="483"/>
      <point x="20" y="360" type="curve" smooth="yes"/>
      <point x="20" y="276"/>
      <point x="69" y="224"/>
      <point x="122" y="202" type="curve"/>
      <point x="56" y="188"/>
      <point x="29" y="133"/>
      <point x="29" y="83" type="curve" smooth="yes"/>
      <point x="29" y="30"/>
      <point x="60" y="-20"/>
      <point x="121" y="-21" type="curve"/>
      <point x="37" y="-26"/>
      <point x="-11" y="-60"/>
      <point x="-11" y="-123" type="curve" smooth="yes"/>
      <point x="-11" y="-196"/>
      <point x="50" y="-235"/>
    </contour>
    <contour>
      <point x="185" y="-225" type="curve" smooth="yes"/>
      <point x="136" y="-225"/>
      <point x="79" y="-207"/>
      <point x="79" y="-116" type="curve" smooth="yes"/>
      <point x="79" y="-21"/>
      <point x="142" y="-14"/>
      <point x="186" y="-14" type="curve" smooth="yes"/>
      <point x="218" y="-14" type="line" smooth="yes"/>
      <point x="284" y="-14"/>
      <point x="312" y="-43"/>
      <point x="317" y="-93" type="curve"/>
      <point x="178" y="-93" type="line"/>
      <point x="178" y="-103" type="line"/>
      <point x="318" y="-103" type="line"/>
      <point x="318" y="-186"/>
      <point x="286" y="-225"/>
    </contour>
    <contour>
      <point x="187" y="199" type="curve" smooth="yes"/>
      <point x="152" y="199"/>
      <point x="142" y="220"/>
      <point x="142" y="364" type="curve" smooth="yes"/>
      <point x="142" y="517"/>
      <point x="152" y="539"/>
      <point x="188" y="539" type="curve" smooth="yes"/>
      <point x="224" y="539"/>
      <point x="234" y="517"/>
      <point x="234" y="365" type="curve" smooth="yes"/>
      <point x="234" y="220"/>
      <point x="224" y="199"/>
    </contour>
  </outline>
</glyph>
<glyph name="uni0220" format="2">
  <advance width="627"/>
  <unicode hex="0220"/>
  <anchor x="313" y="-240" name="bottom"/>
  <anchor x="313" y="714" name="top"/>
  <outline>
    <contour>
      <point x="320" y="-240" type="line"/>
      <point x="600" y="-240" type="line"/>
      <point x="600" y="-230" type="line"/>
      <point x="575" y="-230" type="line" smooth="yes"/>
      <point x="537" y="-230"/>
      <point x="533" y="-212"/>
      <point x="533" y="-166" type="curve" smooth="yes"/>
      <point x="533" y="506" type="line" smooth="yes"/>
      <point x="533" y="659"/>
      <point x="476" y="727"/>
      <point x="373" y="727" type="curve" smooth="yes"/>
      <point x="293" y="727"/>
      <point x="260" y="691"/>
      <point x="229" y="619" type="curve"/>
      <point x="227" y="619" type="line"/>
      <point x="227" y="714" type="line"/>
      <point x="16" y="714" type="line"/>
      <point x="16" y="704" type="line"/>
      <point x="39" y="704" type="line" smooth="yes"/>
      <point x="78" y="704"/>
      <point x="81" y="687"/>
      <point x="81" y="639" type="curve" smooth="yes"/>
      <point x="81" y="78" type="line" smooth="yes"/>
      <point x="81" y="29"/>
      <point x="77" y="10"/>
      <point x="39" y="10" type="curve" smooth="yes"/>
      <point x="16" y="10" type="line"/>
      <point x="16" y="0" type="line"/>
      <point x="294" y="0" type="line"/>
      <point x="294" y="10" type="line"/>
      <point x="268" y="10" type="line" smooth="yes"/>
      <point x="232" y="10"/>
      <point x="228" y="29"/>
      <point x="228" y="78" type="curve" smooth="yes"/>
      <point x="228" y="493" type="line" smooth="yes"/>
      <point x="228" y="629"/>
      <point x="248" y="673"/>
      <point x="309" y="673" type="curve" smooth="yes"/>
      <point x="364" y="673"/>
      <point x="388" y="619"/>
      <point x="388" y="499" type="curve" smooth="yes"/>
      <point x="388" y="-162" type="line" smooth="yes"/>
      <point x="388" y="-211"/>
      <point x="382" y="-230"/>
      <point x="345" y="-230" type="curve" smooth="yes"/>
      <point x="320" y="-230" type="line"/>
    </contour>
  </outline>
</glyph>
<glyph name="uni0222" format="2">
  <advance width="571"/>
  <unicode hex="0222"/>
  <anchor x="286" y="0" name="bottom"/>
  <anchor x="286" y="714" name="top"/>
  <outline>
    <contour>
      <point x="286" y="-10" type="curve" smooth="yes"/>
      <point x="455" y="-10"/>
      <point x="532" y="92"/>
      <point x="532" y="222" type="curve" smooth="yes"/>
      <point x="532" y="325"/>
      <point x="479" y="410"/>
      <point x="361" y="427" type="curve"/>
      <point x="459" y="444"/>
      <point x="502" y="513"/>
      <point x="502" y="585" type="curve" smooth="yes"/>
      <point x="502" y="660"/>
      <point x="440" y="724"/>
      <point x="341" y="724" type="curve"/>
      <point x="350" y="697"/>
      <point x="355" y="652"/>
      <point x="355" y="592" type="curve" smooth="yes"/>
      <point x="355" y="476"/>
      <point x="336" y="434"/>
      <point x="286" y="434" type="curve" smooth="yes"/>
      <point x="233" y="434"/>
      <point x="214" y="476"/>
      <point x="214" y="592" type="curve" smooth="yes"/>
      <point x="214" y="634"/>
      <point x="220" y="697"/>
      <point x="229" y="724" type="curve"/>
      <point x="165" y="724"/>
      <point x="69" y="692"/>
      <point x="69" y="584" type="curve" smooth="yes"/>
      <point x="69" y="512"/>
      <point x="107" y="444"/>
      <point x="214" y="427" type="curve"/>
      <point x="91" y="412"/>
      <point x="39" y="325"/>
      <point x="39" y="223" type="curve" smooth="yes"/>
      <point x="39" y="63"/>
      <point x="140" y="-10"/>
    </contour>
    <contour>
      <point x="296" y="0" type="curve" smooth="yes"/>
      <point x="222" y="0"/>
      <point x="193" y="64"/>
      <point x="193" y="222" type="curve" smooth="yes"/>
      <point x="193" y="366"/>
      <point x="218" y="424"/>
      <point x="287" y="424" type="curve" smooth="yes"/>
      <point x="351" y="424"/>
      <point x="377" y="366"/>
      <point x="377" y="222" type="curve" smooth="yes"/>
      <point x="377" y="64"/>
      <point x="355" y="0"/>
    </contour>
  </outline>
</glyph>
<glyph name="uni0248" format="2">
  <advance width="312"/>
  <unicode hex="0248"/>
  <anchor x="86" y="-240" name="bottom"/>
  <anchor x="136" y="714" name="top"/>
  <anchor x="278" y="714" name="topright"/>
  <outline>
    <contour>
      <point x="41" y="351" type="line"/>
      <point x="315" y="351" type="line"/>
      <point x="315" y="361" type="line"/>
      <point x="41" y="361" type="line"/>
    </contour>
    <component base="J"/>
  </outline>
</glyph>
<glyph name="uni0255" format="2">
  <advance width="386"/>
  <unicode hex="0255"/>
  <anchor x="194" y="0" name="bottom"/>
  <anchor x="194" y="536" name="top"/>
  <outline>
    <contour>
      <point x="59" y="-16" type="line"/>
      <point x="74" y="10"/>
      <point x="87" y="35"/>
      <point x="103" y="55" type="curve"/>
      <point x="144" y="13"/>
      <point x="195" y="-10"/>
      <point x="257" y="-10" type="curve" smooth="yes"/>
      <point x="336" y="-10"/>
      <point x="387" y="44"/>
      <point x="387" y="131" type="curve" smooth="yes"/>
      <point x="387" y="200"/>
      <point x="346" y="244"/>
      <point x="294" y="244" type="curve" smooth="yes"/>
      <point x="255" y="244"/>
      <point x="214" y="217"/>
      <point x="178" y="148" type="curve"/>
      <point x="174" y="190"/>
      <point x="171" y="236"/>
      <point x="171" y="283" type="curve" smooth="yes"/>
      <point x="171" y="478"/>
      <point x="180" y="539"/>
      <point x="219" y="539" type="curve" smooth="yes"/>
      <point x="248" y="539"/>
      <point x="259" y="499"/>
      <point x="259" y="370" type="curve"/>
      <point x="313" y="370"/>
      <point x="375" y="409"/>
      <point x="375" y="441" type="curve" smooth="yes"/>
      <point x="375" y="500"/>
      <point x="332" y="548"/>
      <point x="262" y="548" type="curve" smooth="yes"/>
      <point x="166" y="548"/>
      <point x="29" y="499"/>
      <point x="29" y="272" type="curve" smooth="yes"/>
      <point x="29" y="191"/>
      <point x="56" y="116"/>
      <point x="96" y="63" type="curve"/>
      <point x="82" y="40"/>
      <point x="65" y="15"/>
      <point x="52" y="-12" type="curve"/>
    </contour>
    <contour>
      <point x="292" y="11" type="curve" smooth="yes"/>
      <point x="225" y="11"/>
      <point x="196" y="73"/>
      <point x="183" y="132" type="curve"/>
      <point x="216" y="205"/>
      <point x="256" y="234"/>
      <point x="294" y="234" type="curve" smooth="yes"/>
      <point x="343" y="234"/>
      <point x="375" y="194"/>
      <point x="375" y="132" type="curve" smooth="yes"/>
      <point x="375" y="59"/>
      <point x="340" y="11"/>
    </contour>
  </outline>
</glyph>
<glyph name="eopenreversedhook" format="2">
  <advance width="636"/>
  <unicode hex="025D"/>
  <anchor x="262" y="0" name="bottom"/>
  <anchor x="262" y="536" name="top"/>
  <outline>
    <contour>
      <point x="547" y="234" type="curve" smooth="yes"/>
      <point x="583" y="234"/>
      <point x="636" y="258"/>
      <point x="636" y="300" type="curve" smooth="yes"/>
      <point x="636" y="317"/>
      <point x="627" y="338"/>
      <point x="614" y="346" type="curve"/>
      <point x="597" y="323"/>
      <point x="547" y="305"/>
      <point x="518" y="305" type="curve" smooth="yes"/>
      <point x="490" y="305"/>
      <point x="481" y="320"/>
      <point x="470" y="351" type="curve" smooth="yes"/>
      <point x="432" y="463" type="line"/>
      <point x="401" y="452" type="line"/>
      <point x="404" y="444" type="line"/>
      <point x="428" y="453" type="line"/>
      <point x="469" y="323" type="line" smooth="yes"/>
      <point x="489" y="262"/>
      <point x="509" y="234"/>
    </contour>
    <component base="afii10073"/>
  </outline>
</glyph>
<glyph name="uni0272" format="2">
  <advance width="495"/>
  <unicode hex="0272"/>
  <anchor x="247" y="-233" name="bottom"/>
  <anchor x="247" y="536" name="top"/>
  <outline>
    <contour>
      <point x="21" y="-233" type="curve" smooth="yes"/>
      <point x="139" y="-233"/>
      <point x="204" y="-143"/>
      <point x="204" y="6" type="curve" smooth="yes"/>
      <point x="204" y="359" type="line" smooth="yes"/>
      <point x="204" y="481"/>
      <point x="232" y="519"/>
      <point x="260" y="519" type="curve" smooth="yes"/>
      <point x="281" y="519"/>
      <point x="290" y="491"/>
      <point x="290" y="376" type="curve" smooth="yes"/>
      <point x="290" y="0" type="line"/>
      <point x="477" y="0" type="line"/>
      <point x="477" y="10" type="line"/>
      <point x="473" y="10" type="line" smooth="yes"/>
      <point x="442" y="10"/>
      <point x="431" y="32"/>
      <point x="431" y="80" type="curve" smooth="yes"/>
      <point x="431" y="355" type="line" smooth="yes"/>
      <point x="431" y="491"/>
      <point x="391" y="549"/>
      <point x="314" y="549" type="curve" smooth="yes"/>
      <point x="251" y="549"/>
      <point x="219" y="515"/>
      <point x="205" y="469" type="curve"/>
      <point x="203" y="469" type="line"/>
      <point x="203" y="536" type="line"/>
      <point x="12" y="536" type="line"/>
      <point x="12" y="526" type="line"/>
      <point x="16" y="526" type="line" smooth="yes"/>
      <point x="54" y="526"/>
      <point x="62" y="507"/>
      <point x="62" y="461" type="curve" smooth="yes"/>
      <point x="62" y="-91" type="line" smooth="yes"/>
      <point x="62" y="-193"/>
      <point x="55" y="-223"/>
      <point x="24" y="-223" type="curve" smooth="yes"/>
      <point x="-2" y="-223"/>
      <point x="-13" y="-190"/>
      <point x="-13" y="-76" type="curve"/>
      <point x="-77" y="-76"/>
      <point x="-105" y="-102"/>
      <point x="-105" y="-143" type="curve" smooth="yes"/>
      <point x="-105" y="-202"/>
      <point x="-48" y="-233"/>
    </contour>
  </outline>
</glyph>
<glyph name="rfishhookreversed" format="2">
  <advance width="418"/>
  <unicode hex="027F"/>
  <anchor x="210" y="-228" name="bottom"/>
  <anchor x="210" y="536" name="top"/>
  <outline>
    <contour>
      <point x="151" y="-228" type="line"/>
      <point x="417" y="-228" type="line"/>
      <point x="417" y="-218" type="line"/>
      <point x="408" y="-218" type="line" smooth="yes"/>
      <point x="371" y="-218"/>
      <point x="362" y="-199"/>
      <point x="362" y="-144" type="curve" smooth="yes"/>
      <point x="362" y="329" type="line" smooth="yes"/>
      <point x="362" y="490"/>
      <point x="295" y="549"/>
      <point x="173" y="549" type="curve" smooth="yes"/>
      <point x="57" y="549"/>
      <point x="24" y="492"/>
      <point x="24" y="437" type="curve" smooth="yes"/>
      <point x="24" y="373"/>
      <point x="69" y="356"/>
      <point x="134" y="356" type="curve"/>
      <point x="134" y="495"/>
      <point x="143" y="539"/>
      <point x="174" y="539" type="curve" smooth="yes"/>
      <point x="208" y="539"/>
      <point x="221" y="513"/>
      <point x="221" y="425" type="curve" smooth="yes"/>
      <point x="221" y="-147" type="line" smooth="yes"/>
      <point x="221" y="-197"/>
      <point x="215" y="-218"/>
      <point x="176" y="-218" type="curve" smooth="yes"/>
      <point x="151" y="-218" type="line"/>
    </contour>
  </outline>
</glyph>
<glyph name="eshcurl" format="2">
  <advance width="376"/>
  <unicode hex="0286"/>
  <anchor x="188" y="-239" name="bottom"/>
  <anchor x="188" y="764" name="top"/>
  <outline>
    <contour>
      <point x="77" y="-240" type="curve" smooth="yes"/>
      <point x="162" y="-240"/>
      <point x="216" y="-185"/>
      <point x="233" y="-52" type="curve"/>
      <point x="273" y="-86"/>
      <point x="308" y="-132"/>
      <point x="328" y="-178" type="curve"/>
      <point x="337" y="-174" type="line"/>
      <point x="316" y="-123"/>
      <point x="278" y="-75"/>
      <point x="234" y="-41" type="curve"/>
      <point x="236" y="-21"/>
      <point x="237" y="9"/>
      <point x="237" y="38" type="curve" smooth="yes"/>
      <point x="237" y="615" type="line" smooth="yes"/>
      <point x="237" y="721"/>
      <point x="243" y="752"/>
      <point x="280" y="752" type="curve" smooth="yes"/>
      <point x="313" y="752"/>
      <point x="324" y="706"/>
      <point x="324" y="588" type="curve"/>
      <point x="430" y="588"/>
      <point x="434" y="634"/>
      <point x="434" y="662" type="curve" smooth="yes"/>
      <point x="434" y="736"/>
      <point x="360" y="764"/>
      <point x="292" y="764" type="curve" smooth="yes"/>
      <point x="137" y="764"/>
      <point x="95" y="691"/>
      <point x="95" y="522" type="curve" smooth="yes"/>
      <point x="95" y="10" type="line"/>
      <point x="83" y="11"/>
      <point x="76" y="11"/>
      <point x="68" y="11" type="curve" smooth="yes"/>
      <point x="10" y="11"/>
      <point x="-26" y="-28"/>
      <point x="-26" y="-107" type="curve" smooth="yes"/>
      <point x="-26" y="-188"/>
      <point x="10" y="-240"/>
    </contour>
    <contour>
      <point x="46" y="-216" type="curve" smooth="yes"/>
      <point x="8" y="-216"/>
      <point x="-14" y="-163"/>
      <point x="-14" y="-107" type="curve" smooth="yes"/>
      <point x="-14" y="-34"/>
      <point x="16" y="1"/>
      <point x="71" y="1" type="curve" smooth="yes"/>
      <point x="79" y="1"/>
      <point x="83" y="1"/>
      <point x="95" y="0" type="curve"/>
      <point x="95" y="-91" type="line" smooth="yes"/>
      <point x="95" y="-175"/>
      <point x="82" y="-216"/>
    </contour>
  </outline>
</glyph>
<glyph name="uni0289" format="2">
  <advance width="501"/>
  <unicode hex="0289"/>
  <anchor x="251" y="0" name="bottom"/>
  <anchor x="251" y="536" name="top"/>
  <anchor x="471" y="536" name="topright"/>
  <outline>
    <contour>
      <point x="8" y="276" type="line"/>
      <point x="489" y="276" type="line"/>
      <point x="489" y="286" type="line"/>
      <point x="8" y="286" type="line"/>
    </contour>
    <component base="u"/>
  </outline>
</glyph>
<glyph name="uni028F" format="2">
  <advance width="477"/>
  <unicode hex="028F"/>
  <anchor x="238" y="0" name="bottom"/>
  <anchor x="238" y="536" name="top"/>
  <outline>
    <contour>
      <point x="95" y="0" type="line"/>
      <point x="370" y="0" type="line"/>
      <point x="370" y="10" type="line"/>
      <point x="329" y="10" type="line" smooth="yes"/>
      <point x="303" y="10"/>
      <point x="308" y="24"/>
      <point x="308" y="71" type="curve" smooth="yes"/>
      <point x="308" y="251" type="line"/>
      <point x="406" y="468" type="line" smooth="yes"/>
      <point x="425" y="509"/>
      <point x="439" y="526"/>
      <point x="444" y="526" type="curve" smooth="yes"/>
      <point x="477" y="526" type="line"/>
      <point x="477" y="536" type="line"/>
      <point x="343" y="536" type="line"/>
      <point x="343" y="526" type="line"/>
      <point x="357" y="526" type="line" smooth="yes"/>
      <point x="389" y="526"/>
      <point x="403" y="521"/>
      <point x="403" y="501" type="curve" smooth="yes"/>
      <point x="403" y="487"/>
      <point x="401" y="472"/>
      <point x="389" y="447" type="curve" smooth="yes"/>
      <point x="301" y="254" type="line"/>
      <point x="224" y="444" type="line" smooth="yes"/>
      <point x="211" y="473"/>
      <point x="209" y="487"/>
      <point x="209" y="497" type="curve" smooth="yes"/>
      <point x="209" y="518"/>
      <point x="222" y="526"/>
      <point x="255" y="526" type="curve" smooth="yes"/>
      <point x="260" y="526" type="line"/>
      <point x="260" y="536" type="line"/>
      <point x="0" y="536" type="line"/>
      <point x="0" y="526" type="line"/>
      <point x="9" y="526" type="line" smooth="yes"/>
      <point x="21" y="526"/>
      <point x="29" y="517"/>
      <point x="42" y="491" type="curve" smooth="yes"/>
      <point x="158" y="252" type="line"/>
      <point x="158" y="71" type="line" smooth="yes"/>
      <point x="158" y="21"/>
      <point x="162" y="10"/>
      <point x="143" y="10" type="curve" smooth="yes"/>
      <point x="95" y="10" type="line"/>
    </contour>
  </outline>
</glyph>
<glyph name="uni0291" format="2">
  <advance width="416"/>
  <unicode hex="0291"/>
  <anchor x="209" y="0" name="bottom"/>
  <anchor x="209" y="536" name="top"/>
  <outline>
    <contour>
      <point x="208" y="-86" type="line"/>
      <point x="214" y="-54"/>
      <point x="218" y="-26"/>
      <point x="222" y="0" type="curve"/>
      <point x="309" y="0" type="line" smooth="yes"/>
      <point x="362" y="0"/>
      <point x="410" y="41"/>
      <point x="410" y="109" type="curve" smooth="yes"/>
      <point x="410" y="172"/>
      <point x="381" y="207"/>
      <point x="334" y="207" type="curve" smooth="yes"/>
      <point x="275" y="207"/>
      <point x="241" y="151"/>
      <point x="214" y="10" type="curve"/>
      <point x="144" y="10" type="line"/>
      <point x="376" y="526" type="line"/>
      <point x="376" y="536" type="line"/>
      <point x="36" y="536" type="line"/>
      <point x="25" y="384" type="line"/>
      <point x="35" y="384" type="line"/>
      <point x="38" y="403" type="line" smooth="yes"/>
      <point x="52" y="489"/>
      <point x="98" y="526"/>
      <point x="186" y="526" type="curve" smooth="yes"/>
      <point x="232" y="526" type="line"/>
      <point x="0" y="10" type="line"/>
      <point x="0" y="0" type="line"/>
      <point x="213" y="0" type="line"/>
      <point x="209" y="-25"/>
      <point x="204" y="-53"/>
      <point x="198" y="-84" type="curve"/>
    </contour>
    <contour>
      <point x="224" y="10" type="line"/>
      <point x="250" y="143"/>
      <point x="281" y="197"/>
      <point x="334" y="197" type="curve" smooth="yes"/>
      <point x="375" y="197"/>
      <point x="398" y="165"/>
      <point x="398" y="109" type="curve" smooth="yes"/>
      <point x="398" y="49"/>
      <point x="360" y="10"/>
      <point x="313" y="10" type="curve" smooth="yes"/>
    </contour>
  </outline>
</glyph>
<glyph name="eopenclosed" format="2">
  <advance width="457"/>
  <unicode hex="029A"/>
  <anchor x="228" y="0" name="bottom"/>
  <anchor x="228" y="536" name="top"/>
  <outline>
    <contour>
      <point x="228" y="-10" type="curve" smooth="yes"/>
      <point x="354" y="-10"/>
      <point x="429" y="59"/>
      <point x="429" y="261" type="curve" smooth="yes"/>
      <point x="429" y="458"/>
      <point x="363" y="548"/>
      <point x="221" y="548" type="curve" smooth="yes"/>
      <point x="96" y="548"/>
      <point x="47" y="474"/>
      <point x="47" y="401" type="curve" smooth="yes"/>
      <point x="47" y="327"/>
      <point x="92" y="287"/>
      <point x="180" y="281" type="curve"/>
      <point x="180" y="279" type="line"/>
      <point x="81" y="282"/>
      <point x="29" y="236"/>
      <point x="29" y="165" type="curve" smooth="yes"/>
      <point x="29" y="77"/>
      <point x="92" y="-10"/>
    </contour>
    <contour>
      <point x="220" y="0" type="curve" smooth="yes"/>
      <point x="176" y="0"/>
      <point x="169" y="27"/>
      <point x="169" y="150" type="curve" smooth="yes"/>
      <point x="169" y="237"/>
      <point x="184" y="270"/>
      <point x="222" y="270" type="curve" smooth="yes"/>
      <point x="241" y="270" type="line"/>
      <point x="241" y="280" type="line"/>
      <point x="219" y="280" type="line" smooth="yes"/>
      <point x="191" y="279"/>
      <point x="179" y="313"/>
      <point x="179" y="402" type="curve" smooth="yes"/>
      <point x="179" y="513"/>
      <point x="186" y="538"/>
      <point x="225" y="538" type="curve" smooth="yes"/>
      <point x="272" y="538"/>
      <point x="284" y="469"/>
      <point x="284" y="269" type="curve" smooth="yes"/>
      <point x="284" y="68"/>
      <point x="270" y="0"/>
    </contour>
  </outline>
</glyph>
<glyph name="uni02A9" format="2">
  <advance width="755"/>
  <unicode hex="02A9"/>
  <anchor x="377" y="-240" name="bottom"/>
  <anchor x="377" y="770" name="top"/>
  <outline>
    <contour>
      <point x="484" y="-240" type="line"/>
      <point x="501" y="-240" type="line" smooth="yes"/>
      <point x="616" y="-240"/>
      <point x="699" y="-187"/>
      <point x="699" y="-8" type="curve" smooth="yes"/>
      <point x="699" y="355" type="line" smooth="yes"/>
      <point x="699" y="491"/>
      <point x="659" y="549"/>
      <point x="582" y="549" type="curve" smooth="yes"/>
      <point x="519" y="549"/>
      <point x="487" y="515"/>
      <point x="473" y="469" type="curve"/>
      <point x="471" y="469" type="line"/>
      <point x="471" y="536" type="line"/>
      <point x="217" y="536" type="line"/>
      <point x="217" y="638" type="line" smooth="yes"/>
      <point x="217" y="730"/>
      <point x="224" y="760"/>
      <point x="244" y="760" type="curve" smooth="yes"/>
      <point x="264" y="760"/>
      <point x="271" y="727"/>
      <point x="271" y="627" type="curve"/>
      <point x="349" y="627"/>
      <point x="366" y="660"/>
      <point x="366" y="696" type="curve" smooth="yes"/>
      <point x="366" y="733"/>
      <point x="346" y="770"/>
      <point x="238" y="770" type="curve" smooth="yes"/>
      <point x="119" y="770"/>
      <point x="77" y="698"/>
      <point x="77" y="573" type="curve" smooth="yes"/>
      <point x="77" y="536" type="line"/>
      <point x="14" y="536" type="line"/>
      <point x="14" y="526" type="line"/>
      <point x="77" y="526" type="line"/>
      <point x="77" y="75" type="line" smooth="yes"/>
      <point x="77" y="17"/>
      <point x="44" y="10"/>
      <point x="30" y="10" type="curve" smooth="yes"/>
      <point x="10" y="10" type="line"/>
      <point x="10" y="0" type="line"/>
      <point x="294" y="0" type="line"/>
      <point x="294" y="10" type="line"/>
      <point x="264" y="10" type="line" smooth="yes"/>
      <point x="247" y="10"/>
      <point x="217" y="17"/>
      <point x="217" y="75" type="curve" smooth="yes"/>
      <point x="217" y="526" type="line"/>
      <point x="284" y="526" type="line" smooth="yes"/>
      <point x="322" y="526"/>
      <point x="330" y="507"/>
      <point x="330" y="461" type="curve" smooth="yes"/>
      <point x="330" y="0" type="line"/>
      <point x="520" y="0" type="line"/>
      <point x="520" y="10" type="line"/>
      <point x="518" y="10" type="line" smooth="yes"/>
      <point x="481" y="10"/>
      <point x="472" y="30"/>
      <point x="472" y="76" type="curve" smooth="yes"/>
      <point x="472" y="359" type="line" smooth="yes"/>
      <point x="472" y="481"/>
      <point x="500" y="519"/>
      <point x="528" y="519" type="curve" smooth="yes"/>
      <point x="549" y="519"/>
      <point x="558" y="491"/>
      <point x="558" y="376" type="curve" smooth="yes"/>
      <point x="558" y="-56" type="line" smooth="yes"/>
      <point x="558" y="-174"/>
      <point x="540" y="-230"/>
      <point x="488" y="-230" type="curve" smooth="yes"/>
      <point x="484" y="-230" type="line"/>
    </contour>
  </outline>
</glyph>
<glyph name="uni02AB" format="2">
  <advance width="585"/>
  <unicode hex="02AB"/>
  <anchor x="292" y="0" name="bottom"/>
  <anchor x="292" y="760" name="top"/>
  <outline>
    <contour>
      <point x="13" y="0" type="line"/>
      <point x="569" y="0" type="line"/>
      <point x="574" y="172" type="line"/>
      <point x="564" y="172" type="line"/>
      <point x="561" y="128" type="line" smooth="yes"/>
      <point x="556" y="49"/>
      <point x="515" y="10"/>
      <point x="418" y="10" type="curve" smooth="yes"/>
      <point x="334" y="10" type="line"/>
      <point x="566" y="526" type="line"/>
      <point x="566" y="536" type="line"/>
      <point x="209" y="536" type="line"/>
      <point x="209" y="760" type="line"/>
      <point x="13" y="760" type="line"/>
      <point x="13" y="750" type="line"/>
      <point x="23" y="750" type="line" smooth="yes"/>
      <point x="34" y="750"/>
      <point x="67" y="743"/>
      <point x="67" y="689" type="curve" smooth="yes"/>
      <point x="67" y="82" type="line" smooth="yes"/>
      <point x="67" y="24"/>
      <point x="48" y="10"/>
      <point x="23" y="10" type="curve" smooth="yes"/>
      <point x="13" y="10" type="line"/>
    </contour>
    <contour>
      <point x="209" y="53" type="line"/>
      <point x="209" y="526" type="line"/>
      <point x="421" y="526" type="line"/>
    </contour>
  </outline>
</glyph>
<glyph name="uni02B9" format="2">
  <advance width="185"/>
  <unicode hex="02B9"/>
  <outline>
    <contour>
      <point x="41" y="456" type="curve"/>
      <point x="56" y="456" type="line"/>
      <point x="88" y="529"/>
      <point x="131" y="633"/>
      <point x="159" y="705" type="curve"/>
      <point x="151" y="714" type="line"/>
      <point x="70" y="714" type="line"/>
      <point x="63" y="644"/>
      <point x="52" y="546"/>
    </contour>
  </outline>
</glyph>
<glyph name="uni02BF" format="2">
  <advance width="155"/>
  <unicode hex="02BF"/>
  <outline>
    <contour>
      <point x="125" y="559" type="curve"/>
      <point x="125" y="569" type="line"/>
      <point x="65" y="569"/>
      <point x="42" y="613"/>
      <point x="42" y="667" type="curve" smooth="yes"/>
      <point x="42" y="715"/>
      <point x="65" y="755"/>
      <point x="125" y="755" type="curve"/>
      <point x="125" y="765" type="line"/>
      <point x="65" y="765"/>
      <point x="30" y="725"/>
      <point x="30" y="667" type="curve" smooth="yes"/>
      <point x="30" y="603"/>
      <point x="65" y="559"/>
    </contour>
  </outline>
</glyph>
<glyph name="tilde" format="2">
  <advance width="388"/>
  <unicode hex="02DC"/>
  <outline>
    <contour>
      <point x="242" y="606" type="curve" smooth="yes"/>
      <point x="295" y="606"/>
      <point x="330" y="674"/>
      <point x="348" y="753" type="curve"/>
      <point x="338" y="753" type="line"/>
      <point x="316" y="691"/>
      <point x="309" y="690"/>
      <point x="290" y="690" type="curve" smooth="yes"/>
      <point x="225" y="690"/>
      <point x="206" y="763"/>
      <point x="149" y="763" type="curve" smooth="yes"/>
      <point x="95" y="763"/>
      <point x="60" y="694"/>
      <point x="40" y="616" type="curve"/>
      <point x="50" y="616" type="line"/>
      <point x="72" y="678"/>
      <point x="80" y="679"/>
      <point x="98" y="679" type="curve" smooth="yes"/>
      <point x="163" y="679"/>
      <point x="185" y="606"/>
    </contour>
  </outline>
</glyph>
<glyph name="uni02EF" format="2">
  <advance width="299"/>
  <unicode hex="02EF"/>
  <outline>
    <contour>
      <point x="134" y="-240" type="curve"/>
      <point x="164" y="-240" type="line"/>
      <point x="183" y="-177"/>
      <point x="218" y="-101"/>
      <point x="259" y="-34" type="curve"/>
      <point x="259" y="-28" type="line"/>
      <point x="248" y="-28" type="line"/>
      <point x="205" y="-69"/>
      <point x="177" y="-106"/>
      <point x="149" y="-160" type="curve"/>
      <point x="121" y="-106"/>
      <point x="94" y="-69"/>
      <point x="51" y="-28" type="curve"/>
      <point x="40" y="-28" type="line"/>
      <point x="40" y="-34" type="line"/>
      <point x="81" y="-101"/>
      <point x="114" y="-177"/>
    </contour>
  </outline>
</glyph>
<glyph name="uni02F1" format="2">
  <advance width="260"/>
  <unicode hex="02F1"/>
  <outline>
    <contour>
      <point x="214" y="-241" type="curve"/>
      <point x="220" y="-241" type="line"/>
      <point x="220" y="-227" type="line"/>
      <point x="186" y="-177"/>
      <point x="154" y="-146"/>
      <point x="108" y="-113" type="curve"/>
      <point x="154" y="-80"/>
      <point x="186" y="-46"/>
      <point x="220" y="4" type="curve"/>
      <point x="220" y="18" type="line"/>
      <point x="214" y="18" type="line"/>
      <point x="157" y="-31"/>
      <point x="93" y="-72"/>
      <point x="40" y="-96" type="curve"/>
      <point x="40" y="-131" type="line"/>
      <point x="93" y="-155"/>
      <point x="157" y="-192"/>
    </contour>
  </outline>
</glyph>
<glyph name="uni02F7" format="2">
  <advance width="388"/>
  <unicode hex="02F7"/>
  <outline>
    <contour>
      <point x="242" y="-212" type="curve" smooth="yes"/>
      <point x="295" y="-212"/>
      <point x="330" y="-141"/>
      <point x="348" y="-61" type="curve"/>
      <point x="338" y="-61" type="line"/>
      <point x="316" y="-124"/>
      <point x="309" y="-125"/>
      <point x="290" y="-125" type="curve" smooth="yes"/>
      <point x="225" y="-125"/>
      <point x="206" y="-51"/>
      <point x="149" y="-51" type="curve" smooth="yes"/>
      <point x="95" y="-51"/>
      <point x="60" y="-121"/>
      <point x="40" y="-202" type="curve"/>
      <point x="50" y="-202" type="line"/>
      <point x="72" y="-139"/>
      <point x="80" y="-137"/>
      <point x="98" y="-137" type="curve" smooth="yes"/>
      <point x="163" y="-137"/>
      <point x="185" y="-212"/>
    </contour>
  </outline>
</glyph>
<glyph name="dotbelowcomb" format="2">
  <unicode hex="0323"/>
  <anchor x="-215" y="0" name="_bottom"/>
  <anchor x="-215" y="-201" name="bottom"/>
  <outline>
    <contour>
      <point x="-216" y="-201" type="curve" smooth="yes"/>
      <point x="-180" y="-201"/>
      <point x="-148" y="-180"/>
      <point x="-148" y="-130" type="curve" smooth="yes"/>
      <point x="-148" y="-79"/>
      <point x="-180" y="-59"/>
      <point x="-216" y="-59" type="curve" smooth="yes"/>
      <point x="-253" y="-59"/>
      <point x="-282" y="-79"/>
      <point x="-282" y="-130" type="curve" smooth="yes"/>
      <point x="-282" y="-180"/>
      <point x="-253" y="-201"/>
    </contour>
  </outline>
</glyph>
<glyph name="commaaccent" format="2">
  <unicode hex="0326"/>
  <anchor x="2" y="0" name="_bottom"/>
  <anchor x="2" y="-221" name="bottom"/>
  <outline>
    <contour>
      <point x="-58" y="-220" type="line"/>
      <point x="-48" y="-220" type="line"/>
      <point x="-9" y="-179"/>
      <point x="43" y="-113"/>
      <point x="67" y="-71" type="curve"/>
      <point x="67" y="-61" type="line"/>
      <point x="-13" y="-61" type="line"/>
      <point x="-24" y="-122"/>
      <point x="-34" y="-146"/>
      <point x="-58" y="-210" type="curve"/>
    </contour>
  </outline>
</glyph>
<glyph name="verticallinebelowcomb" format="2">
  <unicode hex="0329"/>
  <anchor x="-1" y="0" name="_bottom"/>
  <anchor x="-1" y="-223" name="bottom"/>
  <outline>
    <contour>
      <point x="-10" y="-223" type="line"/>
      <point x="10" y="-223" type="line"/>
      <point x="10" y="-79" type="line"/>
      <point x="-10" y="-79" type="line"/>
    </contour>
  </outline>
</glyph>
<glyph name="dblarchinvertedbelowcomb" format="2">
  <unicode hex="032B"/>
  <anchor x="0" y="0" name="_bottom"/>
  <anchor x="0" y="-183" name="bottom"/>
  <outline>
    <contour>
      <point x="-56" y="-183" type="curve" smooth="yes"/>
      <point x="-25" y="-183"/>
      <point x="-8" y="-167"/>
      <point x="0" y="-129" type="curve"/>
      <point x="8" y="-167"/>
      <point x="25" y="-183"/>
      <point x="56" y="-183" type="curve" smooth="yes"/>
      <point x="95" y="-183"/>
      <point x="113" y="-148"/>
      <point x="115" y="-65" type="curve"/>
      <point x="105" y="-65" type="line"/>
      <point x="104" y="-114"/>
      <point x="88" y="-135"/>
      <point x="53" y="-135" type="curve" smooth="yes"/>
      <point x="21" y="-135"/>
      <point x="5" y="-114"/>
      <point x="5" y="-65" type="curve"/>
      <point x="-5" y="-65" type="line"/>
      <point x="-5" y="-114"/>
      <point x="-19" y="-135"/>
      <point x="-58" y="-135" type="curve" smooth="yes"/>
      <point x="-90" y="-135"/>
      <point x="-104" y="-114"/>
      <point x="-105" y="-65" type="curve"/>
      <point x="-115" y="-65" type="line"/>
      <point x="-113" y="-148"/>
      <point x="-95" y="-183"/>
    </contour>
  </outline>
</glyph>
<glyph name="tildebelowcomb" format="2">
  <unicode hex="0330"/>
  <anchor x="-1" y="0" name="_bottom"/>
  <anchor x="-1" y="-177" name="bottom"/>
  <outline>
    <contour>
      <point x="46" y="-227" type="curve" smooth="yes"/>
      <point x="100" y="-227"/>
      <point x="135" y="-158"/>
      <point x="153" y="-80" type="curve"/>
      <point x="143" y="-80" type="line"/>
      <point x="121" y="-142"/>
      <point x="113" y="-143"/>
      <point x="95" y="-143" type="curve" smooth="yes"/>
      <point x="30" y="-143"/>
      <point x="11" y="-70"/>
      <point x="-46" y="-70" type="curve" smooth="yes"/>
      <point x="-100" y="-70"/>
      <point x="-135" y="-139"/>
      <point x="-155" y="-217" type="curve"/>
      <point x="-145" y="-217" type="line"/>
      <point x="-123" y="-155"/>
      <point x="-115" y="-154"/>
      <point x="-97" y="-154" type="curve" smooth="yes"/>
      <point x="-32" y="-154"/>
      <point x="-10" y="-227"/>
    </contour>
  </outline>
</glyph>
<glyph name="dbloverlinecomb" format="2">
  <unicode hex="033F"/>
  <anchor x="0" y="536" name="_top"/>
  <anchor x="0" y="932" name="top"/>
  <outline>
    <contour>
      <point x="-152" y="893" type="line"/>
      <point x="152" y="893" type="line"/>
      <point x="152" y="913" type="line"/>
      <point x="-152" y="913" type="line"/>
    </contour>
    <contour>
      <point x="-152" y="787" type="line"/>
      <point x="152" y="787" type="line"/>
      <point x="152" y="807" type="line"/>
      <point x="-152" y="807" type="line"/>
    </contour>
  </outline>
</glyph>
<glyph name="fermatacomb" format="2">
  <unicode hex="0352"/>
  <anchor x="-2" y="536" name="_top"/>
  <anchor x="-2" y="861" name="top"/>
  <outline>
    <contour>
      <point x="-135" y="716" type="curve"/>
      <point x="-125" y="716" type="line"/>
      <point x="-119" y="767"/>
      <point x="-90" y="799"/>
      <point x="0" y="799" type="curve" smooth="yes"/>
      <point x="90" y="799"/>
      <point x="120" y="767"/>
      <point x="124" y="716" type="curve"/>
      <point x="134" y="716" type="line"/>
      <point x="140" y="777"/>
      <point x="86" y="861"/>
      <point x="0" y="861" type="curve" smooth="yes"/>
      <point x="-89" y="861"/>
      <point x="-140" y="777"/>
    </contour>
    <contour>
      <point x="0" y="588" type="curve" smooth="yes"/>
      <point x="31" y="588"/>
      <point x="57" y="606"/>
      <point x="57" y="653" type="curve" smooth="yes"/>
      <point x="57" y="697"/>
      <point x="31" y="719"/>
      <point x="0" y="719" type="curve" smooth="yes"/>
      <point x="-36" y="719"/>
      <point x="-58" y="697"/>
      <point x="-58" y="653" type="curve" smooth="yes"/>
      <point x="-58" y="606"/>
      <point x="-36" y="588"/>
    </contour>
  </outline>
</glyph>
<glyph name="uni0375" format="2">
  <advance width="136"/>
  <unicode hex="0375"/>
  <outline>
    <contour>
      <point x="8" y="-240" type="line"/>
      <point x="78" y="-240" type="line"/>
      <point x="83" y="-200"/>
      <point x="107" y="-112"/>
      <point x="127" y="-63" type="curve"/>
      <point x="127" y="-49" type="line"/>
      <point x="112" y="-49" type="line"/>
      <point x="74" y="-96"/>
      <point x="22" y="-185"/>
      <point x="8" y="-230" type="curve"/>
    </contour>
  </outline>
</glyph>
<glyph name="Xi" format="2">
  <advance width="463"/>
  <unicode hex="039E"/>
  <anchor x="232" y="0" name="bottom"/>
  <anchor x="232" y="714" name="top"/>
  <outline>
    <contour>
      <point x="21" y="0" type="line"/>
      <point x="442" y="0" type="line"/>
      <point x="443" y="221" type="line"/>
      <point x="433" y="221" type="line"/>
      <point x="429" y="187" type="line" smooth="yes"/>
      <point x="423" y="133"/>
      <point x="390" y="116"/>
      <point x="294" y="116" type="curve" smooth="yes"/>
      <point x="168" y="116" type="line" smooth="yes"/>
      <point x="72" y="116"/>
      <point x="37" y="133"/>
      <point x="31" y="187" type="curve" smooth="yes"/>
      <point x="28" y="221" type="line"/>
      <point x="18" y="221" type="line"/>
    </contour>
    <contour>
      <point x="130" y="271" type="line"/>
      <point x="140" y="271" type="line"/>
      <point x="146" y="290" type="line" smooth="yes"/>
      <point x="156" y="315"/>
      <point x="142" y="336"/>
      <point x="191" y="336" type="curve" smooth="yes"/>
      <point x="272" y="336" type="line" smooth="yes"/>
      <point x="310" y="336"/>
      <point x="310" y="313"/>
      <point x="319" y="290" type="curve" smooth="yes"/>
      <point x="324" y="271" type="line"/>
      <point x="334" y="271" type="line"/>
      <point x="334" y="456" type="line"/>
      <point x="324" y="456" type="line"/>
      <point x="319" y="437" type="line" smooth="yes"/>
      <point x="310" y="414"/>
      <point x="310" y="391"/>
      <point x="272" y="391" type="curve" smooth="yes"/>
      <point x="191" y="391" type="line" smooth="yes"/>
      <point x="142" y="391"/>
      <point x="156" y="412"/>
      <point x="146" y="437" type="curve" smooth="yes"/>
      <point x="140" y="456" type="line"/>
      <point x="130" y="456" type="line"/>
    </contour>
    <contour>
      <point x="40" y="507" type="line"/>
      <point x="50" y="507" type="line"/>
      <point x="53" y="540" type="line" smooth="yes"/>
      <point x="57" y="595"/>
      <point x="90" y="612"/>
      <point x="190" y="612" type="curve" smooth="yes"/>
      <point x="273" y="612" type="line" smooth="yes"/>
      <point x="367" y="612"/>
      <point x="401" y="595"/>
      <point x="408" y="540" type="curve" smooth="yes"/>
      <point x="412" y="507" type="line"/>
      <point x="422" y="507" type="line"/>
      <point x="421" y="714" type="line"/>
      <point x="43" y="714" type="line"/>
    </contour>
  </outline>
</glyph>
<glyph name="Pi" format="2">
  <advance width="610"/>
  <unicode hex="03A0"/>
  <anchor x="305" y="0" name="bottom"/>
  <anchor x="305" y="714" name="top"/>
  <outline>
    <contour>
      <point x="16" y="0" type="line"/>
      <point x="279" y="0" type="line"/>
      <point x="279" y="10" type="line"/>
      <point x="265" y="10" type="line" smooth="yes"/>
      <point x="234" y="10"/>
      <point x="228" y="30"/>
      <point x="228" y="75" type="curve" smooth="yes"/>
      <point x="228" y="704" type="line"/>
      <point x="384" y="704" type="line"/>
      <point x="384" y="75" type="line" smooth="yes"/>
      <point x="384" y="30"/>
      <point x="380" y="10"/>
      <point x="343" y="10" type="curve" smooth="yes"/>
      <point x="331" y="10" type="line"/>
      <point x="331" y="0" type="line"/>
      <point x="596" y="0" type="line"/>
      <point x="596" y="10" type="line"/>
      <point x="571" y="10" type="line" smooth="yes"/>
      <point x="533" y="10"/>
      <point x="529" y="29"/>
      <point x="529" y="70" type="curve" smooth="yes"/>
      <point x="529" y="639" type="line" smooth="yes"/>
      <point x="529" y="684"/>
      <point x="534" y="704"/>
      <point x="570" y="704" type="curve" smooth="yes"/>
      <point x="596" y="704" type="line"/>
      <point x="596" y="714" type="line"/>
      <point x="16" y="714" type="line"/>
      <point x="16" y="704" type="line"/>
      <point x="39" y="704" type="line" smooth="yes"/>
      <point x="77" y="704"/>
      <point x="81" y="685"/>
      <point x="81" y="643" type="curve" smooth="yes"/>
      <point x="81" y="75" type="line" smooth="yes"/>
      <point x="81" y="30"/>
      <point x="77" y="10"/>
      <point x="39" y="10" type="curve" smooth="yes"/>
      <point x="16" y="10" type="line"/>
    </contour>
  </outline>
</glyph>
<glyph name="alpha" format="2">
  <advance width="490"/>
  <unicode hex="03B1"/>
  <anchor x="246" y="0" name="bottom"/>
  <anchor x="246" y="536" name="top"/>
  <outline>
    <contour>
      <point x="180" y="-10" type="curve" smooth="yes"/>
      <point x="221" y="-10"/>
      <point x="255" y="7"/>
      <point x="286" y="114" type="curve"/>
      <point x="288" y="114" type="line"/>
      <point x="293" y="49"/>
      <point x="331" y="0"/>
      <point x="439" y="0" type="curve" smooth="yes"/>
      <point x="478" y="0" type="line"/>
      <point x="478" y="10" type="line"/>
      <point x="480" y="10" type="line" smooth="yes"/>
      <point x="433" y="10"/>
      <point x="419" y="28"/>
      <point x="419" y="80" type="curve" smooth="yes"/>
      <point x="419" y="337" type="line" smooth="yes"/>
      <point x="419" y="405"/>
      <point x="430" y="497"/>
      <point x="440" y="536" type="curve"/>
      <point x="359" y="536" type="line"/>
      <point x="340" y="507"/>
      <point x="318" y="476"/>
      <point x="302" y="410" type="curve"/>
      <point x="300" y="410" type="line"/>
      <point x="284" y="508"/>
      <point x="249" y="546"/>
      <point x="203" y="546" type="curve" smooth="yes"/>
      <point x="108" y="546"/>
      <point x="29" y="475"/>
      <point x="29" y="272" type="curve" smooth="yes"/>
      <point x="29" y="63"/>
      <point x="84" y="-10"/>
    </contour>
    <contour>
      <point x="221" y="25" type="curve" smooth="yes"/>
      <point x="189" y="25"/>
      <point x="172" y="67"/>
      <point x="172" y="278" type="curve" smooth="yes"/>
      <point x="172" y="488"/>
      <point x="189" y="533"/>
      <point x="217" y="533" type="curve" smooth="yes"/>
      <point x="238" y="533"/>
      <point x="274" y="503"/>
      <point x="281" y="413" type="curve"/>
      <point x="281" y="197" type="line"/>
      <point x="281" y="141"/>
      <point x="266" y="25"/>
    </contour>
  </outline>
</glyph>
<glyph name="epsilon" format="2">
  <advance width="403"/>
  <unicode hex="03B5"/>
  <anchor x="201" y="0" name="bottom"/>
  <anchor x="201" y="536" name="top"/>
  <outline>
    <contour>
      <point x="223" y="-10" type="curve" smooth="yes"/>
      <point x="353" y="-10"/>
      <point x="380" y="55"/>
      <point x="380" y="97" type="curve" smooth="yes"/>
      <point x="380" y="120"/>
      <point x="370" y="127"/>
      <point x="352" y="128" type="curve"/>
      <point x="335" y="36"/>
      <point x="278" y="0"/>
      <point x="233" y="0" type="curve" smooth="yes"/>
      <point x="174" y="0"/>
      <point x="163" y="52"/>
      <point x="163" y="163" type="curve" smooth="yes"/>
      <point x="163" y="225"/>
      <point x="165" y="255"/>
      <point x="186" y="267" type="curve"/>
      <point x="198" y="267"/>
      <point x="244" y="252"/>
      <point x="270" y="252" type="curve" smooth="yes"/>
      <point x="290" y="252"/>
      <point x="309" y="260"/>
      <point x="309" y="281" type="curve" smooth="yes"/>
      <point x="309" y="298"/>
      <point x="296" y="304"/>
      <point x="280" y="304" type="curve" smooth="yes"/>
      <point x="252" y="304"/>
      <point x="207" y="293"/>
      <point x="199" y="291" type="curve"/>
      <point x="177" y="308"/>
      <point x="174" y="342"/>
      <point x="174" y="417" type="curve" smooth="yes"/>
      <point x="174" y="492"/>
      <point x="181" y="537"/>
      <point x="213" y="537" type="curve" smooth="yes"/>
      <point x="242" y="537"/>
      <point x="258" y="494"/>
      <point x="258" y="384" type="curve"/>
      <point x="289" y="384"/>
      <point x="364" y="392"/>
      <point x="364" y="436" type="curve" smooth="yes"/>
      <point x="364" y="486"/>
      <point x="299" y="547"/>
      <point x="194" y="547" type="curve" smooth="yes"/>
      <point x="100" y="547"/>
      <point x="31" y="496"/>
      <point x="31" y="408" type="curve" smooth="yes"/>
      <point x="31" y="366"/>
      <point x="43" y="296"/>
      <point x="129" y="276" type="curve"/>
      <point x="129" y="274" type="line"/>
      <point x="69" y="260"/>
      <point x="21" y="227"/>
      <point x="21" y="154" type="curve" smooth="yes"/>
      <point x="21" y="69"/>
      <point x="83" y="-10"/>
    </contour>
  </outline>
</glyph>
<glyph name="kappa" format="2">
  <advance width="482"/>
  <unicode hex="03BA"/>
  <anchor x="241" y="0" name="bottom"/>
  <anchor x="241" y="536" name="top"/>
  <outline>
    <contour>
      <point x="67" y="0" type="line"/>
      <point x="211" y="0" type="line"/>
      <point x="211" y="209" type="line"/>
      <point x="229" y="240" type="line"/>
      <point x="283" y="87" type="line" smooth="yes"/>
      <point x="305" y="20"/>
      <point x="352" y="0"/>
      <point x="419" y="0" type="curve" smooth="yes"/>
      <point x="483" y="0" type="line"/>
      <point x="483" y="10" type="line"/>
      <point x="481" y="10" type="line" smooth="yes"/>
      <point x="471" y="10"/>
      <point x="472" y="14"/>
      <point x="462" y="42" type="curve" smooth="yes"/>
      <point x="299" y="357" type="line"/>
      <point x="321" y="389" type="line" smooth="yes"/>
      <point x="349" y="436"/>
      <point x="365" y="455"/>
      <point x="400" y="455" type="curve" smooth="yes"/>
      <point x="440" y="455"/>
      <point x="451" y="431"/>
      <point x="458" y="417" type="curve"/>
      <point x="467" y="435"/>
      <point x="473" y="466"/>
      <point x="473" y="485" type="curve" smooth="yes"/>
      <point x="473" y="517"/>
      <point x="455" y="541"/>
      <point x="425" y="541" type="curve" smooth="yes"/>
      <point x="396" y="541"/>
      <point x="368" y="514"/>
      <point x="326" y="439" type="curve" smooth="yes"/>
      <point x="210" y="224" type="line"/>
      <point x="211" y="252"/>
      <point x="211" y="300"/>
      <point x="211" y="315" type="curve" smooth="yes"/>
      <point x="211" y="536" type="line"/>
      <point x="11" y="536" type="line"/>
      <point x="11" y="526" type="line"/>
      <point x="4" y="526" type="line" smooth="yes"/>
      <point x="74" y="526"/>
      <point x="67" y="506"/>
      <point x="67" y="462" type="curve" smooth="yes"/>
    </contour>
  </outline>
</glyph>
<glyph name="chi" format="2">
  <advance width="478"/>
  <unicode hex="03C7"/>
  <anchor x="239" y="-240" name="bottom"/>
  <anchor x="239" y="536" name="top"/>
  <anchor x="458" y="536" name="topright"/>
  <outline>
    <contour>
      <point x="19" y="-240" type="line"/>
      <point x="169" y="-240" type="line"/>
      <point x="268" y="82" type="line"/>
      <point x="306" y="-100" type="line" smooth="yes"/>
      <point x="325" y="-185"/>
      <point x="337" y="-241"/>
      <point x="370" y="-241" type="curve" smooth="yes"/>
      <point x="388" y="-241"/>
      <point x="419" y="-227"/>
      <point x="471" y="-198" type="curve"/>
      <point x="466" y="-188" type="line"/>
      <point x="455" y="-199"/>
      <point x="442" y="-202"/>
      <point x="428" y="-202" type="curve" smooth="yes"/>
      <point x="373" y="-202"/>
      <point x="354" y="-194"/>
      <point x="341" y="-141" type="curve" smooth="yes"/>
      <point x="274" y="95" type="line"/>
      <point x="466" y="536" type="line"/>
      <point x="323" y="536" type="line"/>
      <point x="228" y="225" type="line"/>
      <point x="192" y="403" type="line" smooth="yes"/>
      <point x="174" y="487"/>
      <point x="158" y="543"/>
      <point x="128" y="543" type="curve" smooth="yes"/>
      <point x="117" y="543"/>
      <point x="85" y="529"/>
      <point x="33" y="500" type="curve"/>
      <point x="38" y="490" type="line"/>
      <point x="47" y="500"/>
      <point x="59" y="503"/>
      <point x="72" y="503" type="curve" smooth="yes"/>
      <point x="122" y="503"/>
      <point x="137" y="497"/>
      <point x="152" y="442" type="curve" smooth="yes"/>
      <point x="224" y="209" type="line"/>
    </contour>
  </outline>
</glyph>
<glyph name="uni03D1" format="2">
  <advance width="515"/>
  <unicode hex="03D1"/>
  <outline>
    <contour>
      <point x="227" y="-10" type="curve" smooth="yes"/>
      <point x="393" y="-10"/>
      <point x="464" y="146"/>
      <point x="464" y="371" type="curve" smooth="yes"/>
      <point x="464" y="398"/>
      <point x="463" y="424"/>
      <point x="461" y="449" type="curve"/>
      <point x="510" y="449" type="line"/>
      <point x="510" y="459" type="line"/>
      <point x="460" y="459" type="line"/>
      <point x="446" y="639"/>
      <point x="384" y="764"/>
      <point x="246" y="764" type="curve" smooth="yes"/>
      <point x="138" y="764"/>
      <point x="77" y="701"/>
      <point x="77" y="605" type="curve" smooth="yes"/>
      <point x="77" y="504"/>
      <point x="139" y="460"/>
      <point x="318" y="452" type="curve"/>
      <point x="319" y="425"/>
      <point x="319" y="399"/>
      <point x="319" y="369" type="curve" smooth="yes"/>
      <point x="319" y="96"/>
      <point x="298" y="0"/>
      <point x="236" y="0" type="curve" smooth="yes"/>
      <point x="202" y="0"/>
      <point x="194" y="25"/>
      <point x="194" y="91" type="curve" smooth="yes"/>
      <point x="194" y="179"/>
      <point x="207" y="247"/>
      <point x="207" y="300" type="curve" smooth="yes"/>
      <point x="207" y="379"/>
      <point x="178" y="408"/>
      <point x="108" y="408" type="curve" smooth="yes"/>
      <point x="7" y="408" type="line"/>
      <point x="7" y="398" type="line"/>
      <point x="30" y="398" type="line" smooth="yes"/>
      <point x="58" y="398"/>
      <point x="67" y="380"/>
      <point x="67" y="337" type="curve" smooth="yes"/>
      <point x="67" y="285"/>
      <point x="55" y="223"/>
      <point x="55" y="172" type="curve" smooth="yes"/>
      <point x="55" y="63"/>
      <point x="106" y="-10"/>
    </contour>
    <contour>
      <point x="319" y="465" type="curve"/>
      <point x="240" y="484"/>
      <point x="198" y="536"/>
      <point x="198" y="616" type="curve" smooth="yes"/>
      <point x="198" y="719"/>
      <point x="212" y="754"/>
      <point x="251" y="754" type="curve" smooth="yes"/>
      <point x="279" y="754"/>
      <point x="317" y="722"/>
    </contour>
  </outline>
</glyph>
<glyph name="uni03DA" format="2">
  <advance width="518"/>
  <unicode hex="03DA"/>
  <anchor x="260" y="0" name="bottom"/>
  <anchor x="260" y="714" name="top"/>
  <outline>
    <contour>
      <point x="163" y="0" type="line"/>
      <point x="443" y="0" type="line"/>
      <point x="443" y="10" type="line"/>
      <point x="415" y="10" type="line" smooth="yes"/>
      <point x="388" y="10"/>
      <point x="376" y="20"/>
      <point x="376" y="78" type="curve" smooth="yes"/>
      <point x="376" y="170" type="line"/>
      <point x="344" y="170" type="line" smooth="yes"/>
      <point x="243" y="170"/>
      <point x="203" y="245"/>
      <point x="203" y="439" type="curve" smooth="yes"/>
      <point x="203" y="637"/>
      <point x="229" y="714"/>
      <point x="300" y="714" type="curve" smooth="yes"/>
      <point x="368" y="714"/>
      <point x="381" y="643"/>
      <point x="381" y="523" type="curve"/>
      <point x="457" y="523"/>
      <point x="493" y="555"/>
      <point x="493" y="607" type="curve" smooth="yes"/>
      <point x="493" y="671"/>
      <point x="434" y="724"/>
      <point x="315" y="724" type="curve" smooth="yes"/>
      <point x="142" y="724"/>
      <point x="51" y="608"/>
      <point x="51" y="430" type="curve" smooth="yes"/>
      <point x="51" y="270"/>
      <point x="119" y="176"/>
      <point x="229" y="157" type="curve"/>
      <point x="229" y="78" type="line" smooth="yes"/>
      <point x="229" y="20"/>
      <point x="218" y="10"/>
      <point x="191" y="10" type="curve" smooth="yes"/>
      <point x="163" y="10" type="line"/>
    </contour>
  </outline>
</glyph>
<glyph name="uni03DE" format="2">
  <advance width="342"/>
  <unicode hex="03DE"/>
  <anchor x="171" y="0" name="bottom"/>
  <anchor x="171" y="714" name="top"/>
  <outline>
    <contour>
      <point x="249" y="-8" type="curve" smooth="yes"/>
      <point x="318" y="-8"/>
      <point x="337" y="32"/>
      <point x="337" y="71" type="curve" smooth="yes"/>
      <point x="337" y="95"/>
      <point x="327" y="111"/>
      <point x="311" y="119" type="curve"/>
      <point x="304" y="108"/>
      <point x="302" y="92"/>
      <point x="278" y="92" type="curve" smooth="yes"/>
      <point x="257" y="92"/>
      <point x="241" y="108"/>
      <point x="241" y="159" type="curve" smooth="yes"/>
      <point x="241" y="180"/>
      <point x="216" y="160"/>
      <point x="331" y="293" type="curve"/>
      <point x="331" y="416" type="line"/>
      <point x="20" y="416" type="line"/>
      <point x="154" y="470"/>
      <point x="199" y="509"/>
      <point x="199" y="593" type="curve" smooth="yes"/>
      <point x="199" y="677"/>
      <point x="153" y="718"/>
      <point x="89" y="718" type="curve" smooth="yes"/>
      <point x="34" y="718"/>
      <point x="1" y="683"/>
      <point x="1" y="638" type="curve" smooth="yes"/>
      <point x="1" y="614"/>
      <point x="11" y="596"/>
      <point x="29" y="588" type="curve"/>
      <point x="34" y="600"/>
      <point x="38" y="616"/>
      <point x="63" y="616" type="curve" smooth="yes"/>
      <point x="84" y="616"/>
      <point x="99" y="605"/>
      <point x="99" y="556" type="curve" smooth="yes"/>
      <point x="99" y="533"/>
      <point x="122" y="552"/>
      <point x="7" y="427" type="curve"/>
      <point x="7" y="304" type="line"/>
      <point x="325" y="304" type="line"/>
      <point x="185" y="245"/>
      <point x="139" y="204"/>
      <point x="139" y="116" type="curve" smooth="yes"/>
      <point x="139" y="30"/>
      <point x="186" y="-8"/>
    </contour>
  </outline>
</glyph>
<glyph name="uni03E0" format="2">
  <advance width="488"/>
  <unicode hex="03E0"/>
  <anchor x="245" y="0" name="bottom"/>
  <anchor x="245" y="714" name="top"/>
  <outline>
    <contour>
      <point x="183" y="-10" type="line"/>
      <point x="391" y="-17"/>
      <point x="450" y="126"/>
      <point x="450" y="334" type="curve" smooth="yes"/>
      <point x="450" y="556"/>
      <point x="342" y="724"/>
      <point x="175" y="724" type="curve" smooth="yes"/>
      <point x="75" y="724"/>
      <point x="23" y="677"/>
      <point x="23" y="615" type="curve" smooth="yes"/>
      <point x="23" y="560"/>
      <point x="77" y="520"/>
      <point x="124" y="520" type="curve"/>
      <point x="124" y="657"/>
      <point x="144" y="714"/>
      <point x="190" y="714" type="curve" smooth="yes"/>
      <point x="268" y="714"/>
      <point x="293" y="626"/>
      <point x="303" y="550" type="curve"/>
      <point x="130" y="422" type="line"/>
      <point x="135" y="413" type="line"/>
      <point x="304" y="541" type="line"/>
      <point x="309" y="493"/>
      <point x="311" y="443"/>
      <point x="311" y="391" type="curve"/>
      <point x="174" y="291" type="line"/>
      <point x="179" y="282" type="line"/>
      <point x="311" y="381" type="line"/>
      <point x="311" y="374"/>
      <point x="311" y="366"/>
      <point x="311" y="360" type="curve" smooth="yes"/>
      <point x="308" y="176"/>
      <point x="331" y="3"/>
      <point x="183" y="0" type="curve"/>
    </contour>
  </outline>
</glyph>
<glyph name="uni03F0" format="2">
  <advance width="510"/>
  <unicode hex="03F0"/>
  <anchor x="255" y="0" name="bottom"/>
  <anchor x="255" y="536" name="top"/>
  <outline>
    <contour>
      <point x="404" y="-4" type="curve" smooth="yes"/>
      <point x="477" y="-4"/>
      <point x="493" y="46"/>
      <point x="501" y="70" type="curve"/>
      <point x="455" y="70"/>
      <point x="438" y="106"/>
      <point x="438" y="168" type="curve" smooth="yes"/>
      <point x="438" y="323"/>
      <point x="460" y="448"/>
      <point x="486" y="536" type="curve"/>
      <point x="351" y="536" type="line"/>
      <point x="151" y="23" type="line"/>
      <point x="156" y="63"/>
      <point x="220" y="309"/>
      <point x="220" y="417" type="curve" smooth="yes"/>
      <point x="220" y="488"/>
      <point x="189" y="546"/>
      <point x="108" y="546" type="curve" smooth="yes"/>
      <point x="30" y="546"/>
      <point x="8" y="499"/>
      <point x="5" y="459" type="curve"/>
      <point x="51" y="459"/>
      <point x="72" y="430"/>
      <point x="72" y="332" type="curve" smooth="yes"/>
      <point x="72" y="207"/>
      <point x="41" y="88"/>
      <point x="15" y="0" type="curve"/>
      <point x="155" y="0" type="line"/>
      <point x="353" y="504" type="line"/>
      <point x="320" y="408"/>
      <point x="290" y="224"/>
      <point x="290" y="141" type="curve" smooth="yes"/>
      <point x="290" y="42"/>
      <point x="332" y="-4"/>
    </contour>
  </outline>
</glyph>
<glyph name="uni03FC" format="2">
  <advance width="489"/>
  <unicode hex="03FC"/>
  <anchor x="245" y="-240" name="bottom"/>
  <anchor x="245" y="536" name="top"/>
  <outline>
    <contour>
      <point x="57" y="-240" type="line"/>
      <point x="197" y="-240" type="line"/>
      <point x="197" y="-117" type="line"/>
      <point x="331" y="-117" type="line"/>
      <point x="331" y="-107" type="line"/>
      <point x="197" y="-107" type="line"/>
      <point x="197" y="-49" type="line" smooth="yes"/>
      <point x="197" y="-13"/>
      <point x="195" y="14"/>
      <point x="194" y="32" type="curve"/>
      <point x="222" y="10"/>
      <point x="250" y="-11"/>
      <point x="287" y="-11" type="curve" smooth="yes"/>
      <point x="383" y="-11"/>
      <point x="460" y="72"/>
      <point x="460" y="258" type="curve" smooth="yes"/>
      <point x="460" y="445"/>
      <point x="381" y="549"/>
      <point x="257" y="549" type="curve" smooth="yes"/>
      <point x="119" y="549"/>
      <point x="57" y="449"/>
      <point x="57" y="286" type="curve" smooth="yes"/>
      <point x="57" y="-107" type="line"/>
      <point x="-1" y="-107" type="line"/>
      <point x="-1" y="-117" type="line"/>
      <point x="57" y="-117" type="line"/>
    </contour>
    <contour>
      <point x="249" y="14" type="curve" smooth="yes"/>
      <point x="224" y="14"/>
      <point x="209" y="32"/>
      <point x="197" y="39" type="curve"/>
      <point x="197" y="304" type="line" smooth="yes"/>
      <point x="197" y="483"/>
      <point x="211" y="539"/>
      <point x="253" y="539" type="curve" smooth="yes"/>
      <point x="300" y="539"/>
      <point x="316" y="473"/>
      <point x="316" y="263" type="curve" smooth="yes"/>
      <point x="316" y="74"/>
      <point x="299" y="14"/>
    </contour>
  </outline>
</glyph>
<glyph name="afii10046" format="2">
  <advance width="480"/>
  <unicode hex="042C"/>
  <anchor x="240" y="0" name="bottom"/>
  <anchor x="240" y="714" name="top"/>
  <outline>
    <contour>
      <point x="16" y="0" type="line"/>
      <point x="264" y="0" type="line" smooth="yes"/>
      <point x="415" y="0"/>
      <point x="475" y="86"/>
      <point x="475" y="207" type="curve" smooth="yes"/>
      <point x="475" y="328"/>
      <point x="423" y="402"/>
      <point x="288" y="402" type="curve" smooth="yes"/>
      <point x="228" y="402" type="line"/>
      <point x="228" y="644" type="line" smooth="yes"/>
      <point x="228" y="691"/>
      <point x="237" y="704"/>
      <point x="259" y="704" type="curve" smooth="yes"/>
      <point x="308" y="704" type="line"/>
      <point x="308" y="714" type="line"/>
      <point x="16" y="714" type="line"/>
      <point x="16" y="704" type="line"/>
      <point x="50" y="704" type="line" smooth="yes"/>
      <point x="69" y="704"/>
      <point x="81" y="695"/>
      <point x="81" y="639" type="curve" smooth="yes"/>
      <point x="81" y="77" type="line" smooth="yes"/>
      <point x="81" y="24"/>
      <point x="73" y="10"/>
      <point x="46" y="10" type="curve" smooth="yes"/>
      <point x="16" y="10" type="line"/>
    </contour>
    <contour>
      <point x="228" y="10" type="line"/>
      <point x="228" y="392" type="line"/>
      <point x="250" y="392" type="line" smooth="yes"/>
      <point x="298" y="392"/>
      <point x="318" y="340"/>
      <point x="318" y="203" type="curve" smooth="yes"/>
      <point x="318" y="63"/>
      <point x="300" y="10"/>
      <point x="251" y="10" type="curve" smooth="yes"/>
    </contour>
  </outline>
</glyph>
<glyph name="afii10066" format="2">
  <advance width="462"/>
  <unicode hex="0431"/>
  <anchor x="232" y="0" name="bottom"/>
  <anchor x="232" y="770" name="top"/>
  <outline>
    <contour>
      <point x="232" y="-10" type="curve" smooth="yes"/>
      <point x="366" y="-10"/>
      <point x="432" y="78"/>
      <point x="432" y="247" type="curve" smooth="yes"/>
      <point x="432" y="422"/>
      <point x="361" y="517"/>
      <point x="239" y="517" type="curve" smooth="yes"/>
      <point x="152" y="517"/>
      <point x="62" y="469"/>
      <point x="43" y="321" type="curve"/>
      <point x="41" y="321" type="line"/>
      <point x="44" y="564"/>
      <point x="64" y="579"/>
      <point x="236" y="600" type="curve" smooth="yes"/>
      <point x="352" y="614"/>
      <point x="415" y="615"/>
      <point x="422" y="768" type="curve"/>
      <point x="414" y="768" type="line"/>
      <point x="408" y="744"/>
      <point x="431" y="741"/>
      <point x="217" y="726" type="curve" smooth="yes"/>
      <point x="60" y="721"/>
      <point x="31" y="513"/>
      <point x="31" y="335" type="curve" smooth="yes"/>
      <point x="31" y="87"/>
      <point x="91" y="-10"/>
    </contour>
    <contour>
      <point x="232" y="0" type="curve" smooth="yes"/>
      <point x="187" y="0"/>
      <point x="173" y="58"/>
      <point x="173" y="252" type="curve" smooth="yes"/>
      <point x="173" y="445"/>
      <point x="187" y="507"/>
      <point x="232" y="507" type="curve" smooth="yes"/>
      <point x="276" y="507"/>
      <point x="289" y="443"/>
      <point x="289" y="252" type="curve" smooth="yes"/>
      <point x="289" y="60"/>
      <point x="276" y="0"/>
    </contour>
  </outline>
</glyph>
<glyph name="afii10093" format="2">
  <advance width="695"/>
  <unicode hex="044B"/>
  <anchor x="348" y="0" name="bottom"/>
  <anchor x="348" y="536" name="top"/>
  <outline>
    <contour>
      <point x="10" y="0" type="line"/>
      <point x="266" y="0" type="line" smooth="yes"/>
      <point x="382" y="0"/>
      <point x="439" y="60"/>
      <point x="439" y="158" type="curve" smooth="yes"/>
      <point x="439" y="281"/>
      <point x="362" y="305"/>
      <point x="274" y="305" type="curve" smooth="yes"/>
      <point x="205" y="305" type="line"/>
      <point x="205" y="459" type="line" smooth="yes"/>
      <point x="205" y="507"/>
      <point x="217" y="526"/>
      <point x="256" y="526" type="curve" smooth="yes"/>
      <point x="265" y="526" type="line"/>
      <point x="265" y="536" type="line"/>
      <point x="10" y="536" type="line"/>
      <point x="10" y="526" type="line"/>
      <point x="16" y="526" type="line" smooth="yes"/>
      <point x="52" y="526"/>
      <point x="62" y="508"/>
      <point x="62" y="455" type="curve" smooth="yes"/>
      <point x="62" y="74" type="line" smooth="yes"/>
      <point x="62" y="27"/>
      <point x="53" y="10"/>
      <point x="16" y="10" type="curve" smooth="yes"/>
      <point x="10" y="10" type="line"/>
    </contour>
    <contour>
      <point x="205" y="10" type="line"/>
      <point x="205" y="295" type="line"/>
      <point x="229" y="295" type="line" smooth="yes"/>
      <point x="258" y="295"/>
      <point x="294" y="260"/>
      <point x="294" y="163" type="curve" smooth="yes"/>
      <point x="294" y="55"/>
      <point x="268" y="10"/>
      <point x="229" y="10" type="curve" smooth="yes"/>
    </contour>
    <contour>
      <point x="438" y="0" type="line"/>
      <point x="685" y="0" type="line"/>
      <point x="685" y="10" type="line"/>
      <point x="678" y="10" type="line" smooth="yes"/>
      <point x="650" y="10"/>
      <point x="633" y="26"/>
      <point x="633" y="76" type="curve" smooth="yes"/>
      <point x="633" y="460" type="line" smooth="yes"/>
      <point x="633" y="511"/>
      <point x="650" y="526"/>
      <point x="678" y="526" type="curve" smooth="yes"/>
      <point x="685" y="526" type="line"/>
      <point x="685" y="536" type="line"/>
      <point x="438" y="536" type="line"/>
      <point x="438" y="526" type="line"/>
      <point x="447" y="526" type="line" smooth="yes"/>
      <point x="473" y="526"/>
      <point x="491" y="512"/>
      <point x="491" y="461" type="curve" smooth="yes"/>
      <point x="491" y="76" type="line" smooth="yes"/>
      <point x="491" y="23"/>
      <point x="474" y="10"/>
      <point x="447" y="10" type="curve" smooth="yes"/>
      <point x="438" y="10" type="line"/>
    </contour>
  </outline>
</glyph>
<glyph name="afii10106" format="2">
  <advance width="666"/>
  <unicode hex="0459"/>
  <anchor x="333" y="0" name="bottom"/>
  <anchor x="333" y="536" name="top"/>
  <outline>
    <contour>
      <point x="73" y="-7" type="curve" smooth="yes"/>
      <point x="132" y="-7"/>
      <point x="167" y="32"/>
      <point x="186" y="156" type="curve" smooth="yes"/>
      <point x="196" y="235"/>
      <point x="214" y="328"/>
      <point x="228" y="526" type="curve"/>
      <point x="292" y="526" type="line"/>
      <point x="292" y="76" type="line" smooth="yes"/>
      <point x="292" y="31"/>
      <point x="296" y="10"/>
      <point x="233" y="10" type="curve" smooth="yes"/>
      <point x="239" y="10" type="line"/>
      <point x="239" y="0" type="line"/>
      <point x="481" y="0" type="line" smooth="yes"/>
      <point x="610" y="0"/>
      <point x="667" y="60"/>
      <point x="667" y="158" type="curve" smooth="yes"/>
      <point x="667" y="281"/>
      <point x="589" y="305"/>
      <point x="501" y="305" type="curve" smooth="yes"/>
      <point x="431" y="305" type="line"/>
      <point x="431" y="459" type="line" smooth="yes"/>
      <point x="431" y="507"/>
      <point x="443" y="526"/>
      <point x="482" y="526" type="curve" smooth="yes"/>
      <point x="491" y="526" type="line"/>
      <point x="491" y="536" type="line"/>
      <point x="102" y="536" type="line"/>
      <point x="102" y="526" type="line"/>
      <point x="153" y="526" type="line" smooth="yes"/>
      <point x="176" y="526"/>
      <point x="209" y="523"/>
      <point x="209" y="433" type="curve" smooth="yes"/>
      <point x="209" y="383"/>
      <point x="186" y="229"/>
      <point x="173" y="176" type="curve" smooth="yes"/>
      <point x="154" y="87"/>
      <point x="132" y="81"/>
      <point x="89" y="81" type="curve" smooth="yes"/>
      <point x="63" y="81"/>
      <point x="42" y="95"/>
      <point x="36" y="126" type="curve"/>
      <point x="13" y="128"/>
      <point x="2" y="99"/>
      <point x="2" y="69" type="curve" smooth="yes"/>
      <point x="2" y="22"/>
      <point x="26" y="-7"/>
    </contour>
    <contour>
      <point x="431" y="10" type="line"/>
      <point x="431" y="295" type="line"/>
      <point x="457" y="295" type="line" smooth="yes"/>
      <point x="486" y="295"/>
      <point x="522" y="260"/>
      <point x="522" y="163" type="curve" smooth="yes"/>
      <point x="522" y="55"/>
      <point x="495" y="10"/>
      <point x="457" y="10" type="curve" smooth="yes"/>
    </contour>
  </outline>
</glyph>
<glyph name="uni046B" format="2">
  <advance width="655"/>
  <unicode hex="046B"/>
  <anchor x="328" y="0" name="bottom"/>
  <anchor x="328" y="536" name="top"/>
  <outline>
    <contour>
      <point x="0" y="1" type="line"/>
      <point x="13" y="1" type="line" smooth="yes"/>
      <point x="103" y="1"/>
      <point x="152" y="11"/>
      <point x="185" y="95" type="curve" smooth="yes"/>
      <point x="229" y="207" type="line" smooth="yes"/>
      <point x="248" y="258"/>
      <point x="254" y="273"/>
      <point x="258" y="273" type="curve"/>
      <point x="258" y="78" type="line" smooth="yes"/>
      <point x="258" y="25"/>
      <point x="249" y="9"/>
      <point x="213" y="10" type="curve" smooth="yes"/>
      <point x="217" y="10" type="line"/>
      <point x="217" y="1" type="line"/>
      <point x="440" y="1" type="line"/>
      <point x="440" y="10" type="line"/>
      <point x="444" y="10" type="line" smooth="yes"/>
      <point x="407" y="10"/>
      <point x="397" y="25"/>
      <point x="397" y="76" type="curve" smooth="yes"/>
      <point x="397" y="273" type="line"/>
      <point x="400" y="273"/>
      <point x="400" y="276"/>
      <point x="428" y="204" type="curve" smooth="yes"/>
      <point x="471" y="95" type="line" smooth="yes"/>
      <point x="503" y="14"/>
      <point x="537" y="1"/>
      <point x="627" y="1" type="curve" smooth="yes"/>
      <point x="655" y="1" type="line"/>
      <point x="655" y="10" type="line"/>
      <point x="656" y="10" type="line" smooth="yes"/>
      <point x="636" y="10"/>
      <point x="630" y="23"/>
      <point x="620" y="53" type="curve" smooth="yes"/>
      <point x="558" y="217" type="line" smooth="yes"/>
      <point x="547" y="255"/>
      <point x="525" y="279"/>
      <point x="400" y="284" type="curve"/>
      <point x="572" y="526" type="line"/>
      <point x="572" y="536" type="line"/>
      <point x="72" y="536" type="line"/>
      <point x="72" y="526" type="line"/>
      <point x="252" y="284" type="line"/>
      <point x="131" y="279"/>
      <point x="105" y="272"/>
      <point x="95" y="220" type="curve" smooth="yes"/>
      <point x="43" y="50" type="line" smooth="yes"/>
      <point x="37" y="20"/>
      <point x="32" y="10"/>
      <point x="0" y="10" type="curve" smooth="yes"/>
      <point x="0" y="10" type="line"/>
    </contour>
    <contour>
      <point x="392" y="292" type="line"/>
      <point x="241" y="526" type="line"/>
      <point x="559" y="526" type="line"/>
      <point x="393" y="292" type="line"/>
    </contour>
  </outline>
</glyph>
<glyph name="uni0481" format="2">
  <advance width="400"/>
  <unicode hex="0481"/>
  <anchor x="200" y="-239" name="bottom"/>
  <anchor x="200" y="536" name="top"/>
  <outline>
    <contour>
      <point x="184" y="-239" type="line"/>
      <point x="325" y="-239" type="line"/>
      <point x="325" y="22" type="line"/>
      <point x="322" y="22" type="line"/>
      <point x="290" y="11"/>
      <point x="269" y="8"/>
      <point x="253" y="8" type="curve" smooth="yes"/>
      <point x="168" y="8"/>
      <point x="172" y="119"/>
      <point x="172" y="266" type="curve" smooth="yes"/>
      <point x="172" y="473"/>
      <point x="188" y="539"/>
      <point x="226" y="539" type="curve" smooth="yes"/>
      <point x="254" y="539"/>
      <point x="259" y="496"/>
      <point x="259" y="360" type="curve"/>
      <point x="360" y="360"/>
      <point x="375" y="401"/>
      <point x="375" y="444" type="curve" smooth="yes"/>
      <point x="375" y="501"/>
      <point x="337" y="549"/>
      <point x="219" y="549" type="curve" smooth="yes"/>
      <point x="113" y="549"/>
      <point x="29" y="482"/>
      <point x="29" y="265" type="curve" smooth="yes"/>
      <point x="29" y="72"/>
      <point x="103" y="-10"/>
      <point x="189" y="-10" type="curve" smooth="yes"/>
      <point x="184" y="-10" type="line"/>
    </contour>
  </outline>
</glyph>
<glyph name="uni0482" format="2">
  <advance width="439"/>
  <unicode hex="0482"/>
  <outline>
    <contour>
      <point x="204" y="-20" type="line"/>
      <point x="214" y="151" type="line"/>
      <point x="347" y="149" type="line"/>
      <point x="351" y="170" type="line"/>
      <point x="218" y="171" type="line"/>
      <point x="242" y="427" type="line"/>
      <point x="374" y="425" type="line"/>
      <point x="377" y="444" type="line"/>
      <point x="243" y="447" type="line"/>
      <point x="256" y="636" type="line"/>
      <point x="235" y="638" type="line"/>
      <point x="222" y="448" type="line"/>
      <point x="90" y="451" type="line"/>
      <point x="87" y="431" type="line"/>
      <point x="220" y="429" type="line"/>
      <point x="196" y="174" type="line"/>
      <point x="64" y="175" type="line"/>
      <point x="61" y="155" type="line"/>
      <point x="194" y="153" type="line"/>
      <point x="184" y="-19" type="line"/>
    </contour>
  </outline>
</glyph>
<glyph name="pokrytiecomb.cy" format="2">
  <unicode hex="0487"/>
  <anchor x="-1" y="536" name="_top"/>
  <outline>
    <contour>
      <point x="-179" y="760" type="curve"/>
      <point x="-171" y="760" type="line"/>
      <point x="-169" y="780" type="line" smooth="yes"/>
      <point x="-167" y="814"/>
      <point x="-156" y="827"/>
      <point x="-105" y="827" type="curve" smooth="yes"/>
      <point x="-15" y="827"/>
      <point x="88" y="760"/>
      <point x="162" y="760" type="curve" smooth="yes"/>
      <point x="181" y="760" type="line"/>
      <point x="181" y="807" type="line"/>
      <point x="174" y="807" type="line" smooth="yes"/>
      <point x="75" y="807"/>
      <point x="16" y="867"/>
      <point x="-77" y="867" type="curve" smooth="yes"/>
      <point x="-170" y="867"/>
      <point x="-178" y="820"/>
    </contour>
  </outline>
</glyph>
<glyph name="uni048C" format="2">
  <advance width="480"/>
  <unicode hex="048C"/>
  <anchor x="240" y="0" name="bottom"/>
  <anchor x="240" y="714" name="top"/>
  <outline>
    <contour>
      <point x="16" y="0" type="line"/>
      <point x="264" y="0" type="line" smooth="yes"/>
      <point x="415" y="0"/>
      <point x="475" y="85"/>
      <point x="475" y="205" type="curve" smooth="yes"/>
      <point x="475" y="328"/>
      <point x="423" y="402"/>
      <point x="288" y="402" type="curve" smooth="yes"/>
      <point x="228" y="402" type="line"/>
      <point x="228" y="601" type="line"/>
      <point x="323" y="601" type="line"/>
      <point x="323" y="611" type="line"/>
      <point x="228" y="611" type="line"/>
      <point x="228" y="760" type="line"/>
      <point x="81" y="760" type="line"/>
      <point x="81" y="611" type="line"/>
      <point x="23" y="611" type="line"/>
      <point x="23" y="601" type="line"/>
      <point x="81" y="601" type="line"/>
      <point x="81" y="77" type="line" smooth="yes"/>
      <point x="81" y="24"/>
      <point x="73" y="10"/>
      <point x="46" y="10" type="curve" smooth="yes"/>
      <point x="16" y="10" type="line"/>
    </contour>
    <contour>
      <point x="228" y="10" type="line"/>
      <point x="228" y="392" type="line"/>
      <point x="250" y="392" type="line" smooth="yes"/>
      <point x="299" y="392"/>
      <point x="318" y="342"/>
      <point x="318" y="203" type="curve" smooth="yes"/>
      <point x="318" y="60"/>
      <point x="301" y="10"/>
      <point x="251" y="10" type="curve" smooth="yes"/>
    </contour>
  </outline>
</glyph>
<glyph name="uni0497" format="2">
  <advance width="695"/>
  <unicode hex="0497"/>
  <anchor x="351" y="0" name="bottom"/>
  <anchor x="351" y="536" name="top"/>
  <outline>
    <contour>
      <point x="687" y="-217" type="line"/>
      <point x="697" y="-217" type="line"/>
      <point x="697" y="10" type="line"/>
      <point x="711" y="10" type="line" smooth="yes"/>
      <point x="683" y="10"/>
      <point x="690" y="-5"/>
      <point x="629" y="119" type="curve" smooth="yes"/>
      <point x="583" y="213" type="line" smooth="yes"/>
      <point x="558" y="265"/>
      <point x="539" y="292"/>
      <point x="453" y="292" type="curve"/>
      <point x="473" y="317"/>
      <point x="481" y="326"/>
      <point x="498" y="357" type="curve" smooth="yes"/>
      <point x="530" y="418"/>
      <point x="548" y="446"/>
      <point x="580" y="446" type="curve" smooth="yes"/>
      <point x="600" y="446"/>
      <point x="622" y="431"/>
      <point x="626" y="404" type="curve"/>
      <point x="646" y="408"/>
      <point x="676" y="427"/>
      <point x="676" y="483" type="curve" smooth="yes"/>
      <point x="676" y="517"/>
      <point x="666" y="542"/>
      <point x="629" y="542" type="curve" smooth="yes"/>
      <point x="593" y="542"/>
      <point x="575" y="520"/>
      <point x="532" y="445" type="curve" smooth="yes"/>
      <point x="500" y="386"/>
      <point x="479" y="339"/>
      <point x="456" y="312" type="curve" smooth="yes"/>
      <point x="444" y="298"/>
      <point x="430" y="287"/>
      <point x="407" y="288" type="curve"/>
      <point x="407" y="462" type="line" smooth="yes"/>
      <point x="407" y="509"/>
      <point x="417" y="526"/>
      <point x="451" y="526" type="curve" smooth="yes"/>
      <point x="446" y="526" type="line"/>
      <point x="446" y="536" type="line"/>
      <point x="236" y="536" type="line"/>
      <point x="236" y="526" type="line"/>
      <point x="236" y="526" type="line" smooth="yes"/>
      <point x="268" y="526"/>
      <point x="275" y="509"/>
      <point x="275" y="460" type="curve" smooth="yes"/>
      <point x="275" y="288" type="line"/>
      <point x="252" y="287"/>
      <point x="238" y="298"/>
      <point x="226" y="312" type="curve" smooth="yes"/>
      <point x="203" y="339"/>
      <point x="182" y="386"/>
      <point x="150" y="445" type="curve" smooth="yes"/>
      <point x="107" y="520"/>
      <point x="89" y="542"/>
      <point x="53" y="542" type="curve" smooth="yes"/>
      <point x="16" y="542"/>
      <point x="6" y="517"/>
      <point x="6" y="483" type="curve" smooth="yes"/>
      <point x="6" y="427"/>
      <point x="36" y="408"/>
      <point x="56" y="404" type="curve"/>
      <point x="60" y="431"/>
      <point x="82" y="446"/>
      <point x="102" y="446" type="curve" smooth="yes"/>
      <point x="134" y="446"/>
      <point x="152" y="418"/>
      <point x="184" y="357" type="curve" smooth="yes"/>
      <point x="201" y="326"/>
      <point x="209" y="317"/>
      <point x="229" y="292" type="curve"/>
      <point x="143" y="292"/>
      <point x="124" y="265"/>
      <point x="99" y="213" type="curve" smooth="yes"/>
      <point x="53" y="119" type="line" smooth="yes"/>
      <point x="-1" y="9"/>
      <point x="-1" y="10"/>
      <point x="-1" y="10" type="curve" smooth="yes"/>
      <point x="-5" y="10" type="line"/>
      <point x="-5" y="0" type="line"/>
      <point x="17" y="0" type="line" smooth="yes"/>
      <point x="113" y="0"/>
      <point x="154" y="15"/>
      <point x="187" y="91" type="curve" smooth="yes"/>
      <point x="228" y="187" type="line" smooth="yes"/>
      <point x="259" y="262"/>
      <point x="258" y="279"/>
      <point x="275" y="278" type="curve"/>
      <point x="275" y="74" type="line" smooth="yes"/>
      <point x="275" y="28"/>
      <point x="268" y="10"/>
      <point x="238" y="10" type="curve" smooth="yes"/>
      <point x="236" y="10" type="line"/>
      <point x="236" y="0" type="line"/>
      <point x="446" y="0" type="line"/>
      <point x="446" y="10" type="line"/>
      <point x="451" y="10" type="line" smooth="yes"/>
      <point x="419" y="10"/>
      <point x="407" y="25"/>
      <point x="407" y="76" type="curve" smooth="yes"/>
      <point x="407" y="278" type="line"/>
      <point x="424" y="279"/>
      <point x="423" y="262"/>
      <point x="454" y="187" type="curve" smooth="yes"/>
      <point x="495" y="91" type="line" smooth="yes"/>
      <point x="515" y="44"/>
      <point x="515" y="15"/>
      <point x="611" y="-1" type="curve" smooth="yes"/>
      <point x="666" y="-14"/>
      <point x="679" y="-62"/>
      <point x="686" y="-200" type="curve" smooth="yes"/>
    </contour>
  </outline>
</glyph>
<glyph name="uni04A1" format="2">
  <advance width="557"/>
  <unicode hex="04A1"/>
  <anchor x="278" y="0" name="bottom"/>
  <anchor x="278" y="536" name="top"/>
  <outline>
    <contour>
      <point x="81" y="0" type="line"/>
      <point x="322" y="0" type="line"/>
      <point x="322" y="10" type="line"/>
      <point x="326" y="10" type="line" smooth="yes"/>
      <point x="294" y="10"/>
      <point x="282" y="25"/>
      <point x="282" y="76" type="curve" smooth="yes"/>
      <point x="282" y="278" type="line"/>
      <point x="300" y="279"/>
      <point x="298" y="262"/>
      <point x="329" y="188" type="curve" smooth="yes"/>
      <point x="370" y="91" type="line" smooth="yes"/>
      <point x="403" y="15"/>
      <point x="444" y="0"/>
      <point x="540" y="0" type="curve" smooth="yes"/>
      <point x="562" y="0" type="line"/>
      <point x="562" y="10" type="line"/>
      <point x="558" y="10" type="line" smooth="yes"/>
      <point x="558" y="10"/>
      <point x="558" y="9"/>
      <point x="504" y="119" type="curve" smooth="yes"/>
      <point x="458" y="213" type="line" smooth="yes"/>
      <point x="434" y="265"/>
      <point x="414" y="292"/>
      <point x="329" y="292" type="curve"/>
      <point x="349" y="317"/>
      <point x="357" y="326"/>
      <point x="373" y="357" type="curve" smooth="yes"/>
      <point x="406" y="418"/>
      <point x="423" y="446"/>
      <point x="455" y="446" type="curve" smooth="yes"/>
      <point x="475" y="446"/>
      <point x="497" y="431"/>
      <point x="501" y="404" type="curve"/>
      <point x="521" y="408"/>
      <point x="551" y="427"/>
      <point x="551" y="483" type="curve" smooth="yes"/>
      <point x="551" y="517"/>
      <point x="542" y="542"/>
      <point x="504" y="542" type="curve" smooth="yes"/>
      <point x="468" y="542"/>
      <point x="450" y="520"/>
      <point x="408" y="445" type="curve" smooth="yes"/>
      <point x="376" y="386"/>
      <point x="355" y="339"/>
      <point x="331" y="312" type="curve" smooth="yes"/>
      <point x="319" y="298"/>
      <point x="305" y="287"/>
      <point x="282" y="288" type="curve"/>
      <point x="282" y="462" type="line" smooth="yes"/>
      <point x="282" y="509"/>
      <point x="292" y="526"/>
      <point x="326" y="526" type="curve" smooth="yes"/>
      <point x="322" y="526" type="line"/>
      <point x="322" y="536" type="line"/>
      <point x="20" y="536" type="line"/>
      <point x="8" y="353" type="line"/>
      <point x="18" y="353" type="line"/>
      <point x="22" y="389" type="line" smooth="yes"/>
      <point x="33" y="494"/>
      <point x="55" y="526"/>
      <point x="121" y="526" type="curve" smooth="yes"/>
      <point x="141" y="526" type="line"/>
      <point x="141" y="78" type="line" smooth="yes"/>
      <point x="141" y="28"/>
      <point x="132" y="10"/>
      <point x="88" y="10" type="curve" smooth="yes"/>
      <point x="81" y="10" type="line"/>
    </contour>
  </outline>
</glyph>
<glyph name="uni04A5" format="2">
  <advance width="585"/>
  <unicode hex="04A5"/>
  <anchor x="293" y="0" name="bottom"/>
  <anchor x="293" y="536" name="top"/>
  <outline>
    <contour>
      <point x="10" y="0" type="line"/>
      <point x="241" y="0" type="line"/>
      <point x="241" y="10" type="line"/>
      <point x="237" y="10" type="line" smooth="yes"/>
      <point x="214" y="10"/>
      <point x="205" y="21"/>
      <point x="205" y="76" type="curve" smooth="yes"/>
      <point x="205" y="269" type="line"/>
      <point x="304" y="269" type="line"/>
      <point x="304" y="76" type="line" smooth="yes"/>
      <point x="304" y="21"/>
      <point x="296" y="10"/>
      <point x="270" y="10" type="curve" smooth="yes"/>
      <point x="268" y="10" type="line"/>
      <point x="268" y="0" type="line"/>
      <point x="499" y="0" type="line"/>
      <point x="499" y="10" type="line"/>
      <point x="492" y="10" type="line" smooth="yes"/>
      <point x="464" y="10"/>
      <point x="445" y="33"/>
      <point x="445" y="76" type="curve" smooth="yes"/>
      <point x="445" y="526" type="line"/>
      <point x="448" y="526" type="line" smooth="yes"/>
      <point x="526" y="526"/>
      <point x="559" y="494"/>
      <point x="566" y="391" type="curve" smooth="yes"/>
      <point x="568" y="360" type="line"/>
      <point x="578" y="360" type="line"/>
      <point x="573" y="536" type="line"/>
      <point x="268" y="536" type="line"/>
      <point x="268" y="526" type="line"/>
      <point x="270" y="526" type="line" smooth="yes"/>
      <point x="296" y="526"/>
      <point x="304" y="514"/>
      <point x="304" y="461" type="curve" smooth="yes"/>
      <point x="304" y="279" type="line"/>
      <point x="205" y="279" type="line"/>
      <point x="205" y="460" type="line" smooth="yes"/>
      <point x="205" y="514"/>
      <point x="212" y="526"/>
      <point x="238" y="526" type="curve" smooth="yes"/>
      <point x="241" y="526" type="line"/>
      <point x="241" y="536" type="line"/>
      <point x="10" y="536" type="line"/>
      <point x="10" y="526" type="line"/>
      <point x="19" y="526" type="line" smooth="yes"/>
      <point x="46" y="526"/>
      <point x="62" y="514"/>
      <point x="62" y="461" type="curve" smooth="yes"/>
      <point x="62" y="76" type="line" smooth="yes"/>
      <point x="62" y="21"/>
      <point x="47" y="10"/>
      <point x="19" y="10" type="curve" smooth="yes"/>
      <point x="10" y="10" type="line"/>
    </contour>
  </outline>
</glyph>
<glyph name="uni04BC" format="2">
  <advance width="644"/>
  <unicode hex="04BC"/>
  <anchor x="369" y="0" name="bottom"/>
  <anchor x="369" y="714" name="top"/>
  <outline>
    <contour>
      <point x="400" y="-10" type="curve" smooth="yes"/>
      <point x="504" y="-10"/>
      <point x="593" y="36"/>
      <point x="593" y="110" type="curve" smooth="yes"/>
      <point x="593" y="127"/>
      <point x="589" y="146"/>
      <point x="574" y="148" type="curve"/>
      <point x="534" y="37"/>
      <point x="479" y="2"/>
      <point x="423" y="2" type="curve" smooth="yes"/>
      <point x="328" y="2"/>
      <point x="294" y="125"/>
      <point x="293" y="360" type="curve"/>
      <point x="604" y="360" type="line"/>
      <point x="604" y="363" type="line" smooth="yes"/>
      <point x="604" y="622"/>
      <point x="522" y="725"/>
      <point x="384" y="725" type="curve" smooth="yes"/>
      <point x="242" y="725"/>
      <point x="139" y="597"/>
      <point x="139" y="368" type="curve"/>
      <point x="101" y="374"/>
      <point x="85" y="397"/>
      <point x="85" y="449" type="curve" smooth="yes"/>
      <point x="85" y="470"/>
      <point x="89" y="493"/>
      <point x="95" y="507" type="curve"/>
      <point x="85" y="513"/>
      <point x="72" y="518"/>
      <point x="56" y="518" type="curve" smooth="yes"/>
      <point x="29" y="518"/>
      <point x="8" y="491"/>
      <point x="8" y="448" type="curve" smooth="yes"/>
      <point x="8" y="391"/>
      <point x="34" y="362"/>
      <point x="139" y="359" type="curve"/>
      <point x="140" y="130"/>
      <point x="247" y="-10"/>
    </contour>
    <contour>
      <point x="293" y="370" type="line"/>
      <point x="293" y="605"/>
      <point x="318" y="715"/>
      <point x="377" y="715" type="curve" smooth="yes"/>
      <point x="432" y="715"/>
      <point x="453" y="607"/>
      <point x="452" y="370" type="curve"/>
    </contour>
  </outline>
</glyph>
<glyph name="uni04C8" format="2">
  <advance width="507"/>
  <unicode hex="04C8"/>
  <anchor x="253" y="-249" name="bottom"/>
  <anchor x="253" y="536" name="top"/>
  <outline>
    <contour>
      <point x="257" y="-249" type="curve" smooth="yes"/>
      <point x="387" y="-249"/>
      <point x="445" y="-183"/>
      <point x="445" y="20" type="curve" smooth="yes"/>
      <point x="445" y="460" type="line"/>
      <point x="445" y="514"/>
      <point x="464" y="526"/>
      <point x="492" y="526" type="curve" smooth="yes"/>
      <point x="499" y="526" type="line"/>
      <point x="499" y="536" type="line"/>
      <point x="268" y="536" type="line"/>
      <point x="268" y="526" type="line"/>
      <point x="270" y="526" type="line" smooth="yes"/>
      <point x="294" y="526"/>
      <point x="304" y="514"/>
      <point x="304" y="461" type="curve" smooth="yes"/>
      <point x="304" y="279" type="line"/>
      <point x="205" y="279" type="line"/>
      <point x="205" y="460" type="line" smooth="yes"/>
      <point x="205" y="514"/>
      <point x="212" y="526"/>
      <point x="238" y="526" type="curve" smooth="yes"/>
      <point x="241" y="526" type="line"/>
      <point x="241" y="536" type="line"/>
      <point x="10" y="536" type="line"/>
      <point x="10" y="526" type="line"/>
      <point x="19" y="526" type="line" smooth="yes"/>
      <point x="46" y="526"/>
      <point x="62" y="514"/>
      <point x="62" y="461" type="curve" smooth="yes"/>
      <point x="62" y="76" type="line" smooth="yes"/>
      <point x="62" y="21"/>
      <point x="47" y="10"/>
      <point x="19" y="10" type="curve" smooth="yes"/>
      <point x="10" y="10" type="line"/>
      <point x="10" y="0" type="line"/>
      <point x="241" y="0" type="line"/>
      <point x="241" y="10" type="line"/>
      <point x="237" y="10" type="line" smooth="yes"/>
      <point x="214" y="10"/>
      <point x="205" y="21"/>
      <point x="205" y="76" type="curve" smooth="yes"/>
      <point x="205" y="269" type="line"/>
      <point x="304" y="269" type="line"/>
      <point x="304" y="64" type="line" smooth="yes"/>
      <point x="304" y="-200"/>
      <point x="288" y="-239"/>
      <point x="249" y="-239" type="curve" smooth="yes"/>
      <point x="215" y="-239"/>
      <point x="208" y="-199"/>
      <point x="208" y="-77" type="curve"/>
      <point x="154" y="-81"/>
      <point x="131" y="-122"/>
      <point x="131" y="-159" type="curve" smooth="yes"/>
      <point x="131" y="-183"/>
      <point x="140" y="-205"/>
      <point x="157" y="-221" type="curve" smooth="yes"/>
      <point x="179" y="-239"/>
      <point x="216" y="-249"/>
    </contour>
  </outline>
</glyph>
<glyph name="uni04D8" format="2">
  <advance width="546"/>
  <unicode hex="04D8"/>
  <anchor x="274" y="0" name="bottom"/>
  <anchor x="274" y="714" name="top"/>
  <outline>
    <contour>
      <point x="262" y="-10" type="curve" smooth="yes"/>
      <point x="419" y="-10"/>
      <point x="507" y="129"/>
      <point x="507" y="347" type="curve" smooth="yes"/>
      <point x="507" y="587"/>
      <point x="403" y="725"/>
      <point x="239" y="725" type="curve" smooth="yes"/>
      <point x="127" y="725"/>
      <point x="51" y="675"/>
      <point x="51" y="601" type="curve" smooth="yes"/>
      <point x="51" y="584"/>
      <point x="56" y="569"/>
      <point x="70" y="567" type="curve"/>
      <point x="103" y="679"/>
      <point x="167" y="714"/>
      <point x="223" y="714" type="curve" smooth="yes"/>
      <point x="318" y="714"/>
      <point x="351" y="589"/>
      <point x="353" y="355" type="curve"/>
      <point x="40" y="355" type="line"/>
      <point x="40" y="360" type="line" smooth="yes"/>
      <point x="40" y="90"/>
      <point x="123" y="-10"/>
    </contour>
    <contour>
      <point x="267" y="0" type="curve" smooth="yes"/>
      <point x="214" y="0"/>
      <point x="193" y="104"/>
      <point x="194" y="345" type="curve"/>
      <point x="353" y="345" type="line"/>
      <point x="353" y="105"/>
      <point x="327" y="0"/>
    </contour>
  </outline>
</glyph>
<glyph name="uni0507" format="2">
  <advance width="408"/>
  <unicode hex="0507"/>
  <anchor x="174" y="0" name="bottom"/>
  <anchor x="204" y="536" name="top"/>
  <outline>
    <contour>
      <point x="390" y="-217" type="line"/>
      <point x="400" y="-217" type="line"/>
      <point x="400" y="10" type="line"/>
      <point x="389" y="10" type="line" smooth="yes"/>
      <point x="352" y="10"/>
      <point x="346" y="24"/>
      <point x="346" y="77" type="curve" smooth="yes"/>
      <point x="346" y="154" type="line" smooth="yes"/>
      <point x="346" y="220"/>
      <point x="308" y="269"/>
      <point x="246" y="276" type="curve"/>
      <point x="246" y="278" type="line"/>
      <point x="306" y="294"/>
      <point x="337" y="349"/>
      <point x="337" y="412" type="curve" smooth="yes"/>
      <point x="337" y="498"/>
      <point x="272" y="547"/>
      <point x="159" y="547" type="curve" smooth="yes"/>
      <point x="46" y="547"/>
      <point x="5" y="496"/>
      <point x="5" y="448" type="curve" smooth="yes"/>
      <point x="5" y="400"/>
      <point x="48" y="375"/>
      <point x="96" y="375" type="curve"/>
      <point x="96" y="511"/>
      <point x="116" y="537"/>
      <point x="146" y="537" type="curve" smooth="yes"/>
      <point x="184" y="537"/>
      <point x="195" y="505"/>
      <point x="195" y="402" type="curve" smooth="yes"/>
      <point x="195" y="315"/>
      <point x="181" y="280"/>
      <point x="135" y="280" type="curve" smooth="yes"/>
      <point x="77" y="280" type="line"/>
      <point x="77" y="270" type="line"/>
      <point x="132" y="270" type="line" smooth="yes"/>
      <point x="185" y="270"/>
      <point x="205" y="252"/>
      <point x="205" y="148" type="curve" smooth="yes"/>
      <point x="205" y="0" type="line"/>
      <point x="263" y="0" type="line" smooth="yes"/>
      <point x="351" y="0"/>
      <point x="381" y="-42"/>
      <point x="388" y="-175" type="curve" smooth="yes"/>
    </contour>
  </outline>
</glyph>
<glyph name="uni0517" format="2">
  <advance width="728"/>
  <unicode hex="0517"/>
  <anchor x="366" y="-240" name="bottom"/>
  <anchor x="366" y="536" name="top"/>
  <outline>
    <contour>
      <point x="6" y="-228" type="line"/>
      <point x="275" y="-228" type="line"/>
      <point x="275" y="-218" type="line"/>
      <point x="257" y="-218" type="line" smooth="yes"/>
      <point x="211" y="-218"/>
      <point x="205" y="-195"/>
      <point x="205" y="-132" type="curve" smooth="yes"/>
      <point x="205" y="-75" type="line" smooth="yes"/>
      <point x="205" y="-25"/>
      <point x="205" y="23"/>
      <point x="203" y="74" type="curve"/>
      <point x="205" y="74" type="line"/>
      <point x="220" y="21"/>
      <point x="236" y="-10"/>
      <point x="299" y="-10" type="curve" smooth="yes"/>
      <point x="387" y="-10"/>
      <point x="445" y="55"/>
      <point x="453" y="220" type="curve"/>
      <point x="532" y="66" type="line" smooth="yes"/>
      <point x="539" y="50"/>
      <point x="543" y="37"/>
      <point x="543" y="28" type="curve" smooth="yes"/>
      <point x="543" y="16"/>
      <point x="535" y="10"/>
      <point x="513" y="10" type="curve" smooth="yes"/>
      <point x="465" y="10" type="line"/>
      <point x="465" y="0" type="line"/>
      <point x="722" y="0" type="line"/>
      <point x="722" y="10" type="line"/>
      <point x="720" y="10" type="line" smooth="yes"/>
      <point x="707" y="10"/>
      <point x="716" y="11"/>
      <point x="688" y="56" type="curve" smooth="yes"/>
      <point x="519" y="338" type="line"/>
      <point x="638" y="485" type="line" smooth="yes"/>
      <point x="664" y="519"/>
      <point x="680" y="526"/>
      <point x="685" y="526" type="curve" smooth="yes"/>
      <point x="696" y="526" type="line"/>
      <point x="696" y="536" type="line"/>
      <point x="574" y="536" type="line"/>
      <point x="574" y="526" type="line"/>
      <point x="611" y="526" type="line" smooth="yes"/>
      <point x="628" y="526"/>
      <point x="636" y="522"/>
      <point x="636" y="511" type="curve" smooth="yes"/>
      <point x="636" y="501"/>
      <point x="625" y="482"/>
      <point x="608" y="461" type="curve" smooth="yes"/>
      <point x="454" y="269" type="line"/>
      <point x="454" y="451"/>
      <point x="401" y="547"/>
      <point x="299" y="547" type="curve" smooth="yes"/>
      <point x="237" y="547"/>
      <point x="214" y="526"/>
      <point x="205" y="473" type="curve"/>
      <point x="203" y="473" type="line"/>
      <point x="203" y="536" type="line"/>
      <point x="21" y="536" type="line"/>
      <point x="21" y="526" type="line"/>
      <point x="23" y="526" type="line" smooth="yes"/>
      <point x="21" y="526"/>
      <point x="62" y="525"/>
      <point x="62" y="468" type="curve" smooth="yes"/>
      <point x="62" y="-132" type="line" smooth="yes"/>
      <point x="62" y="-195"/>
      <point x="56" y="-218"/>
      <point x="10" y="-218" type="curve" smooth="yes"/>
      <point x="6" y="-218" type="line"/>
    </contour>
    <contour>
      <point x="265" y="9" type="curve" smooth="yes"/>
      <point x="224" y="9"/>
      <point x="204" y="90"/>
      <point x="204" y="261" type="curve" smooth="yes"/>
      <point x="204" y="438"/>
      <point x="211" y="532"/>
      <point x="259" y="532" type="curve" smooth="yes"/>
      <point x="303" y="532"/>
      <point x="311" y="485"/>
      <point x="311" y="258" type="curve" smooth="yes"/>
      <point x="311" y="45"/>
      <point x="302" y="9"/>
    </contour>
  </outline>
</glyph>
<glyph name="uni0520" format="2">
  <advance width="773"/>
  <unicode hex="0520"/>
  <anchor x="387" y="-248" name="bottom"/>
  <anchor x="387" y="714" name="top"/>
  <outline>
    <contour>
      <point x="518" y="-248" type="curve" smooth="yes"/>
      <point x="677" y="-248"/>
      <point x="754" y="-130"/>
      <point x="754" y="83" type="curve" smooth="yes"/>
      <point x="754" y="278"/>
      <point x="708" y="395"/>
      <point x="518" y="395" type="curve" smooth="yes"/>
      <point x="499" y="395"/>
      <point x="473" y="389"/>
      <point x="458" y="386" type="curve"/>
      <point x="458" y="636" type="line" smooth="yes"/>
      <point x="458" y="695"/>
      <point x="486" y="704"/>
      <point x="511" y="704" type="curve" smooth="yes"/>
      <point x="519" y="704" type="line"/>
      <point x="519" y="714" type="line"/>
      <point x="109" y="714" type="line"/>
      <point x="109" y="704" type="line"/>
      <point x="160" y="704" type="line" smooth="yes"/>
      <point x="221" y="704"/>
      <point x="212" y="672"/>
      <point x="212" y="602" type="curve" smooth="yes"/>
      <point x="212" y="551"/>
      <point x="198" y="385"/>
      <point x="190" y="295" type="curve" smooth="yes"/>
      <point x="161" y="104"/>
      <point x="108" y="83"/>
      <point x="81" y="83" type="curve" smooth="yes"/>
      <point x="51" y="83"/>
      <point x="36" y="106"/>
      <point x="38" y="136" type="curve"/>
      <point x="18" y="123"/>
      <point x="-1" y="103"/>
      <point x="-1" y="67" type="curve" smooth="yes"/>
      <point x="-1" y="27"/>
      <point x="21" y="-7"/>
      <point x="59" y="-7" type="curve" smooth="yes"/>
      <point x="107" y="-7"/>
      <point x="155" y="34"/>
      <point x="185" y="189" type="curve" smooth="yes"/>
      <point x="205" y="309"/>
      <point x="222" y="533"/>
      <point x="228" y="704" type="curve"/>
      <point x="313" y="704" type="line"/>
      <point x="313" y="78" type="line" smooth="yes"/>
      <point x="313" y="19"/>
      <point x="284" y="10"/>
      <point x="260" y="10" type="curve" smooth="yes"/>
      <point x="252" y="10" type="line"/>
      <point x="252" y="0" type="line"/>
      <point x="521" y="0" type="line"/>
      <point x="521" y="10" type="line"/>
      <point x="511" y="10" type="line" smooth="yes"/>
      <point x="485" y="10"/>
      <point x="458" y="19"/>
      <point x="458" y="84" type="curve" smooth="yes"/>
      <point x="458" y="375" type="line"/>
      <point x="465" y="377"/>
      <point x="473" y="379"/>
      <point x="483" y="379" type="curve" smooth="yes"/>
      <point x="572" y="379"/>
      <point x="598" y="312"/>
      <point x="598" y="84" type="curve" smooth="yes"/>
      <point x="598" y="-161"/>
      <point x="587" y="-238"/>
      <point x="528" y="-238" type="curve" smooth="yes"/>
      <point x="473" y="-238"/>
      <point x="451" y="-202"/>
      <point x="453" y="-66" type="curve"/>
      <point x="392" y="-66"/>
      <point x="368" y="-96"/>
      <point x="368" y="-136" type="curve" smooth="yes"/>
      <point x="368" y="-202"/>
      <point x="414" y="-248"/>
    </contour>
  </outline>
</glyph>
<glyph name="uni0523" format="2">
  <advance width="714"/>
  <unicode hex="0523"/>
  <anchor x="357" y="-240" name="bottom"/>
  <anchor x="357" y="536" name="top"/>
  <outline>
    <contour>
      <point x="484" y="-240" type="curve" smooth="yes"/>
      <point x="609" y="-240"/>
      <point x="697" y="-168"/>
      <point x="697" y="44" type="curve" smooth="yes"/>
      <point x="697" y="227"/>
      <point x="630" y="304"/>
      <point x="513" y="304" type="curve" smooth="yes"/>
      <point x="485" y="304"/>
      <point x="463" y="299"/>
      <point x="445" y="293" type="curve"/>
      <point x="445" y="460" type="line" smooth="yes"/>
      <point x="445" y="514"/>
      <point x="464" y="526"/>
      <point x="492" y="526" type="curve" smooth="yes"/>
      <point x="499" y="526" type="line"/>
      <point x="499" y="536" type="line"/>
      <point x="268" y="536" type="line"/>
      <point x="268" y="526" type="line"/>
      <point x="270" y="526" type="line" smooth="yes"/>
      <point x="294" y="526"/>
      <point x="304" y="514"/>
      <point x="304" y="461" type="curve" smooth="yes"/>
      <point x="304" y="279" type="line"/>
      <point x="205" y="279" type="line"/>
      <point x="205" y="460" type="line" smooth="yes"/>
      <point x="205" y="514"/>
      <point x="212" y="526"/>
      <point x="238" y="526" type="curve" smooth="yes"/>
      <point x="241" y="526" type="line"/>
      <point x="241" y="536" type="line"/>
      <point x="10" y="536" type="line"/>
      <point x="10" y="526" type="line"/>
      <point x="19" y="526" type="line" smooth="yes"/>
      <point x="46" y="526"/>
      <point x="62" y="514"/>
      <point x="62" y="461" type="curve" smooth="yes"/>
      <point x="62" y="76" type="line" smooth="yes"/>
      <point x="62" y="21"/>
      <point x="47" y="10"/>
      <point x="19" y="10" type="curve" smooth="yes"/>
      <point x="10" y="10" type="line"/>
      <point x="10" y="0" type="line"/>
      <point x="241" y="0" type="line"/>
      <point x="241" y="10" type="line"/>
      <point x="237" y="10" type="line" smooth="yes"/>
      <point x="214" y="10"/>
      <point x="205" y="21"/>
      <point x="205" y="76" type="curve" smooth="yes"/>
      <point x="205" y="269" type="line"/>
      <point x="304" y="269" type="line"/>
      <point x="304" y="76" type="line" smooth="yes"/>
      <point x="304" y="21"/>
      <point x="294" y="10"/>
      <point x="270" y="10" type="curve" smooth="yes"/>
      <point x="268" y="10" type="line"/>
      <point x="268" y="0" type="line"/>
      <point x="499" y="0" type="line"/>
      <point x="499" y="10" type="line"/>
      <point x="492" y="10" type="line" smooth="yes"/>
      <point x="464" y="10"/>
      <point x="445" y="25"/>
      <point x="445" y="76" type="curve" smooth="yes"/>
      <point x="445" y="282" type="line"/>
      <point x="456" y="286"/>
      <point x="466" y="289"/>
      <point x="483" y="289" type="curve" smooth="yes"/>
      <point x="536" y="289"/>
      <point x="553" y="230"/>
      <point x="553" y="41" type="curve" smooth="yes"/>
      <point x="553" y="-165"/>
      <point x="534" y="-230"/>
      <point x="488" y="-230" type="curve" smooth="yes"/>
      <point x="447" y="-230"/>
      <point x="437" y="-191"/>
      <point x="437" y="-68" type="curve"/>
      <point x="368" y="-68"/>
      <point x="351" y="-96"/>
      <point x="351" y="-133" type="curve" smooth="yes"/>
      <point x="351" y="-190"/>
      <point x="393" y="-240"/>
    </contour>
  </outline>
</glyph>
<glyph name="uni1AB4" format="2">
  <unicode hex="1AB4"/>
  <anchor x="2" y="536" name="_top"/>
  <anchor x="2" y="796" name="top"/>
  <outline>
    <contour>
      <point x="0" y="741" type="curve" smooth="yes"/>
      <point x="19" y="741"/>
      <point x="41" y="746"/>
      <point x="41" y="767" type="curve" smooth="yes"/>
      <point x="41" y="792"/>
      <point x="17" y="796"/>
      <point x="0" y="796" type="curve" smooth="yes"/>
      <point x="-22" y="796"/>
      <point x="-42" y="792"/>
      <point x="-42" y="767" type="curve" smooth="yes"/>
      <point x="-42" y="744"/>
      <point x="-20" y="741"/>
    </contour>
    <contour>
      <point x="-81" y="637" type="curve" smooth="yes"/>
      <point x="-62" y="637"/>
      <point x="-38" y="638"/>
      <point x="-38" y="663" type="curve" smooth="yes"/>
      <point x="-38" y="688"/>
      <point x="-62" y="692"/>
      <point x="-81" y="692" type="curve" smooth="yes"/>
      <point x="-98" y="692"/>
      <point x="-120" y="690"/>
      <point x="-120" y="663" type="curve" smooth="yes"/>
      <point x="-120" y="640"/>
      <point x="-100" y="637"/>
    </contour>
    <contour>
      <point x="81" y="637" type="curve" smooth="yes"/>
      <point x="97" y="637"/>
      <point x="120" y="642"/>
      <point x="120" y="665" type="curve" smooth="yes"/>
      <point x="120" y="691"/>
      <point x="96" y="693"/>
      <point x="81" y="693" type="curve" smooth="yes"/>
      <point x="60" y="693"/>
      <point x="38" y="689"/>
      <point x="38" y="665" type="curve" smooth="yes"/>
      <point x="38" y="643"/>
      <point x="59" y="637"/>
    </contour>
  </outline>
</glyph>
<glyph name="uni1ABE" format="2">
  <unicode hex="1ABE"/>
  <anchor x="-216" y="272" name="_center"/>
  <outline>
    <contour>
      <point x="0" y="154" type="line"/>
      <point x="48" y="162"/>
      <point x="90" y="200"/>
      <point x="90" y="273" type="curve" smooth="yes"/>
      <point x="90" y="348"/>
      <point x="50" y="381"/>
      <point x="0" y="390" type="curve"/>
      <point x="0" y="380" type="line"/>
      <point x="23" y="371"/>
      <point x="35" y="351"/>
      <point x="35" y="273" type="curve" smooth="yes"/>
      <point x="35" y="195"/>
      <point x="23" y="174"/>
      <point x="0" y="164" type="curve"/>
    </contour>
    <contour>
      <point x="-430" y="153" type="curve"/>
      <point x="-430" y="163" type="line"/>
      <point x="-453" y="175"/>
      <point x="-466" y="195"/>
      <point x="-466" y="272" type="curve" smooth="yes"/>
      <point x="-466" y="350"/>
      <point x="-453" y="369"/>
      <point x="-430" y="379" type="curve"/>
      <point x="-430" y="389" type="line"/>
      <point x="-480" y="379"/>
      <point x="-522" y="349"/>
      <point x="-522" y="272" type="curve" smooth="yes"/>
      <point x="-522" y="201"/>
      <point x="-478" y="161"/>
    </contour>
  </outline>
</glyph>
<glyph name="uni1C80" format="2">
  <advance width="390"/>
  <unicode hex="1C80"/>
  <anchor x="195" y="0" name="bottom"/>
  <anchor x="195" y="550" name="top"/>
  <outline>
    <contour>
      <point x="236" y="-10" type="curve" smooth="yes"/>
      <point x="317" y="-10"/>
      <point x="364" y="36"/>
      <point x="364" y="114" type="curve" smooth="yes"/>
      <point x="364" y="187"/>
      <point x="321" y="233"/>
      <point x="258" y="233" type="curve" smooth="yes"/>
      <point x="230" y="233"/>
      <point x="202" y="223"/>
      <point x="176" y="206" type="curve"/>
      <point x="175" y="226"/>
      <point x="176" y="248"/>
      <point x="176" y="272" type="curve" smooth="yes"/>
      <point x="176" y="294"/>
      <point x="175" y="314"/>
      <point x="176" y="333" type="curve"/>
      <point x="201" y="316"/>
      <point x="230" y="306"/>
      <point x="258" y="306" type="curve" smooth="yes"/>
      <point x="321" y="306"/>
      <point x="364" y="351"/>
      <point x="364" y="424" type="curve" smooth="yes"/>
      <point x="364" y="502"/>
      <point x="315" y="549"/>
      <point x="234" y="549" type="curve" smooth="yes"/>
      <point x="113" y="549"/>
      <point x="29" y="447"/>
      <point x="29" y="272" type="curve" smooth="yes"/>
      <point x="29" y="98"/>
      <point x="122" y="-10"/>
    </contour>
    <contour>
      <point x="259" y="4" type="curve" smooth="yes"/>
      <point x="203" y="4"/>
      <point x="181" y="42"/>
      <point x="177" y="195" type="curve"/>
      <point x="202" y="213"/>
      <point x="230" y="223"/>
      <point x="258" y="223" type="curve" smooth="yes"/>
      <point x="316" y="223"/>
      <point x="355" y="182"/>
      <point x="355" y="114" type="curve" smooth="yes"/>
      <point x="355" y="45"/>
      <point x="319" y="4"/>
    </contour>
    <contour>
      <point x="259" y="316" type="curve" smooth="yes"/>
      <point x="230" y="316"/>
      <point x="202" y="328"/>
      <point x="177" y="346" type="curve"/>
      <point x="181" y="499"/>
      <point x="203" y="535"/>
      <point x="256" y="535" type="curve" smooth="yes"/>
      <point x="317" y="535"/>
      <point x="355" y="492"/>
      <point x="355" y="425" type="curve" smooth="yes"/>
      <point x="355" y="357"/>
      <point x="315" y="316"/>
    </contour>
  </outline>
</glyph>
<glyph name="uni1C81" format="2">
  <advance width="464"/>
  <unicode hex="1C81"/>
  <anchor x="229" y="-210" name="bottom"/>
  <anchor x="229" y="536" name="top"/>
  <outline>
    <contour>
      <point x="1" y="-210" type="line"/>
      <point x="11" y="-210" type="line"/>
      <point x="17" y="-143" type="line" smooth="yes"/>
      <point x="33" y="41"/>
      <point x="59" y="75"/>
      <point x="153" y="75" type="curve" smooth="yes"/>
      <point x="299" y="75" type="line" smooth="yes"/>
      <point x="397" y="75"/>
      <point x="424" y="41"/>
      <point x="435" y="-144" type="curve" smooth="yes"/>
      <point x="439" y="-210" type="line"/>
      <point x="449" y="-210" type="line"/>
      <point x="449" y="85" type="line"/>
      <point x="424" y="85" type="line" smooth="yes"/>
      <point x="386" y="85"/>
      <point x="383" y="103"/>
      <point x="383" y="155" type="curve" smooth="yes"/>
      <point x="383" y="452" type="line" smooth="yes"/>
      <point x="383" y="508"/>
      <point x="394" y="526"/>
      <point x="426" y="526" type="curve" smooth="yes"/>
      <point x="442" y="526" type="line"/>
      <point x="442" y="536" type="line"/>
      <point x="71" y="536" type="line"/>
      <point x="71" y="528" type="line"/>
      <point x="97" y="528" type="line" smooth="yes"/>
      <point x="126" y="528"/>
      <point x="131" y="510"/>
      <point x="131" y="473" type="curve" smooth="yes"/>
      <point x="131" y="439"/>
      <point x="125" y="387"/>
      <point x="119" y="336" type="curve" smooth="yes"/>
      <point x="103" y="241"/>
      <point x="78" y="140"/>
      <point x="52" y="85" type="curve"/>
      <point x="1" y="85" type="line"/>
    </contour>
    <contour>
      <point x="65" y="85" type="line"/>
      <point x="106" y="201"/>
      <point x="135" y="349"/>
      <point x="147" y="526" type="curve"/>
      <point x="233" y="526" type="line"/>
      <point x="233" y="85" type="line"/>
    </contour>
  </outline>
</glyph>
<glyph name="uni1C84" format="2">
  <advance width="463"/>
  <unicode hex="1C84"/>
  <anchor x="232" y="0" name="bottom"/>
  <anchor x="232" y="714" name="top"/>
  <outline>
    <contour>
      <point x="78" y="0" type="line"/>
      <point x="360" y="0" type="line"/>
      <point x="360" y="10" type="line"/>
      <point x="328" y="10" type="line" smooth="yes"/>
      <point x="296" y="10"/>
      <point x="290" y="18"/>
      <point x="290" y="47" type="curve" smooth="yes"/>
      <point x="290" y="55"/>
      <point x="290" y="60"/>
      <point x="294" y="76" type="curve" smooth="yes"/>
      <point x="439" y="697" type="line"/>
      <point x="439" y="714" type="line"/>
      <point x="43" y="714" type="line"/>
      <point x="36" y="521" type="line"/>
      <point x="46" y="521" type="line"/>
      <point x="50" y="554" type="line" smooth="yes"/>
      <point x="61" y="668"/>
      <point x="95" y="704"/>
      <point x="192" y="704" type="curve" smooth="yes"/>
      <point x="305" y="704" type="line"/>
      <point x="156" y="77" type="line" smooth="yes"/>
      <point x="144" y="29"/>
      <point x="130" y="10"/>
      <point x="93" y="10" type="curve" smooth="yes"/>
      <point x="78" y="10" type="line"/>
    </contour>
  </outline>
</glyph>
<glyph name="uni1C88" format="2">
  <advance width="463"/>
  <unicode hex="1C88"/>
  <anchor x="232" y="0" name="bottom"/>
  <anchor x="232" y="759" name="top"/>
  <outline>
    <contour>
      <point x="228" y="-10" type="curve" smooth="yes"/>
      <point x="362" y="-10"/>
      <point x="433" y="71"/>
      <point x="433" y="226" type="curve" smooth="yes"/>
      <point x="433" y="362"/>
      <point x="366" y="450"/>
      <point x="252" y="461" type="curve"/>
      <point x="358" y="677" type="line" smooth="yes"/>
      <point x="386" y="735"/>
      <point x="401" y="750"/>
      <point x="419" y="750" type="curve" smooth="yes"/>
      <point x="462" y="750" type="line"/>
      <point x="462" y="760" type="line"/>
      <point x="288" y="760" type="line"/>
      <point x="288" y="750" type="line"/>
      <point x="327" y="750" type="line" smooth="yes"/>
      <point x="351" y="750"/>
      <point x="363" y="738"/>
      <point x="363" y="720" type="curve" smooth="yes"/>
      <point x="363" y="708"/>
      <point x="360" y="697"/>
      <point x="353" y="684" type="curve" smooth="yes"/>
      <point x="240" y="459" type="line"/>
      <point x="122" y="697" type="line" smooth="yes"/>
      <point x="121" y="700"/>
      <point x="120" y="702"/>
      <point x="120" y="719" type="curve" smooth="yes"/>
      <point x="120" y="741"/>
      <point x="133" y="750"/>
      <point x="147" y="750" type="curve" smooth="yes"/>
      <point x="203" y="750" type="line"/>
      <point x="203" y="760" type="line"/>
      <point x="0" y="760" type="line"/>
      <point x="0" y="750" type="line"/>
      <point x="10" y="750"/>
      <point x="23" y="728"/>
      <point x="34" y="705" type="curve" smooth="yes"/>
      <point x="163" y="454" type="line"/>
      <point x="71" y="426"/>
      <point x="24" y="345"/>
      <point x="24" y="226" type="curve" smooth="yes"/>
      <point x="24" y="71"/>
      <point x="101" y="-10"/>
    </contour>
    <contour>
      <point x="233" y="0" type="curve" smooth="yes"/>
      <point x="188" y="0"/>
      <point x="174" y="55"/>
      <point x="174" y="226" type="curve" smooth="yes"/>
      <point x="174" y="396"/>
      <point x="190" y="450"/>
      <point x="237" y="450" type="curve" smooth="yes"/>
      <point x="277" y="450"/>
      <point x="289" y="396"/>
      <point x="289" y="226" type="curve" smooth="yes"/>
      <point x="289" y="55"/>
      <point x="275" y="0"/>
    </contour>
  </outline>
</glyph>
<glyph name="uni1D00" format="2">
  <advance width="481"/>
  <unicode hex="1D00"/>
  <anchor x="240" y="0" name="bottom"/>
  <anchor x="240" y="536" name="top"/>
  <outline>
    <contour>
      <point x="4" y="0" type="line"/>
      <point x="115" y="0" type="line"/>
      <point x="115" y="10" type="line"/>
      <point x="72" y="10" type="line" smooth="yes"/>
      <point x="60" y="10"/>
      <point x="52" y="19"/>
      <point x="52" y="33" type="curve" smooth="yes"/>
      <point x="52" y="44"/>
      <point x="59" y="65"/>
      <point x="62" y="76" type="curve" smooth="yes"/>
      <point x="100" y="198" type="line"/>
      <point x="253" y="198" type="line"/>
      <point x="283" y="74" type="line" smooth="yes"/>
      <point x="288" y="57"/>
      <point x="289" y="45"/>
      <point x="289" y="37" type="curve" smooth="yes"/>
      <point x="289" y="21"/>
      <point x="279" y="10"/>
      <point x="252" y="10" type="curve" smooth="yes"/>
      <point x="232" y="10" type="line"/>
      <point x="232" y="0" type="line"/>
      <point x="480" y="0" type="line"/>
      <point x="480" y="10" type="line"/>
      <point x="478" y="10" type="line" smooth="yes"/>
      <point x="448" y="10"/>
      <point x="441" y="21"/>
      <point x="435" y="49" type="curve" smooth="yes"/>
      <point x="302" y="536" type="line"/>
      <point x="195" y="536" type="line"/>
      <point x="45" y="55" type="line" smooth="yes"/>
      <point x="34" y="19"/>
      <point x="20" y="10"/>
      <point x="-2" y="10" type="curve" smooth="yes"/>
      <point x="4" y="10" type="line"/>
    </contour>
    <contour>
      <point x="102" y="208" type="line"/>
      <point x="146" y="353" type="line" smooth="yes"/>
      <point x="161" y="402"/>
      <point x="166" y="416"/>
      <point x="187" y="480" type="curve"/>
      <point x="189" y="480" type="line"/>
      <point x="196" y="436"/>
      <point x="205" y="393"/>
      <point x="217" y="349" type="curve" smooth="yes"/>
      <point x="250" y="208" type="line"/>
    </contour>
  </outline>
</glyph>
<glyph name="uni1D01" format="2">
  <advance width="625"/>
  <unicode hex="1D01"/>
  <anchor x="319" y="0" name="bottom"/>
  <anchor x="319" y="536" name="top"/>
  <outline>
    <contour>
      <point x="5" y="0" type="line"/>
      <point x="131" y="0" type="line"/>
      <point x="131" y="10" type="line"/>
      <point x="103" y="10" type="line" smooth="yes"/>
      <point x="76" y="10"/>
      <point x="71" y="14"/>
      <point x="71" y="35" type="curve" smooth="yes"/>
      <point x="71" y="44"/>
      <point x="71" y="51"/>
      <point x="80" y="73" type="curve" smooth="yes"/>
      <point x="127" y="188" type="line"/>
      <point x="275" y="188" type="line"/>
      <point x="275" y="52" type="line" smooth="yes"/>
      <point x="275" y="15"/>
      <point x="264" y="8"/>
      <point x="239" y="8" type="curve" smooth="yes"/>
      <point x="224" y="8" type="line"/>
      <point x="224" y="0" type="line"/>
      <point x="603" y="0" type="line"/>
      <point x="608" y="132" type="line"/>
      <point x="599" y="132" type="line"/>
      <point x="596" y="100" type="line" smooth="yes"/>
      <point x="591" y="32"/>
      <point x="567" y="10"/>
      <point x="496" y="10" type="curve" smooth="yes"/>
      <point x="411" y="10" type="line"/>
      <point x="411" y="277" type="line"/>
      <point x="538" y="277" type="line"/>
      <point x="538" y="287" type="line"/>
      <point x="411" y="287" type="line"/>
      <point x="411" y="526" type="line"/>
      <point x="482" y="526" type="line" smooth="yes"/>
      <point x="549" y="526"/>
      <point x="573" y="504"/>
      <point x="577" y="438" type="curve" smooth="yes"/>
      <point x="580" y="403" type="line"/>
      <point x="590" y="403" type="line"/>
      <point x="585" y="536" type="line"/>
      <point x="204" y="536" type="line"/>
      <point x="204" y="526" type="line"/>
      <point x="263" y="526" type="line"/>
      <point x="66" y="64" type="line" smooth="yes"/>
      <point x="49" y="23"/>
      <point x="33" y="10"/>
      <point x="14" y="10" type="curve" smooth="yes"/>
      <point x="5" y="10" type="line"/>
    </contour>
    <contour>
      <point x="131" y="196" type="line"/>
      <point x="273" y="528" type="line"/>
      <point x="275" y="528" type="line"/>
      <point x="275" y="196" type="line"/>
    </contour>
  </outline>
</glyph>
<glyph name="uni1D04" format="2">
  <advance width="431"/>
  <unicode hex="1D04"/>
  <anchor x="215" y="0" name="bottom"/>
  <anchor x="215" y="536" name="top"/>
  <outline>
    <contour>
      <point x="265" y="-8" type="curve" smooth="yes"/>
      <point x="388" y="-8"/>
      <point x="405" y="64"/>
      <point x="405" y="101" type="curve" smooth="yes"/>
      <point x="405" y="121"/>
      <point x="400" y="140"/>
      <point x="374" y="146" type="curve"/>
      <point x="373" y="59"/>
      <point x="345" y="5"/>
      <point x="276" y="5" type="curve" smooth="yes"/>
      <point x="190" y="5"/>
      <point x="171" y="78"/>
      <point x="171" y="286" type="curve" smooth="yes"/>
      <point x="171" y="475"/>
      <point x="195" y="533"/>
      <point x="241" y="533" type="curve" smooth="yes"/>
      <point x="287" y="533"/>
      <point x="300" y="512"/>
      <point x="300" y="381" type="curve"/>
      <point x="370" y="381"/>
      <point x="405" y="408"/>
      <point x="405" y="452" type="curve" smooth="yes"/>
      <point x="405" y="509"/>
      <point x="351" y="543"/>
      <point x="271" y="543" type="curve" smooth="yes"/>
      <point x="99" y="543"/>
      <point x="31" y="442"/>
      <point x="31" y="271" type="curve" smooth="yes"/>
      <point x="31" y="95"/>
      <point x="113" y="-8"/>
    </contour>
  </outline>
</glyph>
<glyph name="uni1D1B" format="2">
  <advance width="418"/>
  <unicode hex="1D1B"/>
  <anchor x="210" y="0" name="bottom"/>
  <anchor x="210" y="536" name="top"/>
  <outline>
    <contour>
      <point x="91" y="0" type="line"/>
      <point x="329" y="0" type="line"/>
      <point x="329" y="10" type="line"/>
      <point x="315" y="10" type="line" smooth="yes"/>
      <point x="283" y="10"/>
      <point x="278" y="28"/>
      <point x="278" y="71" type="curve" smooth="yes"/>
      <point x="278" y="526" type="line"/>
      <point x="334" y="526" type="line" smooth="yes"/>
      <point x="361" y="526"/>
      <point x="393" y="498"/>
      <point x="400" y="403" type="curve" smooth="yes"/>
      <point x="403" y="367" type="line"/>
      <point x="413" y="367" type="line"/>
      <point x="408" y="536" type="line"/>
      <point x="10" y="536" type="line"/>
      <point x="4" y="367" type="line"/>
      <point x="14" y="367" type="line"/>
      <point x="16" y="406" type="line" smooth="yes"/>
      <point x="18" y="498"/>
      <point x="48" y="526"/>
      <point x="84" y="526" type="curve" smooth="yes"/>
      <point x="142" y="526" type="line"/>
      <point x="142" y="73" type="line" smooth="yes"/>
      <point x="142" y="29"/>
      <point x="136" y="10"/>
      <point x="104" y="10" type="curve" smooth="yes"/>
      <point x="91" y="10" type="line"/>
    </contour>
  </outline>
</glyph>
<glyph name="uni1D6D" format="2">
  <advance width="488"/>
  <unicode hex="1D6D"/>
  <outline>
    <contour>
      <point x="182" y="-10" type="curve" smooth="yes"/>
      <point x="253" y="-10"/>
      <point x="269" y="18"/>
      <point x="276" y="57" type="curve"/>
      <point x="278" y="57" type="line"/>
      <point x="278" y="0" type="line"/>
      <point x="479" y="0" type="line"/>
      <point x="479" y="10" type="line"/>
      <point x="471" y="10" type="line" smooth="yes"/>
      <point x="425" y="10"/>
      <point x="419" y="32"/>
      <point x="419" y="96" type="curve" smooth="yes"/>
      <point x="419" y="760" type="line"/>
      <point x="213" y="760" type="line"/>
      <point x="213" y="750" type="line"/>
      <point x="217" y="750" type="line" smooth="yes"/>
      <point x="249" y="750"/>
      <point x="277" y="746"/>
      <point x="277" y="692" type="curve" smooth="yes"/>
      <point x="277" y="614" type="line" smooth="yes"/>
      <point x="277" y="511"/>
      <point x="277" y="490"/>
      <point x="278" y="440" type="curve"/>
      <point x="276" y="440" type="line"/>
      <point x="267" y="492"/>
      <point x="244" y="514"/>
      <point x="182" y="514" type="curve" smooth="yes"/>
      <point x="86" y="514"/>
      <point x="27" y="431"/>
      <point x="27" y="248" type="curve" smooth="yes"/>
      <point x="27" y="68"/>
      <point x="86" y="-10"/>
    </contour>
    <contour>
      <point x="221" y="9" type="curve" smooth="yes"/>
      <point x="179" y="9"/>
      <point x="170" y="45"/>
      <point x="170" y="247" type="curve" smooth="yes"/>
      <point x="170" y="452"/>
      <point x="178" y="497"/>
      <point x="222" y="497" type="curve" smooth="yes"/>
      <point x="274" y="497"/>
      <point x="278" y="405"/>
      <point x="278" y="249" type="curve" smooth="yes"/>
      <point x="278" y="90"/>
      <point x="276" y="9"/>
    </contour>
    <contour>
      <point x="182" y="573" type="curve"/>
      <point x="191" y="573" type="line"/>
      <point x="190" y="578"/>
      <point x="192" y="617"/>
      <point x="240" y="617" type="curve" smooth="yes"/>
      <point x="334" y="617"/>
      <point x="356" y="557"/>
      <point x="412" y="557" type="curve" smooth="yes"/>
      <point x="491" y="557"/>
      <point x="517" y="608"/>
      <point x="522" y="665" type="curve"/>
      <point x="514" y="665" type="line"/>
      <point x="514" y="660"/>
      <point x="507" y="623"/>
      <point x="463" y="623" type="curve" smooth="yes"/>
      <point x="369" y="623"/>
      <point x="338" y="680"/>
      <point x="292" y="680" type="curve" smooth="yes"/>
      <point x="211" y="680"/>
      <point x="184" y="626"/>
    </contour>
  </outline>
</glyph>
<glyph name="uni1D6E" format="2">
  <advance width="315"/>
  <unicode hex="1D6E"/>
  <anchor x="208" y="770" name="top"/>
  <anchor x="378" y="770" name="topright"/>
  <anchor x="158" y="0" name="bottom"/>
  <outline>
    <contour>
      <point x="-30" y="202" type="curve"/>
      <point x="-20" y="202" type="line"/>
      <point x="-21" y="214"/>
      <point x="-17" y="270"/>
      <point x="33" y="270" type="curve" smooth="yes"/>
      <point x="83" y="270"/>
      <point x="153" y="191"/>
      <point x="235" y="191" type="curve" smooth="yes"/>
      <point x="305" y="191"/>
      <point x="316" y="253"/>
      <point x="321" y="332" type="curve"/>
      <point x="311" y="332" type="line"/>
      <point x="312" y="320"/>
      <point x="303" y="265"/>
      <point x="255" y="265" type="curve" smooth="yes"/>
      <point x="207" y="265"/>
      <point x="116" y="343"/>
      <point x="54" y="343" type="curve" smooth="yes"/>
      <point x="-15" y="343"/>
      <point x="-27" y="276"/>
    </contour>
    <component base="f"/>
  </outline>
</glyph>
<glyph name="uni1D88" format="2">
  <advance width="483"/>
  <unicode hex="1D88"/>
  <anchor x="242" y="536" name="top"/>
  <anchor x="480" y="536" name="topright"/>
  <anchor x="242" y="-228" name="bottom"/>
  <outline>
    <contour>
      <point x="347" y="-204" type="curve" smooth="yes"/>
      <point x="405" y="-204"/>
      <point x="429" y="-165"/>
      <point x="429" y="-27" type="curve" smooth="yes"/>
      <point x="429" y="111" type="line"/>
      <point x="419" y="111" type="line"/>
      <point x="419" y="-37" type="line" smooth="yes"/>
      <point x="419" y="-100"/>
      <point x="403" y="-119"/>
      <point x="350" y="-119" type="curve" smooth="yes"/>
      <point x="319" y="-119"/>
      <point x="297" y="-113"/>
      <point x="291" y="-101" type="curve"/>
      <point x="286" y="-108"/>
      <point x="282" y="-123"/>
      <point x="282" y="-138" type="curve" smooth="yes"/>
      <point x="282" y="-179"/>
      <point x="301" y="-204"/>
    </contour>
    <component base="p"/>
  </outline>
</glyph>
<glyph name="uni1D8B" format="2">
  <advance width="480"/>
  <unicode hex="1D8B"/>
  <anchor x="210" y="764" name="top"/>
  <anchor x="210" y="-235" name="bottom"/>
  <outline>
    <contour>
      <point x="391" y="-204" type="curve" smooth="yes"/>
      <point x="449" y="-204"/>
      <point x="473" y="-165"/>
      <point x="473" y="-27" type="curve" smooth="yes"/>
      <point x="473" y="88" type="line"/>
      <point x="205" y="88" type="line"/>
      <point x="205" y="78" type="line"/>
      <point x="463" y="78" type="line"/>
      <point x="463" y="-37" type="line" smooth="yes"/>
      <point x="463" y="-100"/>
      <point x="447" y="-119"/>
      <point x="394" y="-119" type="curve" smooth="yes"/>
      <point x="363" y="-119"/>
      <point x="341" y="-113"/>
      <point x="335" y="-101" type="curve"/>
      <point x="330" y="-108"/>
      <point x="326" y="-123"/>
      <point x="326" y="-138" type="curve" smooth="yes"/>
      <point x="326" y="-179"/>
      <point x="345" y="-204"/>
    </contour>
    <component base="uni0283"/>
  </outline>
</glyph>
<glyph name="uni1D91" format="2">
  <advance width="488"/>
  <unicode hex="1D91"/>
  <outline>
    <contour>
      <point x="406" y="-240" type="curve" smooth="yes"/>
      <point x="466" y="-240"/>
      <point x="494" y="-232"/>
      <point x="519" y="-224" type="curve"/>
      <point x="519" y="-214" type="line"/>
      <point x="501" y="-217"/>
      <point x="483" y="-222"/>
      <point x="467" y="-222" type="curve" smooth="yes"/>
      <point x="433" y="-222"/>
      <point x="419" y="-185"/>
      <point x="419" y="-130" type="curve" smooth="yes"/>
      <point x="419" y="645" type="line" smooth="yes"/>
      <point x="419" y="729"/>
      <point x="428" y="756"/>
      <point x="448" y="756" type="curve" smooth="yes"/>
      <point x="467" y="756"/>
      <point x="473" y="709"/>
      <point x="473" y="618" type="curve"/>
      <point x="550" y="618"/>
      <point x="566" y="647"/>
      <point x="566" y="683" type="curve" smooth="yes"/>
      <point x="566" y="722"/>
      <point x="547" y="766"/>
      <point x="439" y="766" type="curve" smooth="yes"/>
      <point x="320" y="766"/>
      <point x="277" y="699"/>
      <point x="277" y="570" type="curve" smooth="yes"/>
      <point x="277" y="534" type="line" smooth="yes"/>
      <point x="277" y="511"/>
      <point x="277" y="473"/>
      <point x="278" y="473" type="curve"/>
      <point x="276" y="473" type="line"/>
      <point x="267" y="526"/>
      <point x="244" y="547"/>
      <point x="182" y="547" type="curve" smooth="yes"/>
      <point x="86" y="547"/>
      <point x="27" y="464"/>
      <point x="27" y="264" type="curve" smooth="yes"/>
      <point x="27" y="68"/>
      <point x="86" y="-10"/>
      <point x="182" y="-10" type="curve" smooth="yes"/>
      <point x="245" y="-10"/>
      <point x="261" y="21"/>
      <point x="276" y="74" type="curve"/>
      <point x="278" y="74" type="line"/>
      <point x="277" y="25"/>
      <point x="277" y="-23"/>
      <point x="277" y="-72" type="curve" smooth="yes"/>
      <point x="277" y="-75" type="line" smooth="yes"/>
      <point x="277" y="-189"/>
      <point x="308" y="-240"/>
    </contour>
    <contour>
      <point x="216" y="9" type="curve" smooth="yes"/>
      <point x="179" y="9"/>
      <point x="170" y="45"/>
      <point x="170" y="258" type="curve" smooth="yes"/>
      <point x="170" y="485"/>
      <point x="178" y="532"/>
      <point x="222" y="532" type="curve" smooth="yes"/>
      <point x="270" y="532"/>
      <point x="277" y="438"/>
      <point x="277" y="261" type="curve" smooth="yes"/>
      <point x="277" y="90"/>
      <point x="257" y="9"/>
    </contour>
  </outline>
</glyph>
<glyph name="uni1D99" format="2">
  <advance width="501"/>
  <unicode hex="1D99"/>
  <anchor x="251" y="536" name="top"/>
  <anchor x="471" y="536" name="topright"/>
  <anchor x="251" y="0" name="bottom"/>
  <outline>
    <contour>
      <point x="552" y="-204" type="curve" smooth="yes"/>
      <point x="598" y="-204"/>
      <point x="617" y="-179"/>
      <point x="617" y="-138" type="curve" smooth="yes"/>
      <point x="617" y="-123"/>
      <point x="614" y="-108"/>
      <point x="608" y="-101" type="curve"/>
      <point x="602" y="-113"/>
      <point x="580" y="-119"/>
      <point x="549" y="-119" type="curve" smooth="yes"/>
      <point x="496" y="-119"/>
      <point x="481" y="-100"/>
      <point x="481" y="-37" type="curve" smooth="yes"/>
      <point x="481" y="10" type="line"/>
      <point x="471" y="10" type="line"/>
      <point x="471" y="-27" type="line" smooth="yes"/>
      <point x="471" y="-165"/>
      <point x="495" y="-204"/>
    </contour>
    <component base="u"/>
  </outline>
</glyph>
<glyph name="suspensionmark" format="2">
  <unicode hex="1DC3"/>
  <anchor x="1" y="536" name="_top"/>
  <anchor x="1" y="737" name="top"/>
  <outline>
    <contour>
      <point x="-52" y="607" type="curve" smooth="yes"/>
      <point x="18" y="607"/>
      <point x="61" y="664"/>
      <point x="157" y="664" type="curve" smooth="yes"/>
      <point x="163" y="664" type="line"/>
      <point x="163" y="732" type="line"/>
      <point x="146" y="732" type="line" smooth="yes"/>
      <point x="73" y="732"/>
      <point x="-43" y="674"/>
      <point x="-94" y="674" type="curve" smooth="yes"/>
      <point x="-136" y="674"/>
      <point x="-150" y="697"/>
      <point x="-153" y="714" type="curve" smooth="yes"/>
      <point x="-156" y="732" type="line"/>
      <point x="-164" y="732" type="line"/>
      <point x="-164" y="673"/>
      <point x="-134" y="607"/>
    </contour>
  </outline>
</glyph>
<glyph name="doublecircumflexabove" format="2">
  <unicode hex="1DCD"/>
  <anchor x="0" y="536" name="_top"/>
  <anchor x="0" y="651" name="top"/>
  <outline>
    <contour>
      <point x="-237" y="800" type="line"/>
      <point x="-225" y="800" type="line"/>
      <point x="-163" y="826"/>
      <point x="-65" y="880"/>
      <point x="-4" y="913" type="curve"/>
      <point x="52" y="881"/>
      <point x="156" y="828"/>
      <point x="225" y="800" type="curve"/>
      <point x="237" y="800" type="line"/>
      <point x="237" y="815" type="line"/>
      <point x="170" y="854"/>
      <point x="57" y="928"/>
      <point x="11" y="968" type="curve"/>
      <point x="-13" y="968" type="line"/>
      <point x="-59" y="928"/>
      <point x="-172" y="852"/>
      <point x="-237" y="815" type="curve"/>
    </contour>
  </outline>
</glyph>
<glyph name="ogonekabove" format="2">
  <unicode hex="1DCE"/>
  <anchor x="-211" y="536" name="_top"/>
  <anchor x="-211" y="776" name="top"/>
  <outline>
    <contour>
      <point x="-276" y="536" type="curve"/>
      <point x="-246" y="536" type="line"/>
      <point x="-126" y="573"/>
      <point x="-121" y="627"/>
      <point x="-121" y="664" type="curve" smooth="yes"/>
      <point x="-121" y="731"/>
      <point x="-171" y="776"/>
      <point x="-237" y="776" type="curve" smooth="yes"/>
      <point x="-259" y="776"/>
      <point x="-295" y="770"/>
      <point x="-308" y="760" type="curve"/>
      <point x="-308" y="748" type="line"/>
      <point x="-286" y="754"/>
      <point x="-266" y="757"/>
      <point x="-254" y="757" type="curve" smooth="yes"/>
      <point x="-210" y="757"/>
      <point x="-182" y="729"/>
      <point x="-182" y="655" type="curve" smooth="yes"/>
      <point x="-182" y="568"/>
      <point x="-220" y="543"/>
    </contour>
  </outline>
</glyph>
<glyph name="uni1E28" format="2">
  <advance width="605"/>
  <unicode hex="1E28"/>
  <anchor x="302" y="-237" name="bottom"/>
  <anchor x="302" y="714" name="top"/>
  <outline>
    <contour>
      <point x="148" y="-237" type="curve" smooth="yes"/>
      <point x="216" y="-237"/>
      <point x="258" y="-204"/>
      <point x="258" y="-148" type="curve" smooth="yes"/>
      <point x="258" y="-101"/>
      <point x="227" y="-68"/>
      <point x="165" y="-59" type="curve"/>
      <point x="175" y="0" type="line"/>
      <point x="279" y="0" type="line"/>
      <point x="279" y="10" type="line"/>
      <point x="252" y="10" type="line" smooth="yes"/>
      <point x="232" y="10"/>
      <point x="228" y="16"/>
      <point x="228" y="68" type="curve" smooth="yes"/>
      <point x="228" y="368" type="line"/>
      <point x="379" y="368" type="line"/>
      <point x="379" y="73" type="line" smooth="yes"/>
      <point x="379" y="18"/>
      <point x="375" y="10"/>
      <point x="352" y="10" type="curve" smooth="yes"/>
      <point x="328" y="10" type="line"/>
      <point x="328" y="0" type="line"/>
      <point x="591" y="0" type="line"/>
      <point x="591" y="10" type="line"/>
      <point x="553" y="10" type="line" smooth="yes"/>
      <point x="529" y="10"/>
      <point x="526" y="17"/>
      <point x="526" y="69" type="curve" smooth="yes"/>
      <point x="526" y="645" type="line" smooth="yes"/>
      <point x="526" y="694"/>
      <point x="529" y="704"/>
      <point x="553" y="704" type="curve" smooth="yes"/>
      <point x="591" y="704" type="line"/>
      <point x="591" y="714" type="line"/>
      <point x="328" y="714" type="line"/>
      <point x="328" y="704" type="line"/>
      <point x="351" y="704" type="line" smooth="yes"/>
      <point x="374" y="704"/>
      <point x="379" y="694"/>
      <point x="379" y="645" type="curve" smooth="yes"/>
      <point x="379" y="378" type="line"/>
      <point x="228" y="378" type="line"/>
      <point x="228" y="648" type="line" smooth="yes"/>
      <point x="228" y="694"/>
      <point x="232" y="704"/>
      <point x="252" y="704" type="curve" smooth="yes"/>
      <point x="279" y="704" type="line"/>
      <point x="279" y="714" type="line"/>
      <point x="16" y="714" type="line"/>
      <point x="16" y="704" type="line"/>
      <point x="47" y="704" type="line" smooth="yes"/>
      <point x="79" y="704"/>
      <point x="81" y="692"/>
      <point x="81" y="644" type="curve" smooth="yes"/>
      <point x="81" y="68" type="line" smooth="yes"/>
      <point x="81" y="16"/>
      <point x="79" y="10"/>
      <point x="54" y="10" type="curve" smooth="yes"/>
      <point x="16" y="10" type="line"/>
      <point x="16" y="0" type="line"/>
      <point x="165" y="0" type="line"/>
      <point x="154" y="-64" type="line"/>
      <point x="173" y="-71"/>
      <point x="181" y="-87"/>
      <point x="181" y="-131" type="curve" smooth="yes"/>
      <point x="181" y="-191"/>
      <point x="158" y="-223"/>
      <point x="114" y="-223" type="curve" smooth="yes"/>
      <point x="104" y="-223"/>
      <point x="96" y="-221"/>
      <point x="81" y="-216" type="curve"/>
      <point x="81" y="-226" type="line"/>
      <point x="103" y="-233"/>
      <point x="119" y="-237"/>
    </contour>
  </outline>
</glyph>
<glyph name="longshighstroke" format="2">
  <advance width="315"/>
  <unicode hex="1E9D"/>
  <anchor x="158" y="0" name="bottom"/>
  <anchor x="158" y="770" name="top"/>
  <outline>
    <contour>
      <point x="10" y="0" type="line"/>
      <point x="301" y="0" type="line"/>
      <point x="301" y="10" type="line"/>
      <point x="264" y="10" type="line" smooth="yes"/>
      <point x="247" y="10"/>
      <point x="217" y="17"/>
      <point x="217" y="75" type="curve" smooth="yes"/>
      <point x="217" y="567" type="line"/>
      <point x="315" y="567" type="line"/>
      <point x="315" y="577" type="line"/>
      <point x="217" y="577" type="line"/>
      <point x="217" y="638" type="line" smooth="yes"/>
      <point x="217" y="730"/>
      <point x="224" y="760"/>
      <point x="244" y="760" type="curve" smooth="yes"/>
      <point x="264" y="760"/>
      <point x="271" y="717"/>
      <point x="271" y="616" type="curve"/>
      <point x="362" y="616"/>
      <point x="366" y="661"/>
      <point x="366" y="696" type="curve" smooth="yes"/>
      <point x="366" y="733"/>
      <point x="346" y="770"/>
      <point x="238" y="770" type="curve" smooth="yes"/>
      <point x="119" y="770"/>
      <point x="77" y="706"/>
      <point x="77" y="581" type="curve" smooth="yes"/>
      <point x="77" y="577" type="line"/>
      <point x="14" y="577" type="line"/>
      <point x="14" y="567" type="line"/>
      <point x="77" y="567" type="line"/>
      <point x="77" y="75" type="line" smooth="yes"/>
      <point x="77" y="17"/>
      <point x="44" y="10"/>
      <point x="30" y="10" type="curve" smooth="yes"/>
      <point x="10" y="10" type="line"/>
    </contour>
  </outline>
</glyph>
<glyph name="LL.middleWelsh" format="2">
  <advance width="764"/>
  <unicode hex="1EFA"/>
  <anchor x="383" y="0" name="bottom"/>
  <anchor x="383" y="714" name="top"/>
  <outline>
    <contour>
      <point x="16" y="0" type="line"/>
      <point x="739" y="0" type="line"/>
      <point x="747" y="219" type="line"/>
      <point x="737" y="219" type="line"/>
      <point x="731" y="150" type="line" smooth="yes"/>
      <point x="725" y="54"/>
      <point x="672" y="10"/>
      <point x="565" y="10" type="curve" smooth="yes"/>
      <point x="503" y="10" type="line"/>
      <point x="503" y="635" type="line" smooth="yes"/>
      <point x="503" y="702"/>
      <point x="537" y="704"/>
      <point x="559" y="704" type="curve" smooth="yes"/>
      <point x="570" y="704" type="line"/>
      <point x="570" y="714" type="line"/>
      <point x="16" y="714" type="line"/>
      <point x="16" y="704" type="line"/>
      <point x="61" y="704" type="line" smooth="yes"/>
      <point x="76" y="704"/>
      <point x="81" y="689"/>
      <point x="81" y="644" type="curve" smooth="yes"/>
      <point x="81" y="67" type="line" smooth="yes"/>
      <point x="81" y="24"/>
      <point x="76" y="10"/>
      <point x="61" y="10" type="curve" smooth="yes"/>
      <point x="16" y="10" type="line"/>
    </contour>
    <contour>
      <point x="248" y="10" type="line" smooth="yes"/>
      <point x="232" y="10"/>
      <point x="226" y="24"/>
      <point x="226" y="67" type="curve" smooth="yes"/>
      <point x="226" y="643" type="line" smooth="yes"/>
      <point x="226" y="689"/>
      <point x="232" y="704"/>
      <point x="248" y="704" type="curve" smooth="yes"/>
      <point x="303" y="704" type="line" smooth="yes"/>
      <point x="334" y="704"/>
      <point x="357" y="702"/>
      <point x="357" y="630" type="curve" smooth="yes"/>
      <point x="357" y="86" type="line" smooth="yes"/>
      <point x="357" y="12"/>
      <point x="334" y="10"/>
      <point x="298" y="10" type="curve" smooth="yes"/>
    </contour>
  </outline>
</glyph>
<glyph name="ll.middleWelsh" format="2">
  <advance width="547"/>
  <unicode hex="1EFB"/>
  <anchor x="263" y="0" name="bottom"/>
  <anchor x="263" y="760" name="top"/>
  <outline>
    <contour>
      <point x="13" y="0" type="line"/>
      <point x="510" y="0" type="line"/>
      <point x="510" y="10" type="line"/>
      <point x="504" y="10" type="line" smooth="yes"/>
      <point x="477" y="10"/>
      <point x="458" y="24"/>
      <point x="458" y="82" type="curve" smooth="yes"/>
      <point x="458" y="557" type="line"/>
      <point x="532" y="557" type="line"/>
      <point x="532" y="567" type="line"/>
      <point x="458" y="567" type="line"/>
      <point x="458" y="760" type="line"/>
      <point x="262" y="760" type="line"/>
      <point x="262" y="750" type="line"/>
      <point x="271" y="750" type="line" smooth="yes"/>
      <point x="282" y="750"/>
      <point x="316" y="743"/>
      <point x="316" y="689" type="curve" smooth="yes"/>
      <point x="316" y="567" type="line"/>
      <point x="209" y="567" type="line"/>
      <point x="209" y="760" type="line"/>
      <point x="13" y="760" type="line"/>
      <point x="13" y="750" type="line"/>
      <point x="23" y="750" type="line" smooth="yes"/>
      <point x="34" y="750"/>
      <point x="67" y="743"/>
      <point x="67" y="689" type="curve" smooth="yes"/>
      <point x="67" y="567" type="line"/>
      <point x="4" y="567" type="line"/>
      <point x="4" y="557" type="line"/>
      <point x="67" y="557" type="line"/>
      <point x="67" y="82" type="line" smooth="yes"/>
      <point x="67" y="24"/>
      <point x="48" y="10"/>
      <point x="23" y="10" type="curve" smooth="yes"/>
      <point x="13" y="10" type="line"/>
    </contour>
    <contour>
      <point x="255" y="10" type="line" smooth="yes"/>
      <point x="228" y="10"/>
      <point x="209" y="24"/>
      <point x="209" y="82" type="curve" smooth="yes"/>
      <point x="209" y="557" type="line"/>
      <point x="316" y="557" type="line"/>
      <point x="316" y="82" type="line" smooth="yes"/>
      <point x="316" y="24"/>
      <point x="297" y="10"/>
      <point x="271" y="10" type="curve" smooth="yes"/>
    </contour>
  </outline>
</glyph>
<glyph name="V.middleWelsh" format="2">
  <advance width="510"/>
  <unicode hex="1EFC"/>
  <anchor x="255" y="0" name="bottom"/>
  <anchor x="255" y="714" name="top"/>
  <outline>
    <contour>
      <point x="257" y="-10" type="curve" smooth="yes"/>
      <point x="364" y="-10"/>
      <point x="476" y="74"/>
      <point x="476" y="222" type="curve" smooth="yes"/>
      <point x="476" y="363"/>
      <point x="382" y="438"/>
      <point x="299" y="438" type="curve" smooth="yes"/>
      <point x="238" y="438"/>
      <point x="205" y="400"/>
      <point x="205" y="382" type="curve" smooth="yes"/>
      <point x="205" y="377"/>
      <point x="207" y="375"/>
      <point x="208" y="373" type="curve"/>
      <point x="229" y="402"/>
      <point x="250" y="410"/>
      <point x="263" y="410" type="curve" smooth="yes"/>
      <point x="306" y="410"/>
      <point x="322" y="359"/>
      <point x="322" y="215" type="curve" smooth="yes"/>
      <point x="322" y="59"/>
      <point x="306" y="0"/>
      <point x="260" y="0" type="curve" smooth="yes"/>
      <point x="211" y="0"/>
      <point x="193" y="81"/>
      <point x="193" y="262" type="curve" smooth="yes"/>
      <point x="193" y="548"/>
      <point x="271" y="661"/>
      <point x="370" y="712" type="curve"/>
      <point x="370" y="724" type="line"/>
      <point x="180" y="642"/>
      <point x="37" y="471"/>
      <point x="37" y="240" type="curve" smooth="yes"/>
      <point x="37" y="73"/>
      <point x="146" y="-10"/>
    </contour>
  </outline>
</glyph>
<glyph name="v.middleWelsh" format="2">
  <advance width="470"/>
  <unicode hex="1EFD"/>
  <anchor x="235" y="0" name="bottom"/>
  <anchor x="235" y="767" name="top"/>
  <outline>
    <contour>
      <point x="246" y="-10" type="curve" smooth="yes"/>
      <point x="365" y="-10"/>
      <point x="445" y="70"/>
      <point x="445" y="212" type="curve" smooth="yes"/>
      <point x="445" y="357"/>
      <point x="387" y="432"/>
      <point x="270" y="432" type="curve" smooth="yes"/>
      <point x="216" y="432"/>
      <point x="198" y="405"/>
      <point x="198" y="393" type="curve" smooth="yes"/>
      <point x="198" y="385"/>
      <point x="201" y="380"/>
      <point x="204" y="378" type="curve"/>
      <point x="213" y="400"/>
      <point x="221" y="413"/>
      <point x="242" y="413" type="curve" smooth="yes"/>
      <point x="279" y="413"/>
      <point x="294" y="364"/>
      <point x="294" y="211" type="curve" smooth="yes"/>
      <point x="294" y="51"/>
      <point x="282" y="0"/>
      <point x="238" y="0" type="curve" smooth="yes"/>
      <point x="195" y="0"/>
      <point x="179" y="74"/>
      <point x="179" y="309" type="curve" smooth="yes"/>
      <point x="179" y="523"/>
      <point x="204" y="709"/>
      <point x="331" y="763" type="curve"/>
      <point x="331" y="773" type="line"/>
      <point x="157" y="705"/>
      <point x="27" y="504"/>
      <point x="27" y="265" type="curve" smooth="yes"/>
      <point x="27" y="72"/>
      <point x="113" y="-10"/>
    </contour>
  </outline>
</glyph>
<glyph name="Yloop" format="2">
  <advance width="528"/>
  <unicode hex="1EFE"/>
  <anchor x="258" y="0" name="bottom"/>
  <anchor x="258" y="714" name="top"/>
  <outline>
    <contour>
      <point x="124" y="-60" type="curve" smooth="yes"/>
      <point x="181" y="-60"/>
      <point x="240" y="-14"/>
      <point x="259" y="48" type="curve" smooth="yes"/>
      <point x="432" y="613" type="line" smooth="yes"/>
      <point x="454" y="682"/>
      <point x="469" y="704"/>
      <point x="502" y="704" type="curve" smooth="yes"/>
      <point x="528" y="704" type="line"/>
      <point x="528" y="714" type="line"/>
      <point x="339" y="714" type="line"/>
      <point x="339" y="704" type="line"/>
      <point x="363" y="704" type="line" smooth="yes"/>
      <point x="406" y="704"/>
      <point x="427" y="691"/>
      <point x="427" y="656" type="curve" smooth="yes"/>
      <point x="427" y="635"/>
      <point x="421" y="608"/>
      <point x="410" y="573" type="curve" smooth="yes"/>
      <point x="360" y="403" type="line" smooth="yes"/>
      <point x="341" y="346"/>
      <point x="326" y="303"/>
      <point x="317" y="269" type="curve"/>
      <point x="299" y="329"/>
      <point x="303" y="328"/>
      <point x="277" y="393" type="curve" smooth="yes"/>
      <point x="194" y="612" type="line" smooth="yes"/>
      <point x="187" y="630"/>
      <point x="184" y="644"/>
      <point x="184" y="660" type="curve" smooth="yes"/>
      <point x="184" y="691"/>
      <point x="198" y="704"/>
      <point x="230" y="704" type="curve" smooth="yes"/>
      <point x="267" y="704" type="line"/>
      <point x="267" y="714" type="line"/>
      <point x="0" y="714" type="line"/>
      <point x="0" y="704" type="line"/>
      <point x="-4" y="704" type="line" smooth="yes"/>
      <point x="7" y="704"/>
      <point x="17" y="693"/>
      <point x="34" y="651" type="curve" smooth="yes"/>
      <point x="240" y="124" type="line"/>
      <point x="212" y="163"/>
      <point x="157" y="174"/>
      <point x="121" y="174" type="curve" smooth="yes"/>
      <point x="59" y="174"/>
      <point x="8" y="129"/>
      <point x="8" y="57" type="curve" smooth="yes"/>
      <point x="8" y="-19"/>
      <point x="69" y="-60"/>
    </contour>
    <contour>
      <point x="126" y="-50" type="curve" smooth="yes"/>
      <point x="72" y="-50"/>
      <point x="20" y="-10"/>
      <point x="20" y="57" type="curve" smooth="yes"/>
      <point x="20" y="123"/>
      <point x="66" y="164"/>
      <point x="119" y="164" type="curve" smooth="yes"/>
      <point x="157" y="164"/>
      <point x="229" y="148"/>
      <point x="257" y="80" type="curve"/>
      <point x="249" y="49" type="line" smooth="yes"/>
      <point x="242" y="15"/>
      <point x="197" y="-50"/>
    </contour>
  </outline>
</glyph>
<glyph name="uni1FC1" format="2">
  <advance width="195"/>
  <unicode hex="1FC1"/>
  <anchor x="99" y="536" name="_top"/>
  <outline>
    <contour>
      <point x="-55" y="752" type="curve"/>
      <point x="-46" y="752" type="line"/>
      <point x="-35" y="786"/>
      <point x="-20" y="805"/>
      <point x="2" y="805" type="curve" smooth="yes"/>
      <point x="22" y="805"/>
      <point x="119" y="754"/>
      <point x="175" y="754" type="curve" smooth="yes"/>
      <point x="232" y="754"/>
      <point x="242" y="806"/>
      <point x="248" y="871" type="curve"/>
      <point x="240" y="871" type="line"/>
      <point x="233" y="837"/>
      <point x="217" y="820"/>
      <point x="192" y="820" type="curve" smooth="yes"/>
      <point x="128" y="820"/>
      <point x="75" y="869"/>
      <point x="20" y="869" type="curve" smooth="yes"/>
      <point x="-37" y="869"/>
      <point x="-47" y="819"/>
    </contour>
    <contour>
      <point x="12" y="603" type="curve" smooth="yes"/>
      <point x="34" y="603"/>
      <point x="54" y="619"/>
      <point x="54" y="662" type="curve" smooth="yes"/>
      <point x="54" y="706"/>
      <point x="34" y="721"/>
      <point x="12" y="721" type="curve" smooth="yes"/>
      <point x="-9" y="721"/>
      <point x="-27" y="706"/>
      <point x="-27" y="662" type="curve" smooth="yes"/>
      <point x="-27" y="619"/>
      <point x="-9" y="603"/>
    </contour>
    <contour>
      <point x="181" y="603" type="curve" smooth="yes"/>
      <point x="201" y="603"/>
      <point x="220" y="619"/>
      <point x="220" y="662" type="curve" smooth="yes"/>
      <point x="220" y="706"/>
      <point x="201" y="721"/>
      <point x="181" y="721" type="curve" smooth="yes"/>
      <point x="157" y="721"/>
      <point x="139" y="706"/>
      <point x="139" y="662" type="curve" smooth="yes"/>
      <point x="139" y="619"/>
      <point x="157" y="603"/>
    </contour>
  </outline>
</glyph>
<glyph name="uni1FDD" format="2">
  <advance width="288"/>
  <unicode hex="1FDD"/>
  <anchor x="142" y="536" name="_top"/>
  <anchor x="142" y="724" name="top"/>
  <outline>
    <contour>
      <point x="148" y="547" type="curve"/>
      <point x="148" y="557" type="line"/>
      <point x="111" y="561"/>
      <point x="89" y="583"/>
      <point x="89" y="608" type="curve" smooth="yes"/>
      <point x="89" y="649"/>
      <point x="141" y="627"/>
      <point x="141" y="679" type="curve" smooth="yes"/>
      <point x="141" y="710"/>
      <point x="122" y="724"/>
      <point x="99" y="724" type="curve" smooth="yes"/>
      <point x="63" y="724"/>
      <point x="43" y="700"/>
      <point x="43" y="657" type="curve" smooth="yes"/>
      <point x="43" y="615"/>
      <point x="64" y="561"/>
    </contour>
    <contour>
      <point x="247" y="558" type="curve"/>
      <point x="258" y="558" type="line"/>
      <point x="258" y="562" type="line"/>
      <point x="251" y="608"/>
      <point x="243" y="671"/>
      <point x="241" y="714" type="curve"/>
      <point x="162" y="714" type="line"/>
      <point x="162" y="704" type="line"/>
      <point x="181" y="667"/>
      <point x="223" y="598"/>
    </contour>
  </outline>
</glyph>
<glyph name="uni1FEF" format="2">
  <unicode hex="1FEF"/>
  <anchor x="308" y="536" name="_top"/>
  <anchor x="308" y="760" name="top"/>
  <outline>
    <contour>
      <point x="358" y="598" type="curve"/>
      <point x="371" y="598" type="line"/>
      <point x="371" y="612" type="line"/>
      <point x="357" y="660"/>
      <point x="350" y="714"/>
      <point x="348" y="760" type="curve"/>
      <point x="251" y="760" type="line"/>
      <point x="251" y="747" type="line"/>
      <point x="271" y="702"/>
      <point x="309" y="649"/>
    </contour>
  </outline>
</glyph>
<glyph name="quotedblbase" format="2">
  <advance width="375"/>
  <unicode hex="201E"/>
  <outline>
    <contour>
      <point x="41" y="-154" type="line"/>
      <point x="141" y="-121"/>
      <point x="178" y="-43"/>
      <point x="178" y="40" type="curve" smooth="yes"/>
      <point x="178" y="109"/>
      <point x="152" y="151"/>
      <point x="104" y="151" type="curve" smooth="yes"/>
      <point x="72" y="151"/>
      <point x="48" y="135"/>
      <point x="48" y="80" type="curve" smooth="yes"/>
      <point x="48" y="-23"/>
      <point x="134" y="4"/>
      <point x="134" y="-55" type="curve" smooth="yes"/>
      <point x="134" y="-106"/>
      <point x="67" y="-137"/>
      <point x="41" y="-142" type="curve"/>
    </contour>
    <contour>
      <point x="199" y="-154" type="line"/>
      <point x="298" y="-121"/>
      <point x="335" y="-43"/>
      <point x="335" y="40" type="curve" smooth="yes"/>
      <point x="335" y="109"/>
      <point x="309" y="151"/>
      <point x="262" y="151" type="curve" smooth="yes"/>
      <point x="230" y="151"/>
      <point x="205" y="135"/>
      <point x="205" y="80" type="curve" smooth="yes"/>
      <point x="205" y="-23"/>
      <point x="292" y="4"/>
      <point x="292" y="-55" type="curve" smooth="yes"/>
      <point x="292" y="-106"/>
      <point x="225" y="-137"/>
      <point x="199" y="-142" type="curve"/>
    </contour>
  </outline>
</glyph>
